<svg xmlns="http://www.w3.org/2000/svg" viewBox="0 0 500 500"><defs><style>.cls-1{isolation:isolate;}.cls-2{fill:#41949b;}.cls-3{fill:#ccc6c6;mix-blend-mode:multiply;}.cls-4{fill:#f4926c;}.cls-5{fill:#fc9e7a;}.cls-6{fill:#fecca7;}.cls-7{fill:#edb28a;}.cls-8{fill:#fcd6be;}.cls-9{fill:#ffa579;}.cls-10{fill:#fca886;}.cls-11{fill:#f4a082;}.cls-12{fill:#f79779;}.cls-13{fill:#f7b69f;}.cls-14{opacity:0.42;}.cls-15{fill:none;stroke:#af6038;stroke-linecap:round;stroke-miterlimit:10;opacity:0.44;}.cls-16{fill:#ffd9c0;opacity:0.39;}.cls-17{fill:#fff;}.cls-18{fill:#b3d4d7;}</style></defs><g class="cls-1"><g id="Objects"><circle class="cls-2" cx="250" cy="248" r="196"/><path class="cls-3" d="M390.52,188l-26.92,7.72,3.43,12c-2.95.93-5.23,1.7-6.66,2.28-16.14,6.45-23.4,7.26-29.86,8.07-.56.07-1.08.12-1.6.17l-.34,0-1.46.09H327c-.45,0-.89,0-1.31,0h-.24l-1.33-.05H324c-.43,0-.84-.07-1.26-.12h-.13c-.44-.05-.88-.11-1.33-.19h-.08c-.93-.15-1.87-.34-2.88-.57h0c-1.21-.28-2.51-.6-4-1-6.46-1.61-24.22-3.23-33.09-3.23-6,0-12-2.93-18.73-4.35h-.05l-.16,0-.42-.08-1.38-.24-.36-.05c-.55-.08-1.1-.15-1.66-.2l-.42,0c-.52,0-1.05-.07-1.58-.09h-.22c-.59,0-1.18,0-1.78,0l-.43,0c-.62,0-1.24.1-1.87.19a25.81,25.81,0,0,0-7,2c-8.91-3.79-16.9-1.31-22.5,1.18-7.26,3.23-21,7.26-37.13,13.72s-31.47,12.91-42,10.49c-6.62-1.53-13.9-1.45-26.1-.77l0-14.34-28,.1.06,15.86,0-12.86-45.12.16A210.24,210.24,0,0,0,43,248a206.29,206.29,0,0,0,18.6,85.87l28.32-.1v3l28-.1-.07-19.13c2.87-.15,5.07-.24,6.43-.24a38,38,0,0,1,15.21,2.83,4,4,0,0,0-.27.4s-.44,1.54-.86,3.82h0a42.64,42.64,0,0,0-.75,7.47c0,5.65-.81,16.95,10.49,17.75a19.14,19.14,0,0,0,13.1-4.4h0l0,0,.76-.63.25-.23.49-.45.28-.28.42-.42.28-.3.38-.42a3.88,3.88,0,0,1,.26-.31l.35-.43.23-.3.34-.46.2-.29.33-.5.15-.24a13.54,13.54,0,0,0,.8-1.49,2.29,2.29,0,0,1,.1-.23c.07-.17.14-.33.2-.5s.07-.18.11-.28.1-.29.14-.44l.08-.26,2.12,1.12c-4.47,6.09-10.09,14.58-5.24,23.06,6.38,11.17,21.42,12.86,28.78,5.89-.8,3.05-1.64,6.81,2.69,11.87,4.84,5.65,13.72,8.07,23.83,3.41h0s0,.08,0,.12c0,.3.08.6.13.89,0,0,0,.06,0,.09a14.49,14.49,0,0,0,.87,3l0,0a13.65,13.65,0,0,0,1.58,2.8l0,0c2.13,2.89,5.58,5.15,10.65,5.78,12.23,1.53,16.5-2.74,23.77-12.11l1.25.61.12.05a30.38,30.38,0,0,0,3.59,1.36l.31.09c.52.15,1.05.29,1.6.42l.43.1a30.83,30.83,0,0,0,4.19.6l.61,0c.56,0,1.14.05,1.73.05h.69c.8,0,1.61,0,2.47-.1a13.09,13.09,0,0,0,1.33-.16l.32-.05c.4-.07.78-.16,1.14-.26h.05c.37-.11.71-.23,1.05-.36l.25-.11c.3-.13.59-.27.86-.42l.07,0a7.92,7.92,0,0,0,.8-.53l.2-.14c.22-.17.43-.35.62-.53a.27.27,0,0,0,.08-.07,7,7,0,0,0,.59-.63l.15-.17c.15-.2.3-.39.43-.59a.86.86,0,0,0,.07-.1,7,7,0,0,0,.41-.69l.1-.19c.1-.21.2-.41.29-.62a.54.54,0,0,1,.05-.11c.09-.24.18-.48.26-.72a1.09,1.09,0,0,0,0-.17c.07-.21.13-.43.19-.64a.29.29,0,0,1,0-.09c.06-.24.11-.48.15-.71a.69.69,0,0,0,0-.13c0-.22.07-.43.1-.64v0c0-.23.05-.45.06-.66v-.07c0-.12,0-.23,0-.35h0c0-.16,0-.31,0-.46V375c0-.11,0-.21,0-.3v-.06c0-.22,0-.4,0-.53h0a1.79,1.79,0,0,0,0-.25s8.88,2.42,15.34-2.42c4.23-3.18,4.64-8.08,4.43-11.08h0a3,3,0,0,0,0-.31c0-.07,0-.13,0-.19,0-.23,0-.44-.07-.63l0-.17c0-.15,0-.28-.06-.41l0-.14c0-.15-.05-.28-.07-.39l0-.07c0-.09,0-.16,0-.21l0,0,0-.07.1,0h0a32.86,32.86,0,0,0,3.83.82h0l.78.11.15,0,.75.09h.12l.93.08h0l.9.05h.24l.73,0h.26l1,0h0l1-.05.27,0,.73-.08.31,0c.27,0,.53-.07.8-.12l.21,0c.33-.06.65-.13,1-.21l.26-.06.73-.21.32-.1.71-.25.26-.11c.32-.12.63-.26.94-.41l.17-.09c.25-.12.49-.26.74-.4l.28-.18c.22-.13.43-.27.63-.41a2.48,2.48,0,0,0,.26-.19,10.57,10.57,0,0,0,.83-.67c.22-.19.43-.4.63-.61l.19-.21c.13-.15.26-.29.38-.44l.19-.27c.11-.14.21-.28.31-.43a2.82,2.82,0,0,0,.18-.29c.09-.15.18-.29.26-.44l.17-.31.22-.44.14-.33c.06-.15.13-.3.19-.46l.12-.34.15-.47a3.57,3.57,0,0,0,.1-.35c0-.15.09-.31.13-.47s.05-.24.07-.36.07-.32.1-.49l.06-.36c0-.16.05-.33.07-.49s0-.24,0-.36,0-.34,0-.5,0-.25,0-.37,0-.33,0-.5,0-.24,0-.36,0-.34,0-.5,0-.25,0-.37,0-.33,0-.49l0-.37c0-.16,0-.32,0-.48s0-.25,0-.38l-.06-.44-.06-.4c0-.13-.05-.26-.07-.39s-.05-.29-.08-.44,0-.18,0-.26a20.66,20.66,0,0,0-1.26-4h0a6.11,6.11,0,0,0-.27-.58h0c-.09-.19-.19-.37-.28-.54v0c-.09-.17-.19-.33-.28-.49h0l-.3-.45h0a4.63,4.63,0,0,0-.3-.4h0a1.9,1.9,0,0,0-.19-.21c2.83-1.82,5.49-3.7,8-5.61,6.57,4.53,16.86,2.75,21.42-3.33,3.18-4.23,1.5-9.16-1.4-13.64,3.67-3.27,7.18-6.33,10.69-9l1.32-1,0,0c.43-.31.85-.61,1.28-.9,8.54-5.92,15.65-8.38,26.05-10.77l4.92,17.13,26.91-7.72-4.07-14.17h0l3.24,11.28,31.52-9A207.85,207.85,0,0,0,444,175.77l-52.7,15.12ZM256.14,254.07h0c0-.08,0-.15.05-.23A2.23,2.23,0,0,0,256.14,254.07Zm.45-1.22,0,0v0Zm123.19-.5.06,0h0Z"/><path class="cls-4" d="M352.3,249.61c-5.65,4-8.88,10.49-15.33,15.33s-26.64,7.27-26.64,7.27S295,261.72,282.89,256.07s-21-9.69-25-11.3c-2.4-1-2-2.78-1.18-4.1-1,1.14-2.61,2.48-4.47,2.48s-2.31-.47-2.46-.91c-.75,1.4-5.27,2.88-8,4.95-1.91,1.43-3,.61-3.52-.31a7.27,7.27,0,0,1,.29,4.34,239.12,239.12,0,0,1-13.72,29.87c-4.09,7.15-12.37,7.51-18.52,5-26.23,61.49,51.61,83,51.61,83s36.32-30.67,57.3-42,33.9-26.63,46.82-36.32,21.79-11.3,41.16-15.33,58.11-3.23,96.85-11.3l-.56-58.76C489.78,208.13,357.74,245.72,352.3,249.61Z"/><path class="cls-5" d="M350.69,251.22l-.27-.1c-4.56,4-7.75,9.55-13.45,13.82-6.46,4.85-26.64,7.27-26.64,7.27S295,261.72,282.89,256.07s-21-9.69-25-11.3c-2.4-1-2-2.78-1.18-4.1-1,1.14-2.61,2.48-4.47,2.48s-2.31-.47-2.46-.91c-.75,1.4-5.27,2.88-8,4.95-1.91,1.43-3,.61-3.52-.31a7.27,7.27,0,0,1,.29,4.34,239.12,239.12,0,0,1-13.72,29.87c-4.09,7.15-12.37,7.51-18.52,5-26.23,61.49,51.61,83,51.61,83s36.32-30.67,57.3-42,33.9-26.63,46.82-36.32c.89-.67,1.77-1.3,2.64-1.9C371.49,271.44,364.15,257,350.69,251.22Z"/><path class="cls-6" d="M0,222.17c35.51,4,59.73,4,90.4,2.42s42.77-3.23,53.26-.81,25.83-4,42-10.49,29.87-10.49,37.13-13.72,18.56-6.46,30.67,4,25,24.21,25,24.21L255,241.54s26.64,12.91,39.55,21,21,12.92,29.06,17,17.75,8.07,22.6,13.72,11.3,13.72,6.45,20.18-16.14,8.07-22.6,2.42-15.33-8.07-20.17-11.3-24.22-11.3-26.64-12.91-5.65,0-1.61,3.23,12.91,8.07,22.6,16.14,14.53,9.69,17.75,10.49,8.07,15.34.81,21.79-20.18,2.43-20.18,2.43,2.42,8.87-4,13.72-15.34,2.42-15.34,2.42,1.62,11.3-9.68,12.1-17.76-3.22-23.41-7.26S169.49,327.09,157.39,319s-18.57-13.72-33.1-13.72S0,315,0,315Z"/><path class="cls-7" d="M303.06,348.3a15,15,0,0,0-.4-2.64c-9.68-8.08-38.74-28.25-42-29.87s-7.26-1.61,2.43,4.85S293,340,297.82,344C299.91,345.79,301.7,347.23,303.06,348.3Z"/><path class="cls-7" d="M237.69,327.5c-4-2.43-4.84-1.62,4.84,5.65,7,5.21,28.92,22.52,40.73,31.85a13.77,13.77,0,0,0,0-3.11l-.41-.5C274,354.94,241.73,329.92,237.69,327.5Z"/><path class="cls-8" d="M322.53,321.67c2.42,9.85-6.36,20.82-15.94,24.84,4.4.68,11.52.93,16.25-3.28C329.74,337.1,325.72,323.69,322.53,321.67Z"/><path class="cls-8" d="M302.66,345.66l.1,0-.9-.7-.45.31c-.3,9.33-10.29,14.72-20.33,13.76l-1,.7,3.24,2s8.88,2.42,15.34-2.42S302.66,345.66,302.66,345.66Z"/><path class="cls-8" d="M335.24,285.23c8.33,6.57-1.11,26.53-18.63,22.71,4.38,2,9.42,4.29,13.49,7.85,6.46,5.65,17.76,4,22.6-2.42s-1.61-14.53-6.45-20.18C343.64,290.16,339.64,287.59,335.24,285.23Z"/><path class="cls-7" d="M283.29,291.58l.18.11c-5.14-5.87-8.72-15.11-9.86-16.25-1.62-1.62.65,13.62,6.78,18.11h0C278.54,291.2,281.21,290.19,283.29,291.58Z"/><path class="cls-8" d="M273.61,373.9c8.41-.6,9.66-7,9.76-10.25l-7-4.09c2,9.06-7.6,13.54-20.13,10.91A30.76,30.76,0,0,0,273.61,373.9Z"/><path class="cls-9" d="M499.6,159.62S376.51,191.5,360.37,198,337,205.22,330.51,206s-9.69,0-16.14-1.62-24.22-3.23-33.09-3.23-17.76-6.45-29.06-4.84S233.66,206.83,228,211.68s-21.8,12.91-25,18.56-.81,16.95-1.62,25-4.84,16.95-2.42,24.21,19.37,12.92,25.83,1.62a239.12,239.12,0,0,0,13.72-29.87c.81-2.42-.81-5.65-.81-5.65s.81,4,4,1.62,8.88-4,8.07-5.65c0,0-.81,1.61,2.42,1.61s5.65-4,5.65-4-4,4,0,5.65,12.91,5.65,25,11.3,27.44,16.14,27.44,16.14,20.18-2.42,26.64-7.27,9.68-11.29,15.33-15.33S500,205.22,500,205.22Z"/><path class="cls-9" d="M257.87,369.06c-8.07,10.49-12.11,15.34-25,13.72s-15.34-13.72-12.11-20.18l15.34-30.67s11.3-8.07,14.53,4.85S249.8,365,249.8,365Z"/><path class="cls-10" d="M236.08,331.93,220.74,362.6a14.42,14.42,0,0,0,2.15,15.26c13.44,7.18,24.49-3.15,26.91-12.83,0,0,4-15.34.81-28.25S236.08,331.93,236.08,331.93Z"/><path class="cls-11" d="M219.55,370.05c-10.11,4.66-19,2.24-23.83-3.41s-3.23-9.69-2.42-12.91,20.18-30.67,24.21-34.71,10.5-6.46,17.76-1.61,2.42,15.33.81,18.56S219.55,370.05,219.55,370.05Z"/><path class="cls-10" d="M193.3,354.53c-7.26,7.27-22.6,5.65-29.05-5.65s5.65-22.6,8.87-28.24,19.37-25,34.71-20.18S214,323.3,214,323.3Z"/><path class="cls-9" d="M139.23,308.53c5.64-9.69,26.63,7.26,28.24,12.91s-8.07,16.95-19.37,16.14-10.49-12.1-10.49-17.75A47.06,47.06,0,0,1,139.23,308.53Z"/><path class="cls-4" d="M167.47,321.44c-1.61-5.65-22.6-22.6-28.24-12.91,0,0-.45,1.55-.87,3.83.52,7.05,5.1,14.73,12.16,14.73,5.76,0,7.46,1.52,10.68,6.09C165.71,329.59,168.38,324.62,167.47,321.44Z"/><path class="cls-5" d="M257.47,239.52c3.22-4.84.8-7.26-.81-12.11s5.65-12.91,8.88-25.82h0a4,4,0,0,0-3-4.77,29.19,29.19,0,0,0-10.28-.48c-11.3,1.62-18.56,10.49-24.21,15.34s-21.8,12.91-25,18.56a12,12,0,0,0-1.31,3.91c8-15.83,29.15-.28,36.42,12.64l.2.35-.09-.26c.55.92,1.61,1.74,3.52.31,2.76-2.07,7.28-3.55,8-4.95.15.44.7.91,2.46.91s3.45-1.34,4.47-2.48l-.08.15C256.89,240.39,257.17,240,257.47,239.52Z"/><path class="cls-12" d="M345,231.85c3.81,9.33,3.62,14.43,5.51,19.16.56-.49,1.14-1,1.75-1.4,5.65-4,147.7-44.39,147.7-44.39l-.4-45.6S376.51,191.5,360.37,198,337,205.22,330.51,206a31.22,31.22,0,0,1-12.16-.65h0C345.84,211.68,337.77,214.1,345,231.85Z"/><path class="cls-13" d="M230.43,350.5c0,4.84,8.07,4,8.07,4l8.07-12.1s-3.23-4-6.46-4.85-4.84,0-4.84,0Z"/><path class="cls-13" d="M230.43,322.25c-4.57-3.42-7.27-4-7.27-4s-10.49,10.5-6.45,16.15,12.91-.81,14.52-3.23,3.23-4.85,3.23-4.85S233.66,324.67,230.43,322.25Z"/><path class="cls-13" d="M206.21,307.72a65.53,65.53,0,0,0-11.29-2.42S186,315,186.84,320.64s11.41,11.93,17,6a118.31,118.31,0,0,0,10.44-13.23A19.57,19.57,0,0,0,206.21,307.72Z"/><path class="cls-13" d="M150.52,327.09c-5.35,0-9.28-4.42-11.09-9.64-.82,2.56-1,5.28.6,7.22,3.34,4,9.45,6.35,11.91,2.46C151.49,327.11,151,327.09,150.52,327.09Z"/><path class="cls-13" d="M198.55,279.07c8.07,4,17.75-6.46,17.75-6.46s6.46-17-5.65-17.75S198.55,279.07,198.55,279.07Z"/><g class="cls-14"><path class="cls-15" d="M257.87,242.92c16.73-6.93,29.63-30.32,26.4-36"/><path class="cls-15" d="M263.9,207c-.59,13.7-9.46,12.9-7,20.16s2.4,11.65-.41,15.1"/><path class="cls-15" d="M336.69,240c-1.61,16.13-29.29,28.29-29.29,28.29"/><path class="cls-15" d="M233.87,235.58a12.73,12.73,0,0,1,8.07,11.29"/><path class="cls-15" d="M232.66,229.54A12.93,12.93,0,0,1,244,240.83"/><path class="cls-15" d="M294.38,203.49c10.86,5.88,6,29.27-13.33,40.56"/></g><path class="cls-16" d="M270.17,298.79c5,5.53-2.24,7.51-13.32,8.17s-14.48-11.88-7.25-12.91C260.89,292.44,265.74,293.84,270.17,298.79Z"/><path class="cls-16" d="M283.65,270c3.91.65,1.3-3.26-5.21-9.77s-17-1.37-16.94,1.95c.19,6.85,10.68,5.24,14.71,6.85A14.65,14.65,0,0,0,283.65,270Z"/><rect class="cls-17" x="379.06" y="177.62" width="28" height="116" transform="translate(-49.74 117.54) rotate(-16.01)"/><polygon class="cls-18" points="500 264 421.68 284.62 391.34 178.89 500 148 500 264"/><rect class="cls-17" x="89.72" y="208.72" width="28" height="116" transform="translate(208.39 533.07) rotate(179.8)"/><polygon class="cls-18" points="0 212 89.52 211.77 89.92 321.77 0 322.25 0 212"/></g></g></svg>