<svg xmlns="http://www.w3.org/2000/svg" xmlns:xlink="http://www.w3.org/1999/xlink" viewBox="0 0 2778.34 2781.56"><defs><style>.cls-1{isolation:isolate;}.cls-2{fill:#b3d4d7;}.cls-3{fill:#d9eaeb;}.cls-4{fill:#bdd0fb;}.cls-10,.cls-11,.cls-12,.cls-5{fill:#fff;}.cls-5{mix-blend-mode:soft-light;}.cls-6{fill:#316f74;}.cls-7{fill:#91b3fa;}.cls-8{fill:#41949b;}.cls-23,.cls-9{fill:#e7b349;}.cls-10{opacity:0.76;}.cls-12{opacity:0.66;}.cls-13{fill:url(#linear-gradient);}.cls-14{fill:url(#linear-gradient-2);}.cls-15{fill:url(#linear-gradient-3);}.cls-16{fill:#67a9af;}.cls-17{fill:url(#linear-gradient-4);}.cls-18{fill:url(#linear-gradient-5);}.cls-19{fill:url(#linear-gradient-6);}.cls-20{fill:url(#linear-gradient-7);}.cls-21{fill:url(#linear-gradient-8);}.cls-22{fill:url(#linear-gradient-9);}.cls-23{opacity:0.78;}</style><linearGradient id="linear-gradient" x1="-1047.21" y1="1317.39" x2="-1182.75" y2="1520.71" gradientTransform="matrix(-1, 0, 0, 1, 1075.2, 0)" gradientUnits="userSpaceOnUse"><stop offset="0" stop-color="#febbba"/><stop offset="1" stop-color="#ff928e"/></linearGradient><linearGradient id="linear-gradient-2" x1="-1246.35" y1="2614.15" x2="-1180.81" y2="2614.15" xlink:href="#linear-gradient"/><linearGradient id="linear-gradient-3" x1="-1614.49" y1="2579.97" x2="-1536.16" y2="2579.97" xlink:href="#linear-gradient"/><linearGradient id="linear-gradient-4" x1="2975.03" y1="439" x2="2077.91" y2="2183.4" gradientUnits="userSpaceOnUse"><stop offset="0" stop-color="#4f52ff"/><stop offset="1" stop-color="#4042e2"/></linearGradient><linearGradient id="linear-gradient-5" x1="2332.62" y1="1232.45" x2="2248.84" y2="937.55" gradientTransform="matrix(1, 0, 0, 1, 0, 0)" xlink:href="#linear-gradient"/><linearGradient id="linear-gradient-6" x1="-1136.73" y1="863.87" x2="-1330.39" y2="1012.04" xlink:href="#linear-gradient"/><linearGradient id="linear-gradient-7" x1="-1273.06" y1="746.54" x2="-1092.69" y2="978.76" gradientTransform="matrix(-1, 0, 0, 1, 1075.2, 0)" gradientUnits="userSpaceOnUse"><stop offset="0" stop-color="#09005d"/><stop offset="1" stop-color="#1a0f91"/></linearGradient><linearGradient id="linear-gradient-8" x1="-1160.75" y1="832.47" x2="-1354.41" y2="980.65" xlink:href="#linear-gradient"/><linearGradient id="linear-gradient-9" x1="2309.62" y1="1637.8" x2="2596.14" y2="1024.55" gradientTransform="matrix(1, 0, 0, 1, 0, 0)" xlink:href="#linear-gradient"/></defs><g class="cls-1"><g id="Layer_2" data-name="Layer 2"><g id="Illustration"><path class="cls-2" d="M2456.3,2365c-57.05,59.21-111,97.4-153.69,127.57-501.33,354.67-1094.55,251.29-1220.62,226-186.17-37.28-546-109.35-806.22-411-393.63-456.4-332.33-1175.44-27-1650.09,55.85-86.82,350.86-568.7,950.46-646,362.87-46.77,785.87,47.56,1092.19,300.59C2934.4,843.28,2888.63,1916.27,2456.3,2365Z"/><path class="cls-3" d="M1186.51,1825s-87.72-396.17-295.12-456.87-568.56-41.57-720.9-603.94C81.3,435,37.42,292.23,16.37,230.46a38.39,38.39,0,0,1,34.19-50.77c179.78-10,770.76-14.35,981.68,337.75C1282.3,934.87,1186.51,1825,1186.51,1825Z"/><path class="cls-4" d="M222.22,304.29C452.27,426,743.73,669.92,933.35,939c27,45.38,96.37,139,161,319.64,55,150.43,86.89,315.87,93,429.07a13,13,0,0,1-12.26,13.66c-12.31.67-13.86-12.36-13.65-12C1139.38,1498.79,1073,1271.23,968.1,1077,836.67,839.11,622.72,629.83,412.76,459.35l-21.37-16.62C229.9,315.45,203.8,320.65,212.56,306.85A7.38,7.38,0,0,1,222.22,304.29Z"/><path class="cls-3" d="M1715.06,2473.83c27.7,5.05-317.4-243.19-539.26-723.53C1071.26,1524,986.87,1227.19,819.55,1150.91,680.3,1087.43,315,1255.58,196.35,1313.77c-14.82,7.27-14.5,28.51.55,35.29,74.22,33.42,236.12,116,303.4,226.31C589,1720.77,767.42,1778.76,909.45,1768s224.22-5.54,350.39,190.83S1636.37,2459.47,1715.06,2473.83Z"/><path class="cls-5" d="M370.5,1368c157.31-53,350.62-46.16,485.82,53.93l12.82,9.59c29.77,22.58,214.87,193.28,339.81,345.73a4.46,4.46,0,0,1-.62,6.27c-3.23,2.64-6.64-.72-6.15-.49C1124,1699.85,1018,1597,936,1521.14c-88.66-83.1-149.82-138.94-288.06-161.85-152.95-23.1-275.73,15.62-275.34,15.56a3.57,3.57,0,0,1-2.08-6.83Z"/><path class="cls-6" d="M1928.34,2262.79c-1.14-14.11-15.55-26.33-40-36.12,26.52-14.62,41.2-30.3,40-45.67-3.75-46.53-151.08-72.61-329.08-58.26S1280,2186.44,1283.77,2233c1.14,14.11,15.55,26.32,40,36.11-26.53,14.63-41.2,30.31-40,45.68,1.14,14.11,15.55,26.32,40,36.12-26.53,14.62-41.2,30.3-40,45.67,1.14,14.12,15.55,26.33,40,36.12-26.53,14.63-41.2,30.3-40,45.68,1.66,20.57,31.44,37.14,79.5,48a412.18,412.18,0,0,0,1.22,50.27c7,85.73,103.39,152.94,230.93,152.94s237.92-91.64,239.17-177.64a435.12,435.12,0,0,0-2.49-56.12c61-20.38,98.18-45.27,96.24-69.41-1.14-14.11-15.55-26.33-40-36.12,26.52-14.63,41.2-30.3,40-45.68-1.14-14.11-15.55-26.32-40-36.11C1914.9,2293.84,1929.58,2278.17,1928.34,2262.79Z"/><path class="cls-7" d="M1516.9,2544.85c-52.86,0-101.23-3.88-141.19-11.54a4.27,4.27,0,1,1,1.61-8.39c62.53,12,146,14.61,235.18,7.42,72.93-5.88,141.14-17.64,197.24-34a4.28,4.28,0,0,1,2.4,8.21c-56.65,16.53-125.45,28.4-199,34.33C1580.08,2543.53,1547.73,2544.85,1516.9,2544.85Z"/><path class="cls-7" d="M1517.79,2463c-68.68,0-130.06-6.45-173.35-18.78a4.28,4.28,0,0,1,2.34-8.23c61.69,17.57,161,23,265.72,14.58,103.57-8.35,200.15-29.37,258.37-56.22a4.27,4.27,0,1,1,3.58,7.76c-59.08,27.25-156.75,48.55-261.26,57C1580.58,2461.7,1548.45,2463,1517.79,2463Z"/><path class="cls-7" d="M1516.91,2381.25c-74.16,0-139.05-7.58-182.73-22a4.28,4.28,0,0,1,2.68-8.12c60.78,20,163.83,26.62,275.64,17.61,103.56-8.35,200.15-29.36,258.37-56.22a4.28,4.28,0,1,1,3.58,7.77c-59.09,27.25-156.76,48.55-261.26,57C1580.07,2380,1547.69,2381.25,1516.91,2381.25Z"/><path class="cls-7" d="M1517.48,2299.42c-58.82,0-112.32-4.76-153.92-14a4.27,4.27,0,0,1,1.86-8.34C1428,2291,1518,2294.57,1612.5,2287c102.64-8.28,198.73-29.07,257-55.62a4.28,4.28,0,0,1,3.54,7.79c-59.17,26.93-156.33,48-259.9,56.35C1580.47,2298.12,1548.24,2299.42,1517.48,2299.42Z"/><path class="cls-8" d="M1164.31,1849.91a601.91,601.91,0,0,0-107.79-210.45c-106-133.55-278.83-405.14-300.1-775.81C725.47,324.5,1203.64,54.56,1640,91.21s866.89,361.53,819.75,863.11c-29,308.62-201.74,542.72-330.35,677.16-81.67,85.37-139.93,189.93-171.46,303.79-38.6,139.35-130.46,313-348.78,323.61C1326.63,2272.58,1209.29,2009.25,1164.31,1849.91Z"/><path class="cls-9" d="M1681.3,2151.36l152.68-993c3.15-20.51,13.24-34.29,22.55-30.77s14.28,23,11.12,43.52c-.08.55-.19,1.22-.29,1.76l-173.9,983.78c-1.31,7.4-5.07,12.07-8.4,10.44S1680.21,2158.52,1681.3,2151.36Z"/><path class="cls-9" d="M1522.82,2159.24l-152.68-993c-3.15-20.52-13.25-34.29-22.54-30.78s-14.29,23-11.13,43.53c.08.54.19,1.22.29,1.75l173.91,983.78c1.3,7.4,5.06,12.07,8.39,10.44S1523.92,2166.41,1522.82,2159.24Z"/><path class="cls-10" d="M1832.88,1073.09c-3.88-6.23-12.85-8.56-20-5.2l-85,39.72-29.51-84.08a18,18,0,0,0-10.34-10.4c-9.78-4-21.48-.43-26.12,8l-.15.27-69.92,127.47-64.87-181.46-.11-.3a20.72,20.72,0,0,0-9.82-11.07c-10.88-5.94-25.25-3.11-32.1,6.32L1387.15,1097c-4,5.52-2.61,12.91,3.44,17,6.46,4.35,15.77,3.34,20.79-2.26l86.06-96,77.48,172.62.06.13a13.67,13.67,0,0,0,6.82,6.69c7.27,3.41,16.35,1.06,20.28-5.24l74.77-120,28.14,60.69.25.54c.21.43.44.86.7,1.29,3.88,6.23,12.84,8.55,20,5.2l100.91-47.15C1834.07,1087.1,1836.76,1079.33,1832.88,1073.09Z"/><path class="cls-11" d="M2132.7,1511.44a27.34,27.34,0,0,1-21.95-43.65A1119.26,1119.26,0,0,0,2181.07,1361a27.35,27.35,0,0,1,47.37,27.35,1171.81,1171.81,0,0,1-73.76,112.07A27.31,27.31,0,0,1,2132.7,1511.44Z"/><path class="cls-12" d="M2258.3,1295.9a27.37,27.37,0,0,1-25.08-38.26c159.93-368.31,22.25-676.93,20.83-680a27.36,27.36,0,0,1,49.74-22.79c6.16,13.45,149.17,334.1-20.38,724.58A27.36,27.36,0,0,1,2258.3,1295.9Z"/><path class="cls-13" d="M2311.63,1644.32l-149.73,1.85,52.4-49.33a39.12,39.12,0,0,1,47.95-4.49,113.37,113.37,0,0,1,26.62,23.72s93.41-34.13,138.69-110.51a461.56,461.56,0,0,1,44.88,84.94C2431.85,1614.33,2379.23,1633.07,2311.63,1644.32Z"/><path class="cls-7" d="M2116.91,2712.18c39.86,3.44,109.05,9,163.59,11.44,32.79,1.44,51.67-1.77,62.54-6.12,0,1.23-.06,2.38-.1,3.46a11.28,11.28,0,0,1-10.72,10.65c-103.07,5.76-185,2-214.21.22a8,8,0,0,1-6.55-12.07A66.63,66.63,0,0,1,2116.91,2712.18Z"/><path class="cls-9" d="M2280.5,2723.62c-54.54-2.4-123.73-8-163.59-11.44,39.19-48.09,163.59-80.5,163.59-80.5h35.14c24.16,34.83,27.66,68,27.4,85.82C2332.17,2721.85,2313.29,2725.06,2280.5,2723.62Z"/><path class="cls-14" d="M2321.55,2574.32l-3.28,65.06a14.86,14.86,0,0,1-12.69,14,57.83,57.83,0,0,1-26.39-2.19,17.57,17.57,0,0,1-11.82-13.51L2256,2574.32Z"/><path class="cls-9" d="M2729.34,2768.1c17.29-2.8,25.11-13.26,28.39-24.44l.06.31c2.54,11.79-3.35,24-15.14,29.82-14.25,7-29.82,8.22-41.92,7.64-13-.62-24.88-6.88-31.43-16.88l-.1-.15C2682.23,2771.9,2700.51,2772.79,2729.34,2768.1Z"/><path class="cls-9" d="M2647.83,2594.37h29c44.13-1,71.85,107.32,80.92,149.29-3.28,11.18-11.1,21.64-28.39,24.44-28.83,4.69-47.11,3.8-60.14-3.7-23.84-36.53-35.66-90-41.35-121.26C2621.39,2607.63,2647.83,2594.37,2647.83,2594.37Z"/><path class="cls-15" d="M2673.08,2534l16.09,64a17.36,17.36,0,0,1-9,19.68c-9,4.62-21.67,9.48-33.32,8.07a14.52,14.52,0,0,1-11.83-9.67l-23.62-67.33Z"/><path class="cls-16" d="M2107.09,1691.16s143.79,898.76,141.42,903.7c0,0,39.71,18,83,2.3,0,0-13-480.45-43.47-664.67,0,0,245.39,429.43,323.32,643.41,0,0,40.64-4.85,74.28-27,0,0-264.21-773-334.7-875.91Z"/><path class="cls-17" d="M2282.3,1930.51a6.94,6.94,0,0,0,5.89-10.63l-53.73-85.83a7,7,0,0,0-4.52-3.12l-39.55-8a6.95,6.95,0,1,0-2.74,13.62l36.62,7.37,52.14,83.29A6.93,6.93,0,0,0,2282.3,1930.51Z"/><path class="cls-16" d="M2092.4,1110.38c24.18-50.72,233-56.07,385.94-5.54a118.88,118.88,0,0,1,71.7,65.27c41.38,95,108.37,311.21-77.6,420.39a461.56,461.56,0,0,0-44.88-84.94c30-50.51,38.82-119.51-14.33-209.36-38.75,104.64-56.93,257.33-60.73,324.9a145.23,145.23,0,0,0,11.38,65l.95,2.24a7.69,7.69,0,0,1-5.4,10.5c-104.7,23.52-213.59,17.13-246.12,14.44a13.42,13.42,0,0,1-12-10.25C2050.43,1488.51,2056,1186.75,2092.4,1110.38Z"/><path class="cls-18" d="M2321,938.63s10.59,112,19.91,145.12a11.32,11.32,0,0,1-5.33,12.93c-15.83,9-53.79,23.79-105.71-1.65a23.57,23.57,0,0,1-13.08-22.18l4.57-108.21Z"/><path class="cls-19" d="M2219,795.37s-33.88,77.82-36.15,118.66S2171.8,981.38,2219,989.6s87-15.3,108.57-56c0,0,33.77-62.7,26.19-88.37S2219,795.37,2219,795.37Z"/><path class="cls-20" d="M2311.46,904.36l-2.69-1.18a6.49,6.49,0,0,1-3.17-8.91c6.66-12.86,19.64-42.35,2.87-49.23-21.61-8.86-107.23-26.32-125.7-56.7-17.76-29.2-2-66.89,21.61-77.61a3.25,3.25,0,0,1,4.26,1.38l2,3.73a3.21,3.21,0,0,0,5.92-.6h0a3.19,3.19,0,0,1,5.78-.83c5.68,9.09,21,23.82,62,31.39,58.26,10.75,96.78,34.33,97.74,74.59a3.21,3.21,0,0,0,5,2.65c4.31-2.62,11.19-3.85,20.39,3.88,16,13.46,9.45,48.36-25.62,77.07a3.18,3.18,0,0,0,.15,5.14c6.36,4.14,15.84,14-8.72,27.12-25.41,13.58-44.38,12.46-51.69,11.26a3.19,3.19,0,0,1-2.59-3.86l7.8-35.39a3.22,3.22,0,0,0-3.14-3.9Z"/><path class="cls-21" d="M2310,911.83s12.92-49.71,35.21-35.77-11.56,55.7-29.48,57.56Z"/><path class="cls-22" d="M2374.35,1584s-12.74-21.23-42.47-21.23-63.7,55.2-63.7,55.2,46.72,21.24,63.7,38.22S2374.35,1618,2374.35,1584Z"/><path class="cls-11" d="M1730.53,371.28c-130,46.56-256.11,163.12-238.55,311.91,14.93,126.53,160.12,163.89,248.2,177.22A101.78,101.78,0,0,1,1803,895.78c38.14,45.61,119.87,121.62,209.55,71,6.53-3.68,3.61-13.72-3.89-13.42-23.84.94-57.67-2.49-80.7-24.89-31.37-30.51-20-83.45,20.52-99.94,76.71-31.21,221.46-116.18,202.72-308.73C2125.86,259.41,1730.53,371.28,1730.53,371.28Z"/><path class="cls-4" d="M1541.76,575.52a8.35,8.35,0,0,1-7.67-11.61c48.3-113.66,163.76-164.24,252.12-186.66a8.34,8.34,0,1,1,4.1,16.17c-84.7,21.49-195.25,69.64-240.87,177A8.35,8.35,0,0,1,1541.76,575.52Z"/><path class="cls-4" d="M1522.69,691.53a8.34,8.34,0,0,1-8.24-7.14c-.1-.68-2.4-16.94-.11-42.07a8.34,8.34,0,0,1,16.61,1.51c-2.11,23.19,0,38,0,38.16a8.36,8.36,0,0,1-8.26,9.54Z"/><path class="cls-3" d="M1811,768.49V747c-22.45-.9-44.66-6.2-60.43-13.11a12.44,12.44,0,0,1-6.89-14.71l5.47-20.07a12.57,12.57,0,0,1,17-8.22c15.65,6.56,35,11.75,55.8,11.75,21.63,0,37.76-7.33,37.76-22.36,0-13.56-12.47-21.62-42.53-29.69-42.88-11.73-73.68-30.42-73.68-68.18,0-34.09,24.93-60.11,68.19-67.08V493.74a12.55,12.55,0,0,1,12.55-12.55h12.65a12.55,12.55,0,0,1,12.55,12.55v19.34c20.78.83,35.9,4.38,47.91,8.6a12.49,12.49,0,0,1,7.8,15.08l-5,18.55a12.52,12.52,0,0,1-16.52,8.46,130.68,130.68,0,0,0-47-8.53c-25.66,0-33,10.63-33,20.16,0,11.73,15.4,19.79,48.75,30.06,47.66,14.29,67.45,34.08,67.45,69.64,0,32.62-24.19,61.95-71.11,69.28v24.11A12.55,12.55,0,0,1,1836.2,781h-12.66A12.55,12.55,0,0,1,1811,768.49Z"/><circle class="cls-9" cx="835.69" cy="1839.72" r="261.82" transform="translate(-1056.11 1129.76) rotate(-45)"/><circle class="cls-9" cx="835.69" cy="1839.72" r="253.11" transform="translate(-1056.11 1129.76) rotate(-45)"/><path class="cls-23" d="M627,1740.38a5.8,5.8,0,0,1-5.17-8.42,238.43,238.43,0,0,1,213.89-131.7,241.59,241.59,0,0,1,43.2,3.88,5.81,5.81,0,0,1-2.09,11.43,230.16,230.16,0,0,0-41.11-3.7,226.91,226.91,0,0,0-203.53,125.32A5.8,5.8,0,0,1,627,1740.38Z"/><circle class="cls-3" cx="841.21" cy="1845.23" r="214.23" transform="translate(-1058.39 1135.28) rotate(-45)"/><path class="cls-9" d="M820.19,2004.49v-23.3c-24.3-1-48.33-6.71-65.4-14.18a13.48,13.48,0,0,1-7.45-15.93l5.92-21.71a13.59,13.59,0,0,1,18.44-8.89c16.94,7.09,37.84,12.71,60.39,12.71,23.4,0,40.85-7.93,40.85-24.2,0-14.67-13.49-23.4-46-32.12-46.41-12.7-79.73-32.93-79.73-73.78,0-36.89,27-65,73.78-72.59v-23.31a13.58,13.58,0,0,1,13.58-13.58h13.69a13.58,13.58,0,0,1,13.58,13.58v20.93c22.49.9,38.85,4.75,51.84,9.31a13.51,13.51,0,0,1,8.44,16.31l-5.44,20.08a13.55,13.55,0,0,1-17.88,9.15,141.43,141.43,0,0,0-50.84-9.23c-27.76,0-35.7,11.5-35.7,21.81,0,12.7,16.66,21.42,52.76,32.53,51.56,15.47,73,36.89,73,75.36,0,35.3-26.18,67-77,75v26.08a13.58,13.58,0,0,1-13.58,13.58H833.77A13.58,13.58,0,0,1,820.19,2004.49Z"/><rect class="cls-9" x="579.18" y="2169.42" width="513.02" height="97.72" rx="3.63"/><rect class="cls-9" x="579.59" y="2285.46" width="513.02" height="97.72" rx="3.63"/><rect class="cls-9" x="579.99" y="2401.5" width="513.02" height="97.72" rx="3.63"/><rect class="cls-9" x="580.39" y="2517.54" width="513.02" height="97.72" rx="3.63"/><rect class="cls-9" x="580.79" y="2633.58" width="513.02" height="97.72" rx="3.63"/><circle class="cls-9" cx="279.92" cy="1955.76" r="261.82" transform="translate(-1300.94 770.76) rotate(-45)"/><circle class="cls-9" cx="279.92" cy="1955.76" r="253.11" transform="translate(-1300.94 770.76) rotate(-45)"/><path class="cls-23" d="M71.2,1856.42a5.7,5.7,0,0,1-2.61-.63A5.8,5.8,0,0,1,66,1848,238.44,238.44,0,0,1,279.92,1716.3a242.15,242.15,0,0,1,43.19,3.88,5.81,5.81,0,1,1-2.08,11.43,230.08,230.08,0,0,0-41.11-3.7A226.91,226.91,0,0,0,76.39,1853.23,5.8,5.8,0,0,1,71.2,1856.42Z"/><circle class="cls-3" cx="285.44" cy="1961.27" r="214.23" transform="translate(-1303.23 776.28) rotate(-45)"/><path class="cls-9" d="M264.41,2120.53v-23.3c-24.29-1-48.32-6.71-65.39-14.18a13.47,13.47,0,0,1-7.45-15.93l5.92-21.71a13.59,13.59,0,0,1,18.44-8.89c16.94,7.09,37.84,12.71,60.38,12.71,23.41,0,40.86-7.93,40.86-24.2,0-14.67-13.49-23.4-46-32.12-46.41-12.7-79.73-32.93-79.73-73.78,0-36.89,27-65.05,73.78-72.59v-23.31a13.58,13.58,0,0,1,13.58-13.58h13.69a13.58,13.58,0,0,1,13.58,13.58v20.93c22.49.9,38.85,4.75,51.84,9.31a13.51,13.51,0,0,1,8.44,16.31l-5.44,20.08A13.55,13.55,0,0,1,343,1899a141.43,141.43,0,0,0-50.84-9.23c-27.77,0-35.7,11.5-35.7,21.81,0,12.7,16.66,21.42,52.76,32.53,51.56,15.47,73,36.89,73,75.36,0,35.3-26.18,67-77,75v26.08a13.58,13.58,0,0,1-13.58,13.58H278A13.58,13.58,0,0,1,264.41,2120.53Z"/><rect class="cls-9" x="23.41" y="2285.46" width="513.02" height="97.72" rx="3.63"/><rect class="cls-9" x="23.82" y="2401.5" width="513.02" height="97.72" rx="3.63"/><rect class="cls-9" x="24.22" y="2517.54" width="513.02" height="97.72" rx="3.63"/><rect class="cls-9" x="24.62" y="2633.58" width="513.02" height="97.72" rx="3.63"/></g></g></g></svg>