<svg xmlns="http://www.w3.org/2000/svg" viewBox="0 0 1411.05 1102.55"><defs><style>.cls-1{isolation:isolate;}.cls-2{fill:#41949b;}.cls-3{fill:#f7f7f7;}.cls-4{fill:#b3d4d7;}.cls-5{fill:#eed5d5;}.cls-6{fill:#5d66d3;}.cls-7{fill:#dddae8;}.cls-8{fill:#8cabef;}.cls-9{fill:#3b3387;}.cls-10{fill:#d9eaeb;}.cls-11,.cls-19{fill:#fff;}.cls-12{fill:#2e4661;opacity:0.07;}.cls-13{fill:#8dbfc3;}.cls-14{fill:#272525;opacity:0.03;}.cls-15{fill:#292949;}.cls-16{fill:#bbbcbf;mix-blend-mode:multiply;opacity:0.2;}.cls-17{fill:#d1e7f5;opacity:0.5;}.cls-18{opacity:0.22;}.cls-19{opacity:0.31;}.cls-20{fill:#353a85;}.cls-21{fill:#eac5b0;}</style></defs><g class="cls-1"><g id="Layer_2" data-name="Layer 2"><g id="background"><circle class="cls-2" cx="674.43" cy="532.55" r="532.55"/></g><g id="object"><path class="cls-3" d="M910.32,995.6H411.05V277.22H965.17V948.81C965.17,974.65,940.61,995.6,910.32,995.6Z"/><rect class="cls-4" x="410.92" y="277.22" width="553.2" height="33.35"/><path class="cls-3" d="M825.44,672.3c7.46,0,7.46-8.43,0-8.43H547.77c-7.46,0-7.46,8.43,0,8.43H825.44Z"/><path class="cls-5" d="M675.46,333.71a146.88,146.88,0,0,0-111.31,50.84L675.46,481l111.31-96.45A146.86,146.86,0,0,0,675.46,333.71Z"/><path class="cls-6" d="M831.85,459.41l-145.78,21V627.66A147.22,147.22,0,0,0,831.85,459.41Z"/><path class="cls-7" d="M564.31,385A147.23,147.23,0,0,0,599,604.93l77.94-125Z"/><path class="cls-8" d="M676.72,627.45a146.66,146.66,0,0,1-79.62-23.39l79.64-123.89Z"/><path class="cls-9" d="M839.34,451.3a146.56,146.56,0,0,0-34.47-75.49L693.56,472.26Z"/><rect class="cls-4" x="476.2" y="833" width="54.11" height="130.33"/><rect class="cls-10" x="476.2" y="782.54" width="54.11" height="61.24"/><rect class="cls-4" x="832.4" y="838.88" width="54.11" height="130.33"/><rect class="cls-10" x="832.4" y="728.89" width="54.46" height="120.77"/><rect class="cls-4" x="713.67" y="828.59" width="54.11" height="137.68"/><rect class="cls-10" x="713.67" y="816.34" width="54.11" height="91.38"/><rect class="cls-4" x="594.93" y="780.64" width="54.11" height="184.89"/><rect class="cls-10" x="594.93" y="709.04" width="54.11" height="147.89"/><path class="cls-11" d="M432.06,303.33a7.12,7.12,0,1,1,7.11-7.11A7.12,7.12,0,0,1,432.06,303.33Zm0-13a5.93,5.93,0,1,0,5.93,5.93A5.94,5.94,0,0,0,432.06,290.29Z"/><path class="cls-11" d="M454,303.33a7.12,7.12,0,1,1,7.11-7.11A7.12,7.12,0,0,1,454,303.33Zm0-13a5.93,5.93,0,1,0,5.92,5.93A5.94,5.94,0,0,0,454,290.29Z"/><path class="cls-11" d="M475.93,303.33a7.12,7.12,0,1,1,7.12-7.11A7.12,7.12,0,0,1,475.93,303.33Zm0-13a5.93,5.93,0,1,0,5.93,5.93A5.93,5.93,0,0,0,475.93,290.29Z"/><path class="cls-12" d="M426,1016.52H72.76V471h386v512.7A32.8,32.8,0,0,1,426,1016.52Z"/><path class="cls-4" d="M397,1001.26H28.9V429.75H444.83V953.47A47.79,47.79,0,0,1,397,1001.26Z"/><rect class="cls-11" x="73.05" y="475.39" width="336.7" height="212.92"/><path class="cls-3" d="M286.34,549.23c1.4,2.81,3.81,5.22,8.39,6.93,8.53,3.18,20,.89,24.9-6.25,8.22-11.94,5.91-29,14.75-41.41a29,29,0,0,1,15.51-11,26.53,26.53,0,0,1,19.59,1.87c9.35,5.15,12.58,15.79,12.67,25.44.18,18.55-2.42,37.72-5.76,56-1.61,8.85-4.1,18-10.52,25-8.71,9.49-23,13.44-36.75,15.56-34.69,5.34-70.26,2.07-105.28-1.21l-84.51-7.92c-7.94-.74-31.32.46-36.07-5s-1-23.58,1.72-29.2c6-12.52,22.58-19.58,38.1-18.79,35,1.8,21.17-34.76,32.37-52.12,6-9.23,19.07-15.85,30.36-12,10.77,3.67,15.26,14.47,20.57,23.44,2.75,4.66,6.67,9.49,12.56,10.5,10,1.71,18.36-8.47,28.56-8.08,6,.23,11.17,4.31,13.77,9.07C284.82,536.51,283.58,543.66,286.34,549.23Z"/><path class="cls-5" d="M387.74,676.75s.06-15.33.06-16.17q.12-34.3.11-68.61c0-21.85,1.83-43.69,1.47-65.49-.15-10.08-4.51-15.35-15.13-12.64a49.08,49.08,0,0,0-26.6,17.42c-4.45,5.8-8.16,13.07-15.09,15.4-12.39,4.18-22.52-9.78-33.65-16.64-12-7.39-28.65-6.15-39.4,2.94-13,11-16,30-27,42.95-12.1,14.29-34.07,19.13-51.05,11.24-7-3.24-13-8.29-19.85-11.73-27.27-13.67-65.18,6-69.7,36.16V674S388.29,677.3,387.74,676.75Z"/><rect class="cls-10" x="78.55" y="720.76" width="25.31" height="25.31"/><rect class="cls-10" x="78.55" y="758.17" width="25.31" height="25.31"/><rect class="cls-3" x="124.76" y="728.46" width="73.72" height="7.7"/><rect class="cls-3" x="123.66" y="769.18" width="73.72" height="7.7"/><rect class="cls-3" x="81.85" y="826.63" width="321.3" height="8.32"/><rect class="cls-3" x="81.85" y="850.81" width="143.04" height="114.02"/><rect class="cls-3" x="246.9" y="851.91" width="156.25" height="49.65"/><rect class="cls-3" x="245.25" y="914.63" width="156.25" height="49.65"/><path class="cls-13" d="M264.71,193.57H1.83a1.92,1.92,0,0,0-1.83,2V334.83C0,369.16,25.54,397,57.05,397h109l44.57,62.53a2.12,2.12,0,0,0,3.85-1.21l.92-61.32h49.32a1.92,1.92,0,0,0,1.83-2V195.57A1.92,1.92,0,0,0,264.71,193.57Z"/><rect class="cls-10" x="34.42" y="226.85" width="163.75" height="6.82"/><rect class="cls-10" x="34.42" y="278.87" width="195.3" height="6.82"/><rect class="cls-10" x="34.42" y="330.89" width="195.3" height="6.82"/><path class="cls-4" d="M435.74,258.86h-195V120.65H423.34l39.1,41.3v68.37C462.44,246.08,450.49,258.86,435.74,258.86Z"/><polygon class="cls-13" points="462.59 162.28 423.33 163.26 423.33 120.65 462.59 162.28"/><rect class="cls-10" x="294.23" y="156.52" width="124.39" height="5.92"/><rect class="cls-10" x="274.53" y="185.15" width="144.09" height="5.92"/><rect class="cls-10" x="274.53" y="213.78" width="144.09" height="5.92"/><path class="cls-3" d="M828.47,535.5a1.49,1.49,0,0,1-1.48-1.29c-.28-2-.46-4.09-.55-6.12a1.5,1.5,0,0,1,3-.12c.08,1.94.25,3.9.52,5.83a1.5,1.5,0,0,1-1.28,1.69Z"/><path class="cls-3" d="M828.62,517.6h-.23a1.51,1.51,0,0,1-1.26-1.71A70.54,70.54,0,0,1,830,504a1.5,1.5,0,0,1,2.85,1,66.79,66.79,0,0,0-2.77,11.35A1.49,1.49,0,0,1,828.62,517.6Zm7.5-22.58a1.56,1.56,0,0,1-.69-.17,1.5,1.5,0,0,1-.64-2,92.62,92.62,0,0,1,6.27-10.4,1.5,1.5,0,1,1,2.46,1.71,93,93,0,0,0-6.07,10.06A1.49,1.49,0,0,1,836.12,495Zm13.52-19.66a1.46,1.46,0,0,1-1-.37,1.49,1.49,0,0,1-.15-2.11c2.6-3,5.42-5.91,8.4-8.72a1.5,1.5,0,0,1,2.06,2.19c-2.91,2.74-5.67,5.6-8.2,8.5A1.48,1.48,0,0,1,849.64,475.36ZM867,459a1.5,1.5,0,0,1-.93-2.68c3.14-2.47,6.45-4.84,9.82-7a1.5,1.5,0,1,1,1.64,2.51c-3.3,2.16-6.53,4.49-9.61,6.9A1.45,1.45,0,0,1,867,459Zm20-13.11a1.5,1.5,0,0,1-.72-2.82c3.48-1.91,7.09-3.76,10.72-5.48a1.51,1.51,0,0,1,2,.71,1.49,1.49,0,0,1-.71,2c-3.58,1.7-7.14,3.52-10.57,5.4A1.46,1.46,0,0,1,887,445.85Zm21.59-10.25a1.51,1.51,0,0,1-1.39-.94,1.5,1.5,0,0,1,.83-2c3.66-1.49,7.46-2.91,11.27-4.22a1.5,1.5,0,1,1,1,2.83c-3.77,1.3-7.51,2.7-11.12,4.17A1.65,1.65,0,0,1,908.58,435.6Zm22.6-7.79a1.5,1.5,0,0,1-.41-2.94c3.79-1.09,7.7-2.11,11.63-3a1.5,1.5,0,1,1,.69,2.92c-3.88.92-7.75,1.93-11.5,3A1.4,1.4,0,0,1,931.18,427.81Zm191.25-4.25h-1.21a1.5,1.5,0,0,1-1.49-1.51,1.47,1.47,0,0,1,1.51-1.49h1.19c3.71,0,7.29-.13,10.63-.39a1.51,1.51,0,0,1,1.61,1.38,1.49,1.49,0,0,1-1.38,1.61C1129.87,423.43,1126.22,423.56,1122.43,423.56Zm-13.15-.46h-.1c-3.57-.23-7.48-.56-12-1a1.5,1.5,0,1,1,.29-3c4.45.44,8.33.76,11.87,1a1.5,1.5,0,0,1-.1,3Zm-154.84-.79a1.5,1.5,0,0,1-.28-3c3.86-.73,7.85-1.4,11.85-2a1.5,1.5,0,0,1,.44,3c-4,.58-7.91,1.25-11.73,2ZM1145,421.6a1.5,1.5,0,0,1-.28-3,83.64,83.64,0,0,0,11.34-3,1.5,1.5,0,1,1,1,2.84,86.35,86.35,0,0,1-11.75,3.12A1.43,1.43,0,0,1,1145,421.6Zm-59.55-.76h-.16l-3.56-.39q-4.15-.45-8.32-.85a1.5,1.5,0,0,1,.29-3c2.79.27,5.58.56,8.35.86l3.56.39a1.5,1.5,0,0,1-.16,3Zm-107.38-2a1.5,1.5,0,0,1-.16-3c3.9-.42,7.92-.79,12-1.08a1.5,1.5,0,1,1,.21,3c-4,.29-8,.65-11.85,1.07Zm83.58-.28h-.12c-4-.32-8-.6-11.9-.83a1.5,1.5,0,0,1,.18-3c3.9.24,7.92.52,12,.84a1.5,1.5,0,0,1-.12,3Zm-23.87-1.44h-.06c-4-.15-8-.26-11.92-.32a1.5,1.5,0,0,1-1.48-1.52,1.48,1.48,0,0,1,1.52-1.48c3.91.06,8,.17,12,.32a1.5,1.5,0,0,1,0,3Zm-35.87,0a1.5,1.5,0,0,1-.06-3c3.92-.16,8-.26,12-.31a1.52,1.52,0,0,1,1.51,1.48,1.5,1.5,0,0,1-1.48,1.52c-4,.05-8,.15-11.91.31Zm165.58-3.33a1.5,1.5,0,0,1-.71-2.82,77.24,77.24,0,0,0,9.85-6.34,1.5,1.5,0,0,1,1.81,2.39,79.76,79.76,0,0,1-10.24,6.59A1.5,1.5,0,0,1,1167.51,413.74Zm19-14.33a1.47,1.47,0,0,1-1.06-.44,1.49,1.49,0,0,1,0-2.12,103.28,103.28,0,0,0,7.82-8.8,1.5,1.5,0,0,1,2.35,1.86,103.15,103.15,0,0,1-8.05,9.06A1.47,1.47,0,0,1,1186.55,399.41Zm14.88-18.66a1.5,1.5,0,0,1-1.26-2.31c2.06-3.22,4.07-6.65,6-10.22a1.5,1.5,0,1,1,2.65,1.41c-1.93,3.64-4,7.15-6.09,10.43A1.49,1.49,0,0,1,1201.43,380.75Z"/><path class="cls-3" d="M1212.7,359.6a1.57,1.57,0,0,1-.6-.12,1.5,1.5,0,0,1-.77-2c.79-1.78,1.56-3.63,2.31-5.49a1.5,1.5,0,1,1,2.78,1.13c-.76,1.88-1.55,3.76-2.35,5.57A1.48,1.48,0,0,1,1212.7,359.6Z"/><path class="cls-3" d="M1286.83,240l-6.27,142.27-47-49.32S1287,236,1287.4,237.65l-2.05-1.72c1.58-.45-57.16,93.38-57.16,93.38l-65.93-17.09,121.28-74.63Z"/><rect class="cls-12" x="926.52" y="700.75" width="277.22" height="200.41"/><rect class="cls-4" x="936" y="689.12" width="279.11" height="201.01"/><rect class="cls-10" x="936" y="689.12" width="278.73" height="16"/><path class="cls-14" d="M1214.52,739.67v-.62h-34.26V705.43h-.62v33.62h-41.08V705.43h-.62v33.62h-41.07V705.43h-.62v33.62h-41.07V705.43h-.62v33.62h-41.07V705.43h-.62v33.62H971.8V705.43h-.62v33.62H937v.62h34.21v38H937v.62h34.21v38H937v.62h34.21v38H937v.62h34.21v35.34h.62V855.49h41.07v35.34h.62V855.49h41.07v35.34h.62V855.49h41.07v35.34h.62V855.49h41.07v35.34h.62V855.49h41.08v35.34h.62V855.49h34.26v-.62h-34.26v-38h34.26v-.62h-34.26v-38h34.26v-.62h-34.26v-38Zm-76.58,0v38h-41.07v-38Zm-82.76,38.6h41.07v38h-41.07Zm-.62,38h-41.07v-38h41.07Zm42.31-38h41.07v38h-41.07Zm-.62-38.6v38h-41.07v-38Zm-41.69,0v38h-41.07v-38Zm-82.76,0h41.07v38H971.8Zm0,38.6h41.07v38H971.8Zm0,76.6v-38h41.07v38Zm41.69,0v-38h41.07v38Zm41.69,0v-38h41.07v38Zm41.69,0v-38h41.07v38Zm82.77,0h-41.08v-38h41.08Zm0-38.61h-41.08v-38h41.08Zm0-38.61h-41.08v-38h41.08Z"/><path class="cls-5" d="M1185.07,730.89a8.51,8.51,0,0,0-6,14.58L1149.47,771l-2.26,1.94a8.51,8.51,0,1,0-10,13.77q-3.26,7.81-6.49,15.63L1128,809a8.7,8.7,0,0,0-1.92-.23,8.5,8.5,0,0,0-7.36,4.24l-28.62-18.09-21.21-13.4a8.52,8.52,0,1,0-16.42-3.16,9.17,9.17,0,0,0,.18,1.74l-40.13,16.38-3.94,1.6a8.51,8.51,0,1,0-13.65,9.58q-3,3.39-6,6.77l-28.45,32.3a8.5,8.5,0,1,0,2.21,2.17L987,821.31l10.54-12a8.51,8.51,0,0,0,11.72-7.89c0-.11,0-.22,0-.34l.58-.23,44-18a8.51,8.51,0,0,0,13.41,1.19l19.23,12.15,31.2,19.73a8.71,8.71,0,0,0-.1,1.27,8.52,8.52,0,1,0,13.27-7.07l9.27-22.32a8.84,8.84,0,0,0,1.79.19,8.52,8.52,0,0,0,8.52-8.52,8.42,8.42,0,0,0-1.17-4.28l5.24-4.52,22.45-19.32,4.84-4.17a8.52,8.52,0,1,0,3.31-16.37Z"/><polygon class="cls-3" points="1238.69 600.46 1205.29 653.95 1015.77 534.56 1049.17 481.06 1238.69 600.46"/><path class="cls-15" d="M1304,678l-.39.62c-10.53,16.87-29.34,24.15-42,16.24l-145.48-89.29,38.23-64.29,145.79,91.86C1312.79,641,1314.51,661.08,1304,678Z"/><polygon class="cls-16" points="1029.03 542.54 1038.21 549.22 1121.25 527.66 1052.06 483.51 1029.03 542.54"/><path class="cls-4" d="M990.45,254.8c-88.94-55.53-206-28.44-261.56,60.5s-28.44,206,60.49,261.56,206,28.43,261.57-60.5S1079.38,310.32,990.45,254.8Zm38,247.51a163.31,163.31,0,1,1-52.05-225A163.32,163.32,0,0,1,1028.45,502.31Z"/><circle class="cls-17" cx="889.92" cy="415.83" r="163.31" transform="translate(-33.38 751.06) rotate(-45)"/><g class="cls-18"><path class="cls-11" d="M772.23,409.25c-.8-52.07,33-99.19,83.27-113.64s104.72,7.69,131.08,52.67c7.44,12.67,27.65,2.08,20.2-10.62A139.53,139.53,0,0,0,857.6,271.57c-57.82,12.3-100.48,62-107.43,120.08a125.93,125.93,0,0,0-.75,16.93c.23,14.66,23,15.43,22.81.67Z"/></g><circle class="cls-19" cx="1012.72" cy="383.33" r="15.03" transform="matrix(0.99, -0.13, 0.13, 0.99, -41.49, 135.99)"/><path class="cls-20" d="M1118.05,603.4l36.38-61.17a4.77,4.77,0,0,0-1.26-6.26l-.64-.47a4.76,4.76,0,0,0-7,1.43l-35.82,61.6a4.77,4.77,0,0,0,1.8,6.56l.09,0A4.75,4.75,0,0,0,1118.05,603.4Z"/><path class="cls-7" d="M1049.22,417A161.68,161.68,0,0,1,909.38,577.18c-39.18,5.56-79.62-4.38-112.35-26.33-31.88-21.38-55.14-54.36-65.34-91.27a161.71,161.71,0,0,1,93.56-191.75c36.76-15.4,78.5-16.32,116.09-3.31,36.2,12.54,66.94,38.6,86.2,71.57A161.71,161.71,0,0,1,1049.22,417c0,5.6,8.71,5.6,8.69,0a172.21,172.21,0,0,0-38.44-107.75c-24.12-29.84-58.67-50.7-96.09-58.78A170.36,170.36,0,0,0,723.94,464.14c10.49,36.92,33.93,69.22,65,91.61,31.9,23,71.75,33.79,110.89,31.1a171.16,171.16,0,0,0,104.15-45.49c34.38-31.89,53.8-77.61,54-124.36C1057.93,411.39,1049.24,411.39,1049.22,417Z"/><path class="cls-21" d="M1281.48,713.78c6.14-16.11,15-47.95,20.14-63.41-11.2-37.67-34.25-100.58-36.64-101.27-14-4-26.41-7.74-40.34-11.76-.64-.19-4.72,20.64-5.37,20.45s-.73-4.31-.89-9.07h0l-2.69-27.08a5.1,5.1,0,0,0-3.82-4.77c-8.16-2.12-25.78-6.26-26.54-5-.29.47-1.81,24-3.07,30.69l-2.94-1.54-3.84-43.85s-30.47-7.68-31.07-6.27c-.7,1.66-7.48,38.87-7.48,38.87s-11.79,88.8-13.13,95.11c-2,9.24-8.13,17.53-7.24,26.75,1,10.29,5.5,19.84,10,29.22l32.25,67.88c2.35,15.36,4.81,50.54,8.34,65.65,39.76-8,79.7-14.09,124-28.18C1292.3,785.83,1278.83,720.73,1281.48,713.78Z"/><polygon class="cls-3" points="1156.17 872.21 1146.99 791.5 1305.96 732.64 1333.59 831.04 1156.72 883.85 1156.17 872.21"/><path class="cls-2" d="M1339.7,780.29s-163.5,93.44-197.31,102.29l-9.34,220h278Z"/><path class="cls-15" d="M1180.78,824.35a9.06,9.06,0,1,1-6.44-11.08A9.07,9.07,0,0,1,1180.78,824.35Z"/><path class="cls-21" d="M1107.43,654.59l-21.2-33.44-30.7-28.58s-6-17.24,13.27-17.71,32.18,15.6,40.7,28.37c3.74,5.61,21.84,21.95,35.88,31.94,18.38,13.07-.82,70.64-.82,70.64S1109.56,657.78,1107.43,654.59Z"/></g></g></g></svg>