<svg xmlns="http://www.w3.org/2000/svg" viewBox="0 0 16.96 17"><defs><style>.cls-1{fill-rule:evenodd;}</style></defs><g id="Layer_2" data-name="Layer 2"><g id="ELEMENTS"><path d="M0,17l1.22-4.54a8.42,8.42,0,1,1,3.35,3.32Zm4.8-2.93.29.18a6.85,6.85,0,1,0-2.34-2.32l.18.29-.68,2.54Z"/><path class="cls-1" d="M11.69,9.57a1.39,1.39,0,0,0-1.2-.27c-.32.12-.52.61-.72.86a.31.31,0,0,1-.39.09A5.42,5.42,0,0,1,6.67,7.92a.34.34,0,0,1,0-.46,1.85,1.85,0,0,0,.49-.8,1.77,1.77,0,0,0-.22-1c-.16-.35-.35-.86-.7-1a.93.93,0,0,0-1,.15A2.14,2.14,0,0,0,4.5,6.49,3.07,3.07,0,0,0,4.57,7,4.26,4.26,0,0,0,5.08,8.2c.16.27.34.55.53.81a8.27,8.27,0,0,0,2.31,2.14,7.14,7.14,0,0,0,1.45.69A3.19,3.19,0,0,0,11,12.1,2,2,0,0,0,12.56,11a1,1,0,0,0,.08-.58C12.55,10,12,9.76,11.69,9.57Z"/></g></g></svg>