<svg xmlns="http://www.w3.org/2000/svg" viewBox="0 0 17.14 17.14"><g id="Layer_2" data-name="Layer 2"><g id="ELEMENTS"><path d="M13.11,3.06a1,1,0,1,0,1,1A1,1,0,0,0,13.11,3.06Z"/><path d="M8.64,4.35a4.22,4.22,0,1,0,4.22,4.22A4.22,4.22,0,0,0,8.64,4.35Zm0,6.93a2.71,2.71,0,1,1,2.71-2.71A2.71,2.71,0,0,1,8.64,11.28Z"/><path d="M12,17.14H5.15A5.16,5.16,0,0,1,0,12V5.15A5.16,5.16,0,0,1,5.15,0H12a5.16,5.16,0,0,1,5.15,5.15V12A5.16,5.16,0,0,1,12,17.14ZM5.15,1.61A3.55,3.55,0,0,0,1.61,5.15V12a3.55,3.55,0,0,0,3.54,3.54H12A3.55,3.55,0,0,0,15.53,12V5.15A3.55,3.55,0,0,0,12,1.61Z"/></g></g></svg>