<svg xmlns="http://www.w3.org/2000/svg" xmlns:xlink="http://www.w3.org/1999/xlink" viewBox="0 0 429.7 341.3"><defs><style>.cls-1{fill:none;}.cls-2{fill:#006c77;}.cls-3{clip-path:url(#clip-path);}.cls-4{fill:#0098a7;}.cls-10,.cls-12,.cls-14,.cls-18,.cls-20,.cls-21,.cls-23,.cls-24,.cls-31,.cls-4,.cls-7{fill-rule:evenodd;}.cls-21,.cls-5{fill:#0099a7;}.cls-6{clip-path:url(#clip-path-2);}.cls-7{fill:#00b4c5;}.cls-8{fill:#003c3c;}.cls-9{clip-path:url(#clip-path-3);}.cls-10{fill:#207375;}.cls-11{clip-path:url(#clip-path-4);}.cls-12{fill:#1c6566;}.cls-13{clip-path:url(#clip-path-5);}.cls-14{fill:#5aa89e;}.cls-15{fill:#1e6566;}.cls-16{fill:#008a77;}.cls-17{clip-path:url(#clip-path-6);}.cls-18{fill:#00ae87;}.cls-19{clip-path:url(#clip-path-7);}.cls-20{fill:#005e5e;}.cls-22{clip-path:url(#clip-path-8);}.cls-23,.cls-32{fill:#00c29b;}.cls-24{fill:#00b3c5;}.cls-25{fill:#2e2e2e;}.cls-26,.cls-31{fill:#fff;}.cls-27{fill:#f0ece5;}.cls-28{fill:#347a91;}.cls-29{fill:#f0ebe5;}.cls-30{fill:#f4de9f;}</style><clipPath id="clip-path"><path class="cls-1" d="M153,190.56c-15.93-29.21-24.05-43.92-40-73.16C79,116.47,62.1,116,29,115.69c10.47,6.33,15.71,9.47,26.19,15.79-2.6,4.46-3.86,6.66-6.41,11.17C25.35,182.89,45,214,88.91,214.67c11.26.14,23.76.58,38.34,1.06-12.83-1.62-20-8.67-13.77-18.95,5.32-8.86,8-13.28,13.35-22,10.47,6.32,15.7,9.47,26.17,15.82"/></clipPath><clipPath id="clip-path-2"><path class="cls-1" d="M45.09,204.88c9.77,11.77,30.05,15,50.91,15.88,37.48,1.53,56.28,1.88,94,1.9-.11,32.81-.19,49.21-.33,82-27.56-.06-41.31-.48-68.66-2.16a49.76,49.76,0,0,1-41.12-26.86C66,246.82,59,232.58,45.09,204.88"/></clipPath><clipPath id="clip-path-3"><path class="cls-1" d="M211.14,106.9c34.27-1,51.57-1.63,85.89-2.71,15.69-29,23.48-43.42,38.28-71.95C324.82,38.53,319.6,41.7,309.12,48c-3.05-4.19-4.55-6.25-7.65-10.43C274.06-.24,236.42,3.18,216.59,40.9c-5.05,9.69-10.92,20.31-17.74,32.73C206,63.23,215.71,60.07,222.59,70c5.95,8.47,8.93,12.7,14.77,21.17-10.48,6.31-15.71,9.46-26.22,15.74"/></clipPath><clipPath id="clip-path-4"><path class="cls-1" d="M190,86.11s54.31-.19,72.15-41.38l19,12.42,2.56-18.66s28,2.51,53.57,39.65l-2.52,31.53H191Z"/></clipPath><clipPath id="clip-path-5"><path class="cls-1" d="M195.74,103.33c.89,0,2.61,1.1,3.92,1.19,5.84.42,11.73-.7,17.55-1.09,9.82-.66,19.55-1,29.2-3.38,10.4-2.52,21.54-5.84,30.07-13.51,5.65-5.07,10.26-11.32,15.21-17,.12-.14,1.23.4,1.4.49a24,24,0,0,0,4,2c7.48,2.44,13.67,7.7,20.25,12.22,5.18,3.55,11,5.72,14.87,11.22,1.38,2,3.31,3.5,3.65,6.16,1.37,11-12.66,10.94-18.69,11.23-1.82.08-3.65.19-5.48.19h-6.34c-12.79,0-25.54-.58-38.33-.1-9.74.38-19.32,1.93-29,2.79-7,.61-13.95.79-20.94,1.09-1.62.07-3.26.11-4.87.3s-3.06.34-4.61.49c-4.31.43-10.56,1.86-13.47-2.58-1.07-1.64-2-3.47-1.13-5.46"/></clipPath><clipPath id="clip-path-6"><path class="cls-1" d="M245.93,5.4c-15.22,2.07-27.31,18.67-37.86,36.84-19,32.71-28.52,49.31-47.48,82-28.26-16.16-42.39-24.2-70.65-39.07,13.83-23.64,20.75-35.7,34.59-60C133.35,9.87,148.84-.11,166.41,0c31.83,1.2,47.76,2.32,79.52,5.4"/></clipPath><clipPath id="clip-path-7"><path class="cls-1" d="M262.49,190.83c-17.37,28.44-26.05,42.85-43.4,71.37,17.12,28.22,25.67,42.26,42.86,69.52.06-11.9.06-17.83.1-29.73,5.31-.25,7.91-.37,13.24-.67,47.87-2.15,64.93-34.62,42.33-70.87-5.83-9.28-12-19.72-19.32-31.89,5.34,11.35,2.93,21-9.45,21.27-10.62.33-15.94.5-26.5.74,0-11.9.06-17.84.14-29.74"/></clipPath><clipPath id="clip-path-8"><path class="cls-1" d="M332.51,269.64c5.48-14.42-3-31.8-13.52-49-18.88-31-28.35-47-47.12-79.44,28.49-16.29,42.77-24.35,71.22-39.25,13.8,23.27,20.72,34.71,34.58,56.86,8.84,14,9.05,30.44-.36,44.9-17.91,25.64-26.88,39-44.8,66"/></clipPath></defs><g id="Layer_2" data-name="Layer 2"><g id="OBJECTS"><g id="OBJECTS-2" data-name="OBJECTS"><path class="cls-2" d="M153,190.56c-15.93-29.21-24.05-43.92-40-73.16C79,116.47,62.1,116,29,115.69c10.47,6.33,15.71,9.47,26.19,15.79-2.6,4.46-3.86,6.66-6.41,11.17C25.35,182.89,45,214,88.91,214.67c11.26.14,23.76.58,38.34,1.06-12.83-1.62-20-8.67-13.77-18.95,5.32-8.86,8-13.28,13.35-22,10.47,6.32,15.7,9.47,26.17,15.82"/><g class="cls-3"><path class="cls-4" d="M138.55,152.73c.1.19.19-.7,0-.66-2.29.42-4.41,1.59-6.72,1.9a120.9,120.9,0,0,1-13.72.87c-15.45.35-31.06-1.23-46.3,2.17a19.46,19.46,0,0,0-4.64,1.76,18,18,0,0,0-4.24,2.8c-2.88,2.71.68,4.87,3.07,5.52,4.79,1.3,9.74,2,14.52,3.31,2.62.73,8.38,4.39,5.94,5.58-5.82,2.82-9.45,2.09-15.67,1.87-13.35-.48-28.5-2.71-41.65,1.63-4.9,1.62-18.46,6-16.52,14.62,2.68,12,20,23.3,31,26.29,35.05,9.5,67.17,4.49,102.19-1.24,11.12-1.82,24.55-1.28,34.61-7.57,13.13-8.19,32.12-26.41,17.53-42.64a53.56,53.56,0,0,0-9.4-8.66,44.58,44.58,0,0,0-11.38-5.53l-38.6-2"/></g><path class="cls-5" d="M45.09,204.88c9.77,11.77,30.05,15,50.91,15.88,37.48,1.53,56.28,1.88,94,1.9-.11,32.81-.19,49.21-.33,82-27.56-.06-41.31-.48-68.66-2.16a49.76,49.76,0,0,1-41.12-26.86C66,246.82,59,232.58,45.09,204.88"/><g class="cls-6"><path class="cls-7" d="M21.07,202.76c1-.6,1-2.67,2.07-3.21,3.64-1.87,11.33,8,13.44,9.36a152.5,152.5,0,0,0,34.76,15.21c13.69,4,24.24,5.24,38,6.33,12.76,1,17-.47,29.86,3.3,19.19,5.63,35.63,21.83,54.75,27.64,6.07,1.85,23.44,4,31.53,8.05,3.74,1.86,9.34,5,11.56,10,4.14,9.48-3.43,22.95-10,26.28-20.25,10.26-43.78,7.27-66.27,5.16-20.85-2-36.91-4.69-57.63-10.87-27.93-8.34-52.95-25.37-77.44-44.75l-4.59-52.54"/></g><path class="cls-8" d="M211.14,106.9c34.27-1,51.57-1.63,85.89-2.71,15.69-29,23.48-43.42,38.28-71.95C324.82,38.53,319.6,41.7,309.12,48c-3.05-4.19-4.55-6.25-7.65-10.43C274.06-.24,236.42,3.18,216.59,40.9c-5.05,9.69-10.92,20.31-17.74,32.73C206,63.23,215.71,60.07,222.59,70c5.95,8.47,8.93,12.7,14.77,21.17-10.48,6.31-15.71,9.46-26.22,15.74"/><g class="cls-9"><path class="cls-10" d="M190,86.11s54.31-.19,72.15-41.38l19,12.42,2.56-18.66s28,2.51,53.57,39.65l-2.52,31.53H191Z"/><g class="cls-11"><path class="cls-12" d="M261.27,41.81v1c0,.85.12,1.64.12,2.48a61.47,61.47,0,0,1-.69,8.24c-1.14,7.81-3.7,15.64-8.46,21.57-10.92,13.61-28,22.7-43.81,25.88-6.32,1.28-15.78,1.39-19.79-5.49C184.42,88.3,191.88,81,196.76,78c4.49-2.72,9.71-4.28,14.53-6,9-3.24,18-6.41,26.42-11.24a73,73,0,0,0,15-11.63c2.77-2.77,6-6.61,9.27-7.85"/><path class="cls-12" d="M278.66,54.59c.19.08-.21,1.76-.22,2.09a27.73,27.73,0,0,0,.37,4.93c.06.41.13,1.41.64,1.3,1.35-.28,2.9-3.9,3.59-5.22,2.44-4.67,4.79-10.15,4.6-15.58-.07-1.9.65-4-.36-5.45-.4-.55-4.87-4-5-3.68-1.81,3.59-.3,13.78-1.58,17.7a19,19,0,0,1-1.5,3.71,10.14,10.14,0,0,0-.77,1.65"/><path class="cls-12" d="M195.74,103.33c.89,0,2.61,1.1,3.92,1.19,5.84.42,11.73-.7,17.55-1.09,9.82-.66,19.55-1,29.2-3.38,10.4-2.52,21.54-5.84,30.07-13.51,5.65-5.07,10.26-11.32,15.21-17,.12-.14,1.23.4,1.4.49a24,24,0,0,0,4,2c7.48,2.44,13.67,7.7,20.25,12.22,5.18,3.55,11,5.72,14.87,11.22,1.38,2,3.31,3.5,3.65,6.16,1.37,11-12.66,10.94-18.69,11.23-1.82.08-3.65.19-5.48.19h-6.34c-12.79,0-25.54-.58-38.33-.1-9.74.38-19.32,1.93-29,2.79-7,.61-13.95.79-20.94,1.09-1.62.07-3.26.11-4.87.3s-3.06.34-4.61.49c-4.31.43-10.56,1.86-13.47-2.58-1.07-1.64-2-3.47-1.13-5.46"/><g class="cls-13"><path class="cls-14" d="M290.39,67.32c-.35-.24.64,1.33.78,1.52.68.86,1.27,1.8,1.93,2.69A28.31,28.31,0,0,1,296,75.76c.81,1.62,1.32,3.46,2.48,4.81,2.06,2.39,4.41,5.11,7.12,6.52,2.31,1.19,4.75,1.81,7.06,3,3.39,1.75,5.74,5.46,8.87,7.65,2.91,2,6.44,1.94,9.68,2,.59,0,3.48,0,3.56-1.16s-1.36-2.9-1.78-3.75c-1.84-3.72-3.49-7-6.53-9.67-8.16-7.14-16.72-13.32-26.87-16A32.11,32.11,0,0,0,296,68.1a26.76,26.76,0,0,1-2.85-.17c-1.35-.36-2.26-.93-3.67-.54"/></g><path class="cls-14" d="M262.19,44c-.06-.07.6,1.89.77,2.28a21.31,21.31,0,0,0,2.37,4.33,71.12,71.12,0,0,0,7.08,8.31,11.89,11.89,0,0,0,3.51,2.69c1.26.48,3.66,2.45,4.68.43,1.67-3.31,0-14-2.2-16.54-1.24-1.39-3.35,3.52-4.76,2.37-1-.79-2-1.47-3.05-2.16-1.46-1-3.31-2.54-5-2.94-1.4-.33-2.86,1.22-4.08.66"/><path class="cls-14" d="M283.28,36.85c-.55.76,1.68,2.58,2.31,3.07,3.17,2.46,6.85,3.76,10,6.33,1.87,1.54,3.58,3.33,5.45,4.89,2.09,1.75,4.31,3.22,6.49,4.82a32.88,32.88,0,0,0,7.4,4.54c.37.14.71.4,1.09.54,1.57.6,5.66,1.42,6.58-1,.26-.69-.36-1.9-.64-2.46-1-2-2.85-4-4.24-5.68a62.22,62.22,0,0,0-14.12-12.57c-2.46-1.65-5-3.26-7.8-3.87s-6.6-2.1-9.57-1.34c-1.16.3-2.11.3-2.9,1.39a1.88,1.88,0,0,0-.27,1.36c0,.09.16.66.27.5"/><path class="cls-15" d="M290.56,49.48c1.16,0,2.19,1.43,3.23,2.32,2.75,2.42,5.13,5.31,7.81,7.92,7.44,7.23,13.69,16,19.46,25l.12.18c1.34,2.16,2.67,4.35,4,6.55l.08.41s-.18.34-.2.35l-.35.09-.31-.23c-7.15-11.35-14.6-22.78-24.22-32-2.43-2.33-4.58-5-7-7.31a11.32,11.32,0,0,0-2.46-2.17c-.4-.19-.17-.05-.17-.05l-.34-.11-.18-.35.1-.39A.93.93,0,0,1,290.56,49.48ZM315.83,70a1.63,1.63,0,0,1,.91.6.63.63,0,0,1,.38.42c1.18,2.25,2.66,3.84,4,5.91.89,1.39,1.72,2.82,2.51,4.29,0,0,1,1.69,1.77,3.07s1.48,2.76,2.29,4.14l.07.42s-.17.33-.19.35-.38,0-.35.13.06.53-.29.72c-.54.3-1.16-.66-1.58-1.39l-.38-.7-.12-.24-.15,0a1.35,1.35,0,0,1-.23-.65c-2.07-3.83-4.05-7.68-6.19-11.48a7.75,7.75,0,0,0-.43-.66,10.85,10.85,0,0,1-1.69-3l-.33-.35c-.31-.32-.6-.65-.5-1.11l.42-.39ZM320,67.63c.87.06,1.53,1.15,2,2.22.55.82,1.21,2.25.1,2.61s-2.5-1.9-2.78-3.52C319.15,68.4,319.25,67.61,320,67.63Z"/><path class="cls-15" d="M266.78,64.6l.31.15.13.36c0,7.19-.84,14.33-3.43,21a31.93,31.93,0,0,1-12.87,15.71,45.7,45.7,0,0,1-11.79,5.06,15.11,15.11,0,0,1-5,.5l-.77-.16c-.61-.3-.54-.37-.54-.37l.08-.62c.26-.26.13-.17.43-.15l.29-.09h.28a6.31,6.31,0,0,1,.69,0,16.4,16.4,0,0,0,5.81-1.09c5.54-1.86,11.09-4.29,15.63-8.78,5.65-5.6,8.78-14.15,9.81-22.49a70.77,70.77,0,0,0,.49-8.5l.14-.36A2.44,2.44,0,0,1,266.78,64.6Zm24.56,9.33.16.36c.09,1.36-1.06,2.36-1.73,3.58a46.27,46.27,0,0,1-12.72,14.61,68.69,68.69,0,0,1-9.69,6.06l-.21.11c-2.3,1.25-4.5,2.81-6.9,3.83a15,15,0,0,1-1.86.62L258,103a3.54,3.54,0,0,1-.23-.35l.05-.43.31-.27c3.49-1.13,6.59-3.54,9.84-5.29,7.51-4.08,14.77-9.53,19.21-16.56.88-1.39,1.66-2.87,2.57-4.2a5,5,0,0,0,.81-1.48c.05-.16,0-.09,0-.09l.11-.37.31-.18ZM283.24,95h0l.09.39-.16.36c-2.46,2.37-4.58,5.41-7.73,6.7a5.62,5.62,0,0,1-1.82.42l-.33-.13-.16-.35.1-.37a1.62,1.62,0,0,1,.54-.23c2.28-.44,4.17-2.32,5.88-4l1.49-1.5s.7-.7,1.44-1.33l.35-.11Zm4.47,2.51.17.34-.1.37s-.44.27-.26.2c0,0-.94,1.19-1.67,2.21l-.34.21-.37-.13-.18-.39.11-.42a8.44,8.44,0,0,1,2-2.38A.67.67,0,0,1,287.71,97.54ZM274.25,77.33l.35.18.17.42c0,.49,0,1.21,0,1.21A26,26,0,0,1,271,90.25a23.33,23.33,0,0,1-5.48,6.9,2.61,2.61,0,0,1-1.59.65l-.32-.16-.14-.36.13-.36a6.15,6.15,0,0,0,1.44-.87,27.69,27.69,0,0,0,8.39-15.63c.1-.57.19-1.4.19-1.4l0-.22c.05-.35.09-.88.09-.88l.16-.42S274.22,77.33,274.25,77.33Zm3.58,1.14c.86.1.8,1.85-.21,2.59-.59.43-1.42-.4-.82-1.7C277.05,78.82,277.39,78.45,277.83,78.47Z"/></g></g><path class="cls-16" d="M245.93,5.4c-15.22,2.07-27.31,18.67-37.86,36.84-19,32.71-28.52,49.31-47.48,82-28.26-16.16-42.39-24.2-70.65-39.07,13.83-23.64,20.75-35.7,34.59-60C133.35,9.87,148.84-.11,166.41,0c31.83,1.2,47.76,2.32,79.52,5.4"/><g class="cls-17"><path class="cls-18" d="M55.13,71.09C72.5,55.19,104,48.37,127.05,52.19c13.71,2.28,26.63,8.85,40.81,8,21.87-1.35,37.88-18,57.46-25.61,12.69-4.95,33-9.44,40.87,5.76,13,25.16-16.48,55.64-32.26,71.28-17.87,17.72-38.61,33.77-63.72,39.7-38.21,9-95.43-1.4-128.42-20.62Z"/></g><path class="cls-8" d="M262.49,190.83c-17.37,28.44-26.05,42.85-43.4,71.37,17.12,28.22,25.67,42.26,42.86,69.52.06-11.9.06-17.83.1-29.73,5.31-.25,7.91-.37,13.24-.67,47.87-2.15,64.93-34.62,42.33-70.87-5.83-9.28-12-19.72-19.32-31.89,5.34,11.35,2.93,21-9.45,21.27-10.62.33-15.94.5-26.5.74,0-11.9.06-17.84.14-29.74"/><g class="cls-19"><path class="cls-20" d="M328.33,220.54c.39.1-.75.35-1.05.63-1,.89-1.76,2-2.8,2.86a103.72,103.72,0,0,1-8.39,6.2c-8.32,5.48-16.11,10-25.62,13.19-7.55,2.52-15.3,4.45-23,6.41-5.63,1.43-11.37,2.4-17,3.76-17.69,4.28-35.59,7.24-51.09,17.39-7.74,5.06-12.31,14.67-8.25,23.56,6.67,14.61,21.44,25,36.07,30.64,28.86,11.19,57.18,14.48,85.12-.11,10.64-5.56,22.15-11.17,28.41-22,5.55-9.6,11.41-21.07,10.27-32.72-.77-7.9-3.75-6.83-5.61-14.45-1-4.21.62-8.4,1.6-12.35l-18.63-23"/><path class="cls-21" d="M180,254.62c1.22-.29,2.1-1.63,3.35-1.72,10.3-.74,23.72-.33,33.77,2.31,9.48,2.48,16.9,9,26.85,10.46,6.81,1,19.94-1.91,26.6,2.64,7,4.77-8.26,7.61-8.71,7.86-1.39.75-3,3.88-.81,5.17,2.92,1.72,8.19,1,11.25,1.36,7.87.89,36.52,1.08,39.53,15.11.29,1.36-.63,2.72-.75,4.11-.19,2.06.39,7.24-1,9.2-3.34,4.73-11.44,10.72-16.06,14-10.25,7.21-14.22,10.48-26.55,13.66-5.61,1.45-16.51,1.14-22.19,1.47-17.68,1-29,3.1-45.14-4.12L180,254.62"/></g><path class="cls-16" d="M332.51,269.64c5.48-14.42-3-31.8-13.52-49-18.88-31-28.35-47-47.12-79.44,28.49-16.29,42.77-24.35,71.22-39.25,13.8,23.27,20.72,34.71,34.58,56.86,8.84,14,9.05,30.44-.36,44.9-17.91,25.64-26.88,39-44.8,66"/><g class="cls-22"><path class="cls-23" d="M262.24,138.46c-.32-1.47,4.45,1.67,4.78,1.89,3,2,6.41,3.28,9.75,4.75,9.52,4.21,19.22,6.21,29.51,8,24.72,4.22,49.52,8.5,72.05,19.5,6.15,3,18.37,13.3,20.7,19.59,1.05,2.85.26,5.79,0,8.66-1.65,18.56-20.63,24.89-37.34,23.18-13.22-1.35-26.43-1.45-39.33-5.34-11.22-3.39-21.42-8.85-32.45-12.74-15.14-5.33-34.83-12.77-44-26.73Z"/><path class="cls-18" d="M273.28,182.5c.49,3.13,5.54.4,8.32.56,9.57.53,19.06,1.44,28.74,1.53,29,.25,60.64-5.34,87.13,3.76,6.64,2.29,12.55,6.1,18.72,9.33,11.62,6.08,18.22,13.62,9.52,32.19a69.34,69.34,0,0,1-46.38,38.53c-37.16,9.58-77.57,12.84-103.17-11.93C260.37,241.2,251,208.91,273,181.17"/></g><path class="cls-16" d="M346.57,123.79c-.19,0-.32-.19-.57-.31l0,0a32.65,32.65,0,0,1-7.08-10.75l-.13-.15-.13-.22a.53.53,0,0,1,0-.22l-.18-.46-.09-.22c-1.85-.27-3.84.34-5.72.75l-1.32.29a30.51,30.51,0,0,1-9.83.88c-.5-.06-1-.14-1.49-.23,0,0-1.5-.47-1-1,.3-.36.49-.17,1-.25,2.85-.45,5.61-1.38,8.46-1.85a18.62,18.62,0,0,1,9.61.57c0-.09-.07-.18-.1-.27-.64-1.82-1.18-3.67-1.64-5.54a8.74,8.74,0,0,0-1.27-.93c-2.94-1.65-6.52-1.95-9.73-3.13-2.49-.92-5.06-1.85-7-3.68l-.12-.16a.43.43,0,0,1,0-.07.61.61,0,0,1-.05-.12l-.05-.12c-.05-.2-.06-.47.18-.58s.46,0,.67.09c4.38,1.24,9.05,1.77,13.27,3.77a11.09,11.09,0,0,1,3.58,2.57s-.1-.52-.21-1.06c-.37-1.94-.66-3.9-.92-5.86-2.92-2.46-6.59-3.86-9.92-5.74-1.74-1-3.48-2-5.14-3a9,9,0,0,1-3.06-2.86.7.7,0,0,1-.08-.4c.05-.26.24-.42.7-.28a14.56,14.56,0,0,1,1.44.69c4.46,1.78,9.12,3.38,12.87,6.31a10.88,10.88,0,0,1,2.91,3.18h0c-.27-2.19-.51-4.4-.76-6.6l-.11-1c-.17-.2,0-.2-.55-.54l-.24-.16-.3-.2c-2.06-1.37-4.43-2.29-6.49-3.68a36.22,36.22,0,0,1-5.42-4.68l-.08-.08c-.3-.34-.7-.81-.39-1.12s.68,0,1,.25l1.36.71c4,2.09,8.41,3.94,10.93,7.81l0,.06c-.3-2.64-.62-5.29-1-7.93l0-.12c-.6-1.6-1.39-3.12-2.11-4.67a55,55,0,0,1-3.8-9.78,10.36,10.36,0,0,1-.31-1.93l.14-.43c.07-.07,0-.22.26-.25s.49.35.73.64a29.83,29.83,0,0,1,6.63,15.55,18.08,18.08,0,0,1,0,5.09c0,.27.06.53.09.8s.06.62.06.62l.06-.16c1.28-3.84,4.09-7.09,6.92-10.19a11.92,11.92,0,0,1,2-1.87.42.42,0,0,1,.4-.07c.36.18.28.65.25,1a2.7,2.7,0,0,1,0,.28c-.53,3.49-3.37,6.36-5.87,9.23a16.54,16.54,0,0,0-3.32,5.1l.07.73c.06.09.17.12.06.31l0,0c.15,1.53.3,3.06.46,4.6l0,.09a1.6,1.6,0,0,1,.05-.21,17.46,17.46,0,0,1,4.43-7.5c1.57-1.63,3.4-3,5.12-4.46a4.66,4.66,0,0,1,.38-.37.39.39,0,0,1,.67.2c.18.47.05.44,0,.73a8.17,8.17,0,0,1-.74,1.88,52.37,52.37,0,0,1-6.68,9.73,13.73,13.73,0,0,0-2.72,4.35v0c.19,1.48.4,3,.64,4.43l0,.17,0,.15c.92-3.43,3.84-6.17,6.6-8.85l1.77-1.69.91-.83c.33-.29.61-.61.93-.93a.5.5,0,0,1,.81.1l.1.25a.74.74,0,0,1,0,.25c-.06,2.14-1.71,4.09-3.05,5.77-1.89,2.35-4.06,4.48-5.8,6.93a8.89,8.89,0,0,0-1.51,2.93h0q.63,2.84,1.52,5.59a10.45,10.45,0,0,1,.22-1A17.12,17.12,0,0,1,342,102.5c1.76-2.22,3.69-4.32,5.48-6.5.19-.23.43-.55.43-.55s.41-.19.52,0,0,.57,0,.57a45.22,45.22,0,0,1-6.73,12.51,17.42,17.42,0,0,0-2.25,3.4l-.05.1a33.62,33.62,0,0,0,7,10.91l.12.19a1.1,1.1,0,0,1,.19.42C346.71,123.63,346.76,123.72,346.57,123.79Z"/><path class="cls-16" d="M366.19,104.06a.79.79,0,0,1-.12-.28c-.09-.41-.16-.81-.22-1.22v0a10.27,10.27,0,0,1,1-6,25.2,25.2,0,0,1,3.52-4.87c.18-.2.37-.44.71-.13a2.47,2.47,0,0,1,.55,1.24s.08.42.12.71a10.81,10.81,0,0,1-.82,6,22.9,22.9,0,0,1-4.34,5.6l-.14.12-.12.1c-.2.36-.4.72-.61,1.07a15,15,0,0,1,8.74-3.41,5.08,5.08,0,0,1,2.49.49l.07,0,.05,0a.32.32,0,0,1,.14.48,5.75,5.75,0,0,1-1.81,1.68l-.88.62a10.89,10.89,0,0,1-7.17,2.1,7.47,7.47,0,0,1-2.46-.7c-1.18,1.81-2.49,3.54-3.74,5.25a13.72,13.72,0,0,1,9.58-1.6,5.45,5.45,0,0,1,2.3,1l0,0,.1.1.06.07,0,0a.34.34,0,0,1,0,.52,10.1,10.1,0,0,1-2.37,1.61,11.17,11.17,0,0,1-6.1,1.69,7.42,7.42,0,0,1-4.43-1.72l-.29-.27-.3.43a46.26,46.26,0,0,0-4,6.78,5,5,0,0,1,.84-.44,14.1,14.1,0,0,1,8.42-1.24,6.55,6.55,0,0,1,3.23,1.37v0a3.06,3.06,0,0,1,.42.61c.07.37.08.16-.25.38a14.87,14.87,0,0,1-9,2.35,6,6,0,0,1-3.89-1.71,3.58,3.58,0,0,1-.26-.29,29.48,29.48,0,0,0-1.9,6.07,23.76,23.76,0,0,0-.3,7.42c.05.54.12,1.08.21,1.61l-.14.36c-.06,0-.05-.05-.1-.1l-.16-.11c-.13-.55-.25-1.09-.34-1.64v0a24.76,24.76,0,0,1,.92-10.68c0-.08.05-.15.07-.22a8.71,8.71,0,0,1-8.57-6.51,12.56,12.56,0,0,1-.44-2.42c0-.38.52-.53,1.12-.54a7.09,7.09,0,0,1,3.49,1.22,7.68,7.68,0,0,1,3.32,3.21c.62,1.29.82,2.74,1.42,4a37.5,37.5,0,0,1,3.37-6.81,5.42,5.42,0,0,1-2.93-.76c-3.12-1.84-4.32-6.16-4.12-9,0-.11,0-1.48.81-1.27a4.47,4.47,0,0,1,1.76,1.23c1.83,1.7,3.73,3.49,4.52,5.73a9.06,9.06,0,0,1,.43,3.33c1.58-2.51,3.35-4.93,5-7.34a2.78,2.78,0,0,1-.64-.12c-3.54-.83-5.54-5.23-4.49-8.78.22-.77.67-1.91,1.35-1.17a31.85,31.85,0,0,1,2.5,3.36,10.3,10.3,0,0,1,1.8,4,10.64,10.64,0,0,1,.17,1.79l.09-.14A39.16,39.16,0,0,0,366.19,104.06Z"/><path class="cls-2" d="M60.88,129.56c-.13,0-.17-.2-.31-.33l0,0a24.13,24.13,0,0,1-2.49-8.8l-.05-.12,0-.18A.41.41,0,0,1,58,120l0-.35s0-.11,0-.17a10.84,10.84,0,0,0-3.88-.67l-.92-.08a19.92,19.92,0,0,1-6.59-1.44c-.31-.14-.62-.3-.92-.46,0,0-.89-.64-.47-.92.26-.18.35,0,.7,0,2,.28,3.94.22,5.89.49A12.38,12.38,0,0,1,58,118.78a1.48,1.48,0,0,1,0-.21,40.44,40.44,0,0,1,0-4.12,6.37,6.37,0,0,0-.65-.89c-1.59-1.74-3.87-2.69-5.73-4.15a13.68,13.68,0,0,1-3.81-4l-.05-.13s0,0,0-.06a.31.31,0,0,1,0-.1.19.19,0,0,1,0-.08c0-.15,0-.34.23-.36s.3.11.43.2c2.6,1.75,5.55,3.08,7.9,5.32a7.66,7.66,0,0,1,1.83,2.5s0-.38.07-.77c.15-1.4.35-2.79.57-4.18-1.42-2.29-3.54-4-5.34-6-.94-1-1.88-2.06-2.75-3.14a6.58,6.58,0,0,1-1.43-2.58.53.53,0,0,1,0-.29c.09-.17.24-.24.51,0s.52.52.81.76c2.55,2.14,5.27,4.2,7.14,7A7.84,7.84,0,0,1,59,106.27v0c.26-1.56.54-3.11.82-4.66l.13-.73a1,1,0,0,0-.25-.48,1.83,1.83,0,0,0-.13-.16l-.16-.19c-1.06-1.37-2.43-2.48-3.5-3.86a26,26,0,0,1-2.61-4.32l0-.06c-.13-.3-.3-.71,0-.85s.45.14.58.37c0,0,.42.43.75.77,2.22,2.26,4.7,4.43,5.58,7.58v0c.33-1.86.65-3.73.91-5.61v-.09c-.08-1.22-.29-2.42-.45-3.62A40.43,40.43,0,0,1,60.05,83a7.9,7.9,0,0,1,.18-1.38l.18-.27c.06,0,.06-.14.22-.12s.25.34.35.6a22.24,22.24,0,0,1,1.24,12,13.14,13.14,0,0,1-1,3.47c0,.19-.06.38-.1.56s-.08.44-.08.44l.07-.09c1.6-2.36,4.08-4,6.54-5.52a7.86,7.86,0,0,1,1.65-.86.28.28,0,0,1,.28,0c.2.19,0,.5,0,.72a1.42,1.42,0,0,1-.08.18c-1,2.27-3.46,3.64-5.67,5.07a11.63,11.63,0,0,0-3.17,2.79l-.11.51c0,.07.1.12,0,.23h0c-.2,1.08-.41,2.15-.61,3.23v.07s0-.09.07-.14a12.16,12.16,0,0,1,4.39-4.19c1.34-.78,2.8-1.31,4.22-2,.1,0,.13-.08.32-.17a.27.27,0,0,1,.4.28c0,.35,0,.3-.15.49a5.92,5.92,0,0,1-.86,1.13A35.64,35.64,0,0,1,62,105.3a9.27,9.27,0,0,0-2.63,2.4h0c-.17,1.05-.33,2.1-.46,3.16l0,.12v.11c1.28-2.15,3.72-3.41,6.06-4.66.49-.27,1-.53,1.49-.79l.76-.38c.27-.13.52-.29.79-.44a.33.33,0,0,1,.51.24v.19a.85.85,0,0,1,0,.17c-.46,1.45-1.93,2.44-3.14,3.3-1.69,1.22-3.54,2.21-5.16,3.52a6.12,6.12,0,0,0-1.56,1.69h0c-.1,1.38-.15,2.75-.12,4.13a7.16,7.16,0,0,1,.34-.66,11.87,11.87,0,0,1,3.35-3.31c1.59-1.15,3.26-2.18,4.87-3.3.17-.11.39-.28.39-.28a.21.21,0,0,1,.33.11c0,.16-.11.38-.1.39a32.1,32.1,0,0,1-6.88,7.13A11.54,11.54,0,0,0,58.57,120l0,.06a25,25,0,0,0,2.4,8.88l0,.16a.93.93,0,0,1,0,.32C61,129.48,61,129.55,60.88,129.56Z"/><path class="cls-2" d="M86.42,103.28a.53.53,0,0,1,0-.22,8.46,8.46,0,0,1,.1-.88v0a7.4,7.4,0,0,1,1.84-3.86,17.17,17.17,0,0,1,3.27-2.59c.15-.1.33-.22.48.06a1.89,1.89,0,0,1,.12,1s0,.3-.07.5a7.67,7.67,0,0,1-1.73,3.92,15.47,15.47,0,0,1-3.93,2.92l-.12,0-.1,0-.61.61a9.84,9.84,0,0,1,6.38-.51,3.42,3.42,0,0,1,1.53.85l0,0,0,0a.24.24,0,0,1,0,.36,3.9,3.9,0,0,1-1.52.77l-.69.24a7.11,7.11,0,0,1-5.1-.06,5.4,5.4,0,0,1-1.47-1c-1.12,1-2.32,1.89-3.48,2.79a9.11,9.11,0,0,1,6.57.9,3.86,3.86,0,0,1,1.31,1.14s0,0,0,0l0,.09,0,.06,0,0c.05.11.1.24-.09.35a6.52,6.52,0,0,1-1.87.61,7.27,7.27,0,0,1-4.31-.11,5.1,5.1,0,0,1-2.55-2.1,1.83,1.83,0,0,1-.13-.24l-.28.23a32.28,32.28,0,0,0-4,3.8,3.53,3.53,0,0,1,.63-.13,9.3,9.3,0,0,1,5.75.91,4.44,4.44,0,0,1,1.83,1.6v0a2.12,2.12,0,0,1,.15.49c0,.28,0,.14-.24.22a9.73,9.73,0,0,1-6.33-.27,4.17,4.17,0,0,1-2.2-2,2.72,2.72,0,0,1-.11-.25,21.14,21.14,0,0,0-2.45,3.74,17.47,17.47,0,0,0-1.67,5c-.07.38-.13.77-.18,1.15l-.16.21a.26.26,0,0,1,0-.09l-.08-.11c0-.39.05-.79.1-1.18v0a18.15,18.15,0,0,1,2.72-7.09l.09-.13a6.19,6.19,0,0,1-4.3-6.22,9.18,9.18,0,0,1,.19-1.74c.06-.26.45-.25.84-.13a4.85,4.85,0,0,1,2,1.55,5.62,5.62,0,0,1,1.53,2.88c.15,1,0,2,.12,3A26.51,26.51,0,0,1,78,110.62a3.78,3.78,0,0,1-1.76-1.12c-1.67-1.91-1.6-5.1-.9-7,0-.07.31-1,.79-.69A3.3,3.3,0,0,1,77,103a11.33,11.33,0,0,1,1.81,4.84,6.64,6.64,0,0,1-.39,2.36c1.54-1.38,3.17-2.67,4.76-4a1.53,1.53,0,0,1-.4-.21c-2.14-1.3-2.58-4.72-1.19-6.92.3-.47.82-1.16,1.12-.51a22.49,22.49,0,0,1,1,2.8,7.76,7.76,0,0,1,.39,3.07,7.66,7.66,0,0,1-.24,1.25l.09-.07A27.06,27.06,0,0,0,86.42,103.28Z"/><path class="cls-4" d="M172.86,213.85s6.63-15.8,18.91-11.65c6.66,2.25,3.5,10.76-3.23,8.49C184.56,209.34,180.47,207.68,172.86,213.85Z"/><path class="cls-24" d="M168.8,210.76s-4.62-17.79,8.57-24c9.34-4.43,13.36,5.1,6.09,8.37C179.17,197,170.56,199.46,168.8,210.76Z"/><path class="cls-25" d="M114.75,183.1s2-6.24,6.9-6.89c1.81-.18-2.2,1.93,0,8.9Z"/><path class="cls-25" d="M99.31,190.08a16.92,16.92,0,0,0-2.42,6.28c0,1,1.41,5.27,2.62,5.49s4-2,4.63-2.8-3.12-7.77-2.9-8.31c0,0-1.69-1-1.93-.66"/><path class="cls-25" d="M88.28,189.82c-.38-1.49,2.83-12.37,28.05-7.65,14.14,3,21.76,19.26,23,28.17a14.07,14.07,0,0,1,10.4,5.07s-12.14-3.39-16.82,8.42c-.64-6.94,3.89-12.23,3.89-12.23s-.62-5.16-7.82-7.52c-4.68-1.94-22.17-5.46-25-7.48s-15-3.82-15.74-6.78"/><path class="cls-26" d="M128.54,202.22c-4.39-1.37-4.58-2.92-3.4-3.2,2.26-.48,7,3.32,6.94,1.37s-4.62-7.12-8-6.38-3,4.17-5.71,5.13c-6.73,2.36-14.82-10.16-19.58-11.55-3.82-1.12-8.58,1.54-10.32,2.64.09,2.47,11.39,7.16,14.44,8.17,4.11,1.36,21,2.6,29.44,7.29a5.6,5.6,0,0,0-3.8-3.47"/><path class="cls-26" d="M108,185a16.41,16.41,0,0,1-4.12-.37c-1.18-.44-4.55,0-4.71.64s0,1.33,2.4,2.08a13.4,13.4,0,0,0,5.24.32c1.87,0,4.51-3.09,1.19-2.67"/><path class="cls-25" d="M103.94,190c-1,1.39,0,6.81.47,7.63s3.67,3.63,4.82,3.13,2.58-3.95,2.73-5-6.32-4.77-6.38-5.35Z"/><path class="cls-25" d="M101.58,186.16a.75.75,0,0,1-1,.39.89.89,0,0,1-.33-1.15.75.75,0,0,1,1-.39.9.9,0,0,1,.33,1.15"/><path class="cls-27" d="M375.11,147.59,375,147a3.09,3.09,0,0,1-1.83,0L372,196.86h4.17Z"/><path class="cls-28" d="M372.32,142.84a1.65,1.65,0,0,1,1.16-1c0-.54,0-1.21,0-2a3.65,3.65,0,0,0-2.95,2.24,2.83,2.83,0,0,0-.14.41c.75.16,1.39.33,1.9.47,0,0,0-.1.05-.14"/><path class="cls-28" d="M374.91,142.17a1.67,1.67,0,0,1,.51,1.93.43.43,0,0,1,0,.07c.49.26,1.06.59,1.69,1a3.36,3.36,0,0,0,.16-.33,3.64,3.64,0,0,0-1-4.11c-.51.58-1,1.05-1.34,1.44"/><path class="cls-28" d="M374.64,147c-.24-.72-.43-1.36-.57-1.89a1.6,1.6,0,0,1-1.6-.74c-.46.29-1,.62-1.7,1a3.66,3.66,0,0,0,1.72,1.47,3.82,3.82,0,0,0,2.15.18"/><path class="cls-29" d="M373.48,141.85a1.63,1.63,0,0,1,1,.07,1.55,1.55,0,0,1,.41.25c.38-.39.83-.86,1.34-1.44a42.16,42.16,0,0,0,7.22-11.88c3-7.36,3.14-17.26,3.14-17.26a53.8,53.8,0,0,0-10.12,15.16,35,35,0,0,0-3,13.11c0,.78,0,1.45,0,2"/><path class="cls-29" d="M374.07,145.12c.14.53.33,1.17.57,1.89l.14.39a42.34,42.34,0,0,0,6.49,11.78c4.84,6.3,13.34,11.4,13.34,11.4a54,54,0,0,0-8-16.38,34.94,34.94,0,0,0-9.52-9c-.63-.41-1.2-.74-1.69-1a1.64,1.64,0,0,1-1.31,1"/><path class="cls-29" d="M372.27,143c-.51-.14-1.15-.31-1.9-.47a42.36,42.36,0,0,0-14.07-.44c-7.89,1-16.56,5.8-16.56,5.8a54,54,0,0,0,18.19,1.31,34.79,34.79,0,0,0,12.84-3.82c.68-.36,1.24-.69,1.7-1a1.64,1.64,0,0,1-.2-1.4"/><path class="cls-26" d="M375.38,144.17a.43.43,0,0,0,0-.07,1.67,1.67,0,0,0-.51-1.93,1.55,1.55,0,0,0-.41-.25,1.69,1.69,0,0,0-2.18.92s0,.09-.05.14a1.67,1.67,0,0,0,3.11,1.19"/><path class="cls-27" d="M330.39,160.22l-.15-.59a3.28,3.28,0,0,1-1.91,0l-1.15,51.94h4.35Z"/><path class="cls-28" d="M329.77,157.79a1.74,1.74,0,0,1,1.37.8q.78-.32,1.95-.69a3.78,3.78,0,0,0-3.21-2.14h-.45c.1.8.15,1.48.19,2a.38.38,0,0,1,.15,0"/><path class="cls-28" d="M331.31,160.11a1.74,1.74,0,0,1-1.73,1.16h-.08c-.09.56-.22,1.24-.4,2a2.21,2.21,0,0,0,.37,0,3.78,3.78,0,0,0,3.71-2.36c-.74-.3-1.36-.58-1.87-.83"/><path class="cls-28" d="M326.45,161.5c.63-.49,1.19-.89,1.67-1.21a1.67,1.67,0,0,1,.18-1.83c-.44-.35-.95-.79-1.54-1.33a3.83,3.83,0,0,0-.86,2.19,3.62,3.62,0,0,0,0,.57,3.74,3.74,0,0,0,.53,1.61"/><path class="cls-29" d="M331.14,158.59a1.74,1.74,0,0,1,.28,1,1.53,1.53,0,0,1-.11.49c.51.25,1.13.53,1.87.83A44,44,0,0,0,347.33,164c8.28.46,18.06-2.79,18.06-2.79a56.2,56.2,0,0,0-18.36-4.8,36.37,36.37,0,0,0-13.94,1.49c-.78.24-1.43.48-1.95.69"/><path class="cls-29" d="M328.12,160.29c-.48.32-1,.72-1.67,1.21l-.33.26a44.17,44.17,0,0,0-9.38,10.4c-4.56,6.92-6.68,17-6.68,17a56.22,56.22,0,0,0,13.39-13.46,36.46,36.46,0,0,0,5.65-12.45c.18-.76.31-1.44.4-2a1.71,1.71,0,0,1-1.38-1"/><path class="cls-29" d="M329.62,157.79c0-.55-.09-1.23-.19-2a44,44,0,0,0-4.36-14c-3.69-7.42-11.35-14.32-11.35-14.32a56.16,56.16,0,0,0,4.9,18.34,36.62,36.62,0,0,0,8.14,11.34c.59.54,1.1,1,1.54,1.33a1.73,1.73,0,0,1,1.32-.67"/><path class="cls-26" d="M329.5,161.26h.08a1.73,1.73,0,0,0,1.73-1.16,1.53,1.53,0,0,0,.11-.48,1.77,1.77,0,0,0-.28-1,1.74,1.74,0,0,0-1.37-.8h-.15a1.73,1.73,0,0,0-1.32.67,1.83,1.83,0,0,0-.37,1,1.75,1.75,0,0,0,.19.86,1.73,1.73,0,0,0,1.38,1"/><path class="cls-30" d="M213.79,187.78h10.53a3.49,3.49,0,0,1,2.53,1.1,14.58,14.58,0,0,0,.83-5.27c0-8.48,17.22-14.41,17.22-34.33a28.79,28.79,0,0,0-57.57,0c0,20.31,17.22,26.24,17.22,34.33a14.28,14.28,0,0,0,.72,4.8,3.51,3.51,0,0,1,2-.63Z"/><path class="cls-31" d="M214.65,123h.75l.18,0,.18,0,.18,0,.17,0,.17.06.17.07.16.08.16.09.15.1.14.1.14.12.13.13.12.13.11.14.11.15.09.16.09.16.07.16.07.17,0,.17,0,.18,0,.18,0,.18V126l0,.18,0,.18,0,.18-.05.17-.06.17-.07.17-.08.16-.09.16-.1.15-.11.14-.11.14-.13.13-.13.12-.15.12-.14.1-.16.09-.16.09-.16.07-.17.07-.18,0-.17,0-.18,0-.18,0H213l-.13,0h-.13l-.13,0-.12,0-.13,0-.13,0-.12,0-.13,0-.12,0-.13,0-.12,0-.13,0-.12,0-.13,0-.12,0-.12,0-.13,0-.12,0-.12,0-.12,0-.12,0-.13,0-.12,0-.12.05-.12,0-.12,0-.12.05-.12,0-.12.05-.12.05-.12,0-.12.05-.11,0-.12.05-.12.06-.12.06-.11,0-.12.06-.12.06-.11.06-.12.06-.11.07-.12.06-.11.06-.12.07-.11.07-.11.07-.12.07-.11.07L207,131l-.11.07-.12.07-.11.08-.11.07-.11.08-.11.08-.11.07-.11.08-.11.08-.1.09-.11.08-.11.08-.11.08-.1.09-.11.09-.1.08-.11.09-.1.09-.11.09-.1.09-.1.09-.11.09-.1.1-.1.09-.1.1-.1.09-.1.1-.1.1-.1.1-.1.1-.1.1-.09.1-.1.1-.1.1-.09.11-.1.1-.09.11-.1.1-.09.11-.09.11-.09.1-.1.11-.09.11-.09.11-.09.11-.09.12-.08.11-.09.11-.09.12-.09.11-.08.12-.09.11-.08.12-.08.11-.09.12-.08.12-.08.12-.08.12-.08.12-.08.12-.08.12-.08.12-.08.13-.07.12-.08.12-.07.13-.08.12-.07.13-.08.12-.07.13-.07.12-.07.13-.07.13-.07.13-.07.13-.07.12-.06.13-.07.13-.06.13-.07.13-.06.13-.06.14-.07.13-.06.13-.06.13-.06.13-.06.14,0,.13-.06.13-.06.14-.05.13-.06.14,0,.13-.05.14-.06.13,0,.14-.05.13-.05.14,0,.13,0,.14-.05.14-.05.13,0,.14,0,.14-.05.14,0,.13,0,.14,0,.14,0,.14,0,.13,0,.14,0,.14,0,.14,0,.14,0,.13,0,.14,0,.14,0,.14,0,.14,0,.13,0,.14,0,.14,0,.14,0,.14,0,.14,0,.13,0,.14,0,.14,0,.14,0,.13v.14l0,.14,0,.14v.13l0,.14v.14l0,.14v3.07l0,.13v.39l0,.13,0,.13v.12l0,.13,0,.13,0,.12,0,.13,0,.12,0,.13,0,.12,0,.13,0,.12,0,.12,0,.12,0,.13,0,.12,0,.12,0,.12,0,.12,0,.12,0,.12,0,.11,0,.12,0,.12,0,.11,0,.13.05.18.05.17,0,.18,0,.18v.54l0,.18,0,.18,0,.17-.05.17-.07.17-.08.17-.09.15-.09.16-.11.14-.12.14-.12.13-.14.12-.14.12-.14.1-.16.1-.15.09-.17.07-.17.07-.17.05-.18.05-.17,0-.18,0h-.54l-.18,0-.18,0-.18,0-.17-.05-.17-.07-.16-.08-.16-.09-.15-.1-.15-.1-.13-.12-.14-.12-.12-.14-.11-.14-.11-.14-.09-.16-.09-.16-.08-.16-.06-.17-.06-.15-.05-.17-.06-.17,0-.17-.06-.17-.05-.17-.05-.17,0-.17,0-.17-.05-.17,0-.17,0-.17,0-.17,0-.17,0-.18,0-.17,0-.17,0-.18,0-.17,0-.17,0-.18,0-.17,0-.18,0-.17,0-.18,0-.17,0-.18v-.17l0-.18,0-.17v-3.54l0-.18v-.18l0-.17v-.18l0-.18,0-.17,0-.18,0-.18,0-.17,0-.18,0-.18,0-.17,0-.18,0-.18,0-.17,0-.18,0-.17,0-.18,0-.18,0-.17,0-.18,0-.17,0-.18,0-.17,0-.17,0-.18,0-.17,0-.18.05-.17,0-.17.05-.18,0-.17.05-.17.05-.17,0-.18.06-.17.05-.17.06-.17,0-.17.06-.17.06-.17.06-.17.06-.17.07-.17.06-.17.07-.17.06-.16.07-.17.07-.17.06-.17.07-.16.08-.17.07-.16.07-.17.07-.16.08-.17.08-.16.07-.17.08-.16.08-.16.08-.16.08-.17.08-.16.09-.16.08-.16.09-.16.08-.16.09-.16.09-.15.09-.16.09-.16.09-.15.09-.16.09-.16.1-.15.09-.15.1-.16.09-.15.1-.15.1-.15.1-.16.1-.15.1-.15.1-.14.11-.15.1-.15.1-.15.11-.14.11-.15.11-.14.1-.15.11-.14.11-.14.12-.15.11-.14.11-.14.12-.14.11-.14.12-.14.11-.13.12-.14.12-.13.12-.14.12-.13.12-.14.12-.13.13-.13.12-.13.13-.13.12-.13.13-.13.13-.13.12-.12.13-.13.13-.12.14-.12.13-.13.13-.12.13-.12.14-.12.13-.12.14-.11.14-.12.13-.12.14-.11.14-.11.14-.12.14-.11.15-.11.14-.11.14-.1.15-.11.14-.11.15-.1.15-.11.14-.1.15-.1.15-.1.15-.1.15-.09.15-.1.16-.1.15-.09.16-.09.15-.09.16-.09.15-.09.16-.09.16-.09.16-.08.16-.09.16-.08.16-.08.16-.08.16-.08.17-.07.16-.08.17-.07.16-.07.17-.07.17-.07.16-.07.17-.07.17-.06.17-.07.17-.06.17-.06.18-.06.17-.06.17,0,.18-.06.17,0,.18,0,.17,0,.18-.05.18,0,.18,0,.18,0,.17,0,.18,0,.19,0,.18,0,.18,0,.18,0,.18,0,.19,0,.18,0,.19,0,.18,0,.19,0,.18,0,.19,0,.18,0h1.71Z"/><path class="cls-31" d="M199.63,161.51h.6l.07,0,.06,0,.07,0,.06,0,.07,0,.06,0,.06,0,.06,0,.07,0,.06,0,.06,0,.06,0,0,0,.06,0,.06,0,.06,0,.05,0,0,0,.06,0,.05,0,0,0,.05.05.05,0,0,.05.05,0,0,.05.05,0,0,.05,0,.05,0,.06,0,.05,0,.06,0,.05,0,.06,0,.06,0,.06,0,.06,0,.06,0,.06,0,.06,0,.06,0,.07.05.13,0,.12,0,.12.05.11.05.12,0,.11.05.11,0,.11,0,.11.05.11.05.11,0,.1.05.1,0,.1.05.1.05.1,0,.09.05.1,0,.09.06.09.05.1.06.09,0,.08.06.09.05.09.06.08.06.09.06.08.06.08.07.08.06.08.08.1,0,0,0,.06,0,.05,0,.06,0,0,0,.06,0,.06,0,.06,0,.06,0,.06,0,.06,0,.06,0,.06,0,.07,0,.06,0,.06,0,.07,0,.06,0,.07v.06l0,.07V169l0,.06,0,.07,0,.06,0,.07,0,.06,0,.06,0,.07,0,.06,0,.06,0,.06,0,.06,0,.06,0,.06,0,.06,0,0,0,.06,0,.05,0,.06,0,0,0,.05-.05.05,0,.06-.05,0,0,0,0,.05,0,0-.05.05-.06,0,0,0-.05.05-.06,0,0,0-.06,0-.06,0-.06,0-.05,0-.06,0-.06,0-.07,0-.06,0-.06,0-.06,0-.07,0-.06,0-.06,0h-.07l-.06,0-.07,0h-1.14l-.07,0h-.06l-.07,0-.06,0h-.07l-.06,0-.07,0-.06,0-.06,0-.06,0-.07,0-.06,0-.06,0-.06,0-.05,0-.06,0-.06,0-.06,0-.05,0-.05,0-.06,0,0,0-.05,0,0,0-.05-.05-.05,0,0-.05,0,0-.05-.05,0-.05-.1-.13-.12-.15-.11-.15-.11-.14-.11-.15-.11-.15-.1-.15-.1-.15-.1-.15-.09-.15-.09-.15-.09-.15-.09-.16-.09-.15L198,168l-.08-.15-.08-.15-.08-.16-.07-.15-.07-.15-.07-.15-.07-.15-.07-.15-.07-.16-.06-.15-.07-.15-.06-.15-.06-.15-.06-.15-.06-.15-.06-.15-.05-.14,0-.07,0-.06,0-.07,0-.06,0-.07V165l0-.07v-1.07l0-.07v-.06l0-.07v-.06l0-.07,0-.06,0-.07,0-.06,0-.06,0-.07,0-.06,0-.06,0-.06,0-.06,0-.06,0-.05,0-.06,0-.06,0,0,0-.06,0-.05,0,0,0-.05,0-.05,0,0,.05-.05,0,0,.05,0,.06,0,0,0,.05,0,.05,0,.06,0,.05,0,.06,0,.06,0,0,0,.06,0,.06,0,.06,0,.06,0,.07,0,.06,0,.06,0,.06,0,.07,0,.06,0,.07,0h.06l.07,0H199l.06,0h.54Z"/><path class="cls-26" d="M355.26,59.1c-.38,0-.76,0-1.14,0a15.23,15.23,0,0,0-5.6,1.06A7.82,7.82,0,0,1,339,56.8a19.17,19.17,0,0,0-33.13-.32,7.84,7.84,0,0,1-9.19,3.43,15.35,15.35,0,0,0-5-.85c-.38,0-.76,0-1.13,0-4.74.35-7.2,4.1-7.51,8.11h79.79c-.31-4-2.77-7.76-7.5-8.11"/><path class="cls-26" d="M72.29,176.15c-.38,0-.76,0-1.14,0a15.27,15.27,0,0,0-5.6,1.06A7.82,7.82,0,0,1,56,173.85a19.78,19.78,0,0,0-16.67-9.68,19.73,19.73,0,0,0-16.46,9.36A7.85,7.85,0,0,1,13.67,177a15.35,15.35,0,0,0-5-.85c-.38,0-.76,0-1.13,0-4.74.35-7.2,4.1-7.51,8.11H79.79c-.31-4-2.77-7.76-7.5-8.11"/><path class="cls-26" d="M312.63,24.21c-.35,0-.69,0-1,0a14.21,14.21,0,0,0-5.13,1,7.14,7.14,0,0,1-8.75-3,17.57,17.57,0,0,0-30.34-.3A7.18,7.18,0,0,1,259,24.94a14.05,14.05,0,0,0-4.6-.77c-.35,0-.69,0-1,0-4.33.32-6.59,3.75-6.87,7.42H319.5c-.28-3.67-2.54-7.1-6.87-7.42"/><path class="cls-26" d="M122.18,133.78c-.34,0-.69,0-1,0a14.16,14.16,0,0,0-5.12,1,7.16,7.16,0,0,1-8.76-3,17.57,17.57,0,0,0-30.34-.3,7.16,7.16,0,0,1-8.41,3.14,14.1,14.1,0,0,0-4.6-.77c-.35,0-.7,0-1,0-4.34.32-6.59,3.75-6.88,7.42h73.07c-.29-3.67-2.54-7.1-6.88-7.42"/><path class="cls-8" d="M216.12,211.22a8.47,8.47,0,0,0,8.22-6.44H207.89a8.48,8.48,0,0,0,8.23,6.44"/><path class="cls-32" d="M214.57,193.78H225a3.63,3.63,0,0,1,1.41.3,3.43,3.43,0,0,0,1.4-2.77v-.06a3.48,3.48,0,0,0-3.47-3.47h-6.53V164.19c2-6.61,9.19-4.63,11.5-23.13,0,0-11.21,6.55-12.75,18.5,0,0-.41-5.78-11.2-11.56,0,0,3.26,6.55,4,10.41a9.29,9.29,0,0,0,4.42,5.78v23.59h-6.53a3.48,3.48,0,0,0-3.47,3.47v.06a3.44,3.44,0,0,0,1.69,3,3.64,3.64,0,0,1,1.77-.49Z"/><path class="cls-8" d="M228.45,196.78a3.27,3.27,0,0,0-2.06-2.7,3.63,3.63,0,0,0-1.41-.3H207.25a3.64,3.64,0,0,0-1.77.49,3.18,3.18,0,0,0-1.7,2.51,3.46,3.46,0,0,0,3.47,3H225a3.46,3.46,0,0,0,3.47-3"/><path class="cls-32" d="M207.25,199.78c-1.92,0-3.47,1.12-3.47,2.5s1.55,2.5,3.47,2.5H225c1.92,0,3.47-1.12,3.47-2.5s-1.55-2.5-3.47-2.5Z"/></g></g></g></svg>