<svg xmlns="http://www.w3.org/2000/svg" xmlns:xlink="http://www.w3.org/1999/xlink" viewBox="0 0 2764.88 2800"><defs><style>.cls-1{fill:#d9eaeb;}.cls-2{fill:url(#linear-gradient);}.cls-3{opacity:0.3;}.cls-4{fill:#102527;}.cls-5{fill:#41949b;}.cls-6{fill:#fff;}.cls-7{fill:#fcfcfc;}.cls-8{fill:url(#linear-gradient-2);}.cls-9{fill:url(#linear-gradient-3);}.cls-10{fill:url(#linear-gradient-4);}.cls-11{fill:url(#linear-gradient-5);}.cls-12{fill:url(#linear-gradient-6);}.cls-13{fill:url(#linear-gradient-7);}.cls-14{fill:url(#linear-gradient-8);}.cls-15{fill:url(#linear-gradient-9);}.cls-16{fill:url(#linear-gradient-10);}.cls-17{fill:url(#linear-gradient-11);}.cls-18{fill:url(#linear-gradient-12);}.cls-19{fill:url(#linear-gradient-13);}.cls-20{fill:url(#linear-gradient-14);}.cls-21{fill:url(#linear-gradient-15);}.cls-22{fill:#b3d4d7;}.cls-23{fill:url(#linear-gradient-16);}.cls-24{fill:url(#linear-gradient-17);}.cls-25{fill:url(#linear-gradient-18);}.cls-26{fill:url(#linear-gradient-19);}.cls-27{fill:url(#linear-gradient-20);}.cls-28{fill:url(#linear-gradient-21);}.cls-29{fill:url(#linear-gradient-22);}.cls-30{fill:url(#linear-gradient-23);}.cls-31{fill:url(#linear-gradient-24);}.cls-32{fill:url(#linear-gradient-25);}.cls-33{fill:url(#linear-gradient-26);}</style><linearGradient id="linear-gradient" x1="7093.19" y1="5437.33" x2="7330.81" y2="5437.33" gradientTransform="matrix(0.6, 0.8, 0.8, -0.6, -7905.29, -1384.93)" gradientUnits="userSpaceOnUse"><stop offset="0" stop-color="#febbba"/><stop offset="1" stop-color="#ff928e"/></linearGradient><linearGradient id="linear-gradient-2" x1="-3600.25" y1="2762.45" x2="-3505.84" y2="2762.45" gradientTransform="matrix(-1, 0, 0, 1, -884, 0)" gradientUnits="userSpaceOnUse"><stop offset="0" stop-color="#09005d"/><stop offset="1" stop-color="#1a0f91"/></linearGradient><linearGradient id="linear-gradient-3" x1="-3590.67" y1="2718.58" x2="-3552.38" y2="2718.58" gradientTransform="matrix(-1, 0, 0, 1, -884, 0)" xlink:href="#linear-gradient"/><linearGradient id="linear-gradient-4" x1="-3399.48" y1="2760.94" x2="-3251.36" y2="2760.94" xlink:href="#linear-gradient-2"/><linearGradient id="linear-gradient-5" x1="-3397.24" y1="2701.58" x2="-3359.16" y2="2701.58" gradientTransform="matrix(-1, 0, 0, 1, -884, 0)" xlink:href="#linear-gradient"/><linearGradient id="linear-gradient-6" x1="2619.19" y1="2177.92" x2="2672.7" y2="2177.92" gradientUnits="userSpaceOnUse"><stop offset="0" stop-color="#4f52ff"/><stop offset="1" stop-color="#4042e2"/></linearGradient><linearGradient id="linear-gradient-7" x1="2363.08" y1="1724.06" x2="2312.56" y2="3138.64" gradientUnits="userSpaceOnUse"><stop offset="0" stop-color="#fe7062"/><stop offset="1" stop-color="#ff928e"/></linearGradient><linearGradient id="linear-gradient-8" x1="-1923.27" y1="753.39" x2="-1781.76" y2="753.39" gradientTransform="matrix(-0.94, -0.34, -0.34, 0.94, 736.68, 139.76)" xlink:href="#linear-gradient"/><linearGradient id="linear-gradient-9" x1="2140.8" y1="2403.77" x2="2780.66" y2="1420.39" xlink:href="#linear-gradient-7"/><linearGradient id="linear-gradient-10" x1="-2822.06" y1="1617.52" x2="-3127.82" y2="1997.92" gradientTransform="matrix(-1, 0, 0, 1, -884, 0)" xlink:href="#linear-gradient"/><linearGradient id="linear-gradient-11" x1="-2764.09" y1="1664.12" x2="-3069.85" y2="2044.51" gradientTransform="matrix(-1, 0, 0, 1, -884, 0)" xlink:href="#linear-gradient"/><linearGradient id="linear-gradient-12" x1="-3166.04" y1="1387.63" x2="-3462.17" y2="1931.74" gradientTransform="matrix(-1, 0, 0, 1, -884, 0)" xlink:href="#linear-gradient"/><linearGradient id="linear-gradient-13" x1="-3038.18" y1="1852.24" x2="-3169.05" y2="2025.37" gradientTransform="matrix(-0.82, -0.58, -0.58, 0.82, 961.36, -1777.52)" xlink:href="#linear-gradient"/><linearGradient id="linear-gradient-14" x1="-3138.13" y1="1894" x2="-2981.8" y2="1894" gradientTransform="matrix(-0.82, -0.58, -0.58, 0.82, 961.36, -1777.52)" xlink:href="#linear-gradient-2"/><linearGradient id="linear-gradient-15" x1="-3229.86" y1="1989.34" x2="-3124.89" y2="1881.65" gradientTransform="matrix(-0.82, -0.58, -0.58, 0.82, 961.36, -1777.52)" xlink:href="#linear-gradient"/><linearGradient id="linear-gradient-16" x1="-1431.22" y1="807.66" x2="-1344.02" y2="1026.38" gradientTransform="matrix(-1, 0, 0, 1, -888.69, 0)" xlink:href="#linear-gradient-2"/><linearGradient id="linear-gradient-17" x1="-1112.47" y1="2207.96" x2="-1038.53" y2="2207.96" gradientTransform="matrix(-1, 0, 0, 1, -888.69, 0)" xlink:href="#linear-gradient-2"/><linearGradient id="linear-gradient-18" x1="-1424.9" y1="2499.53" x2="-1318.49" y2="1255.96" gradientTransform="matrix(-1, 0, 0, 1, -888.69, 0)" xlink:href="#linear-gradient"/><linearGradient id="linear-gradient-19" x1="-1455.98" y1="2194.47" x2="-1336.34" y2="2194.47" gradientTransform="matrix(-1, 0, 0, 1, -888.69, 0)" xlink:href="#linear-gradient-2"/><linearGradient id="linear-gradient-20" x1="-1210.86" y1="2518.04" x2="-1104.43" y2="1274.14" gradientTransform="matrix(-1, 0, 0, 1, -888.69, 0)" xlink:href="#linear-gradient"/><linearGradient id="linear-gradient-21" x1="585.27" y1="1092.67" x2="69.95" y2="2456.74" xlink:href="#linear-gradient-7"/><linearGradient id="linear-gradient-22" x1="-1436.56" y1="1273.74" x2="-1416.58" y2="1127.52" gradientTransform="matrix(-1, 0, 0, 1, -888.69, 0)" xlink:href="#linear-gradient"/><linearGradient id="linear-gradient-23" x1="-1487.01" y1="1085.22" x2="-1312.62" y2="774.86" gradientTransform="matrix(-1, 0, 0, 1, -888.69, 0)" xlink:href="#linear-gradient"/><linearGradient id="linear-gradient-24" x1="-1449.51" y1="814.95" x2="-1362.32" y2="1033.67" gradientTransform="matrix(-1, 0, 0, 1, -888.69, 0)" xlink:href="#linear-gradient-2"/><linearGradient id="linear-gradient-25" x1="-1449.89" y1="1106.08" x2="-1275.5" y2="795.72" gradientTransform="matrix(-1, 0, 0, 1, -888.69, 0)" xlink:href="#linear-gradient"/><linearGradient id="linear-gradient-26" x1="1721.39" y1="1861.41" x2="1287.3" y2="1983.39" gradientTransform="translate(-1553.45 -64.78) rotate(-18.87)" xlink:href="#linear-gradient"/></defs><g id="Layer_2" data-name="Layer 2"><g id="Illustration"><path class="cls-1" d="M2649,1885.51c-268.25,631.63-982.81,985.47-1602.48,890-100.84-15.54-377.27-61.8-622-280.06C-46.66,2075.31-147.42,1243.31,232.64,657,509.26,230.24,1005.13-11.67,1476.31.43,1577.8,3,1966.75,19.1,2308.58,301c50.2,41.4,160.94,139.78,260.74,295.85C2803.67,963.29,2823.82,1473.88,2649,1885.51Z"/><path class="cls-2" d="M557.5,1164s275.16,233.42,385.92-110c0,0,1.76-8.58-2.37-19.75-2.08-5.64-2-27-1.83-38a5.92,5.92,0,0,0-6.44-6h0a8.13,8.13,0,0,0-6.48,4.3l-23.53,44.7A16.65,16.65,0,0,0,915,1057.14h0a8.22,8.22,0,0,1,5.23,11.66c-97.1,190.89-344.46,46.23-348,49.1C559.8,1128.1,545.32,1139.5,557.5,1164Z"/><g class="cls-3"><path class="cls-4" d="M1455.78,296.33a21.89,21.89,0,0,1,16.14-24.44c23.94-6.24,48.5-11.52,73-15.72a21.89,21.89,0,0,1,25.28,17.89c0,.15,0,.29.07.43a21.91,21.91,0,0,1-18,24.86c-23.29,4-46.62,9-69.36,14.92a21.89,21.89,0,0,1-26.71-15.68A22.12,22.12,0,0,1,1455.78,296.33Zm188.84-27.18a19.94,19.94,0,0,1-.23-2.59,21.89,21.89,0,0,1,21.17-22.6c24.83-.81,49.94-.57,74.63.73a21.89,21.89,0,1,1-2.29,43.73c-23.46-1.22-47.32-1.46-70.92-.68A21.91,21.91,0,0,1,1644.62,269.15Zm190.13,15.08a21.91,21.91,0,0,1,25.84-24.78c24.33,4.72,48.77,10.56,72.62,17.37a21.9,21.9,0,1,1-12,42.12c-22.65-6.46-45.85-12-69-16.5A21.91,21.91,0,0,1,1834.75,284.23Zm182,57.22a21.91,21.91,0,0,1,30.54-23.28c22.68,10.06,45.19,21.22,66.92,33.17a21.9,21.9,0,1,1-21.11,38.37c-20.63-11.35-42-21.95-63.57-31.5A21.9,21.9,0,0,1,2016.77,341.45Zm164.69,96.37A21.9,21.9,0,0,1,2216.21,417c19.83,14.8,39.31,30.66,57.89,47.14A21.9,21.9,0,1,1,2245,496.9c-17.65-15.67-36.17-30.74-55-44.81A21.82,21.82,0,0,1,2181.46,437.82Zm139.26,130.4a21.9,21.9,0,0,1,38.3-17.53c16.1,18.85,31.59,38.63,46,58.79A21.9,21.9,0,0,1,2369.44,635c-13.72-19.15-28.43-37.94-43.73-55.86A21.77,21.77,0,0,1,2320.72,568.22Zm171.76,785.62a21.72,21.72,0,0,1,.59-9.24c6.41-22.64,11.93-45.86,16.38-69a21.9,21.9,0,0,1,43,8.27c-4.69,24.39-10.49,48.85-17.25,72.69a21.9,21.9,0,0,1-42.73-2.7Zm-64.93-627.71a21.9,21.9,0,0,1,41.06-13.44c11.5,22,22.19,44.69,31.76,67.55A21.9,21.9,0,0,1,2460,797.16c-9.08-21.72-19.23-43.3-30.15-64.15A21.81,21.81,0,0,1,2427.55,726.13Zm95.92,439.47a22.12,22.12,0,0,1-.23-4.4c1.19-23.52,1.37-47.4.56-71a21.9,21.9,0,0,1,43.77-1.51c.86,24.81.66,49.93-.58,74.67a21.9,21.9,0,0,1-43.52,2.21Zm-27-261.66a21.91,21.91,0,0,1,42.85-8.81c6.28,24,11.62,48.5,15.84,73,0,.15.06.31.08.46a21.9,21.9,0,0,1-43.23,7c-4-23.23-9.09-46.54-15.07-69.3C2496.7,905.48,2496.54,904.71,2496.42,903.94Z"/><path class="cls-4" d="M2437.34,1497.39a21.76,21.76,0,0,1,2-12.93c5-10.13,9.84-20.53,14.44-30.92a21.9,21.9,0,1,1,40,17.73c-4.83,10.92-9.94,21.86-15.19,32.53a21.9,21.9,0,0,1-41.3-6.41Z"/></g><g class="cls-3"><path class="cls-4" d="M1932,1933.78a21.92,21.92,0,0,1,15-24.12c10.75-3.43,21.61-7.15,32.28-11.05a21.9,21.9,0,1,1,15,41.13c-11.23,4.11-22.67,8-34,11.64a21.89,21.89,0,0,1-27.52-14.19A23.37,23.37,0,0,1,1932,1933.78Z"/><path class="cls-4" d="M828.65,1250.11q-2.26-14.94-4-30.08a21.9,21.9,0,0,1,43.51-5.1c2.73,23.28,6.4,46.4,11,69a21.9,21.9,0,0,1-42.94,8.67C833.32,1278.61,830.8,1264.33,828.65,1250.11ZM819,1104.55a21.81,21.81,0,0,1-.25-3.72c.46-24.43,2-49.12,4.47-73.36a21.9,21.9,0,1,1,43.56,4.5c-2.37,23-3.8,46.47-4.24,69.69a21.9,21.9,0,0,1-43.54,2.89Zm47.72,299.13a21.9,21.9,0,0,1,42.33-10.48c7.64,21.84,16.31,43.64,25.8,64.82a21.9,21.9,0,0,1-40,17.91c-10-22.31-19.13-45.28-27.18-68.28A22.56,22.56,0,0,1,866.75,1403.68ZM843.24,918.33a21.83,21.83,0,0,1,.39-8.49c5.81-23.71,12.71-47.46,20.5-70.58a21.9,21.9,0,1,1,41.5,14c-7.39,22-13.94,44.5-19.46,67a21.91,21.91,0,0,1-42.93-1.94Zm104.69,654.51A21.9,21.9,0,0,1,988.16,1558c12.25,19.62,25.51,39,39.42,57.57a21.9,21.9,0,0,1-35.06,26.24c-14.65-19.57-28.61-40-41.51-60.61A21.76,21.76,0,0,1,947.93,1572.84Zm116.33,147.26a21.9,21.9,0,0,1,37.24-18.68c16.29,16.51,33.47,32.53,51,47.61a21.9,21.9,0,1,1-28.51,33.25c-18.5-15.87-36.58-32.72-53.72-50.1A21.84,21.84,0,0,1,1064.26,1720.1Zm145.67,118.39a21.9,21.9,0,0,1,33.52-21.67c19.51,12.58,39.76,24.47,60.2,35.35a21.9,21.9,0,0,1-20.58,38.66c-21.51-11.45-42.83-24-63.36-37.2A21.85,21.85,0,0,1,1209.93,1838.49Zm168,83.8a21.91,21.91,0,0,1,29.21-23.81c21.78,8,44.14,15.17,66.48,21.3A21.89,21.89,0,1,1,1462,1962c-23.53-6.45-47.08-14-70-22.42A21.92,21.92,0,0,1,1377.93,1922.29Zm182.38,44.89a21.67,21.67,0,0,1,0-6.13,21.89,21.89,0,0,1,24.55-18.87c23,3,46.33,5.06,69.5,6.12a21.9,21.9,0,0,1-2,43.75c-24.39-1.11-49-3.28-73.16-6.44A21.93,21.93,0,0,1,1560.31,1967.18Zm187.66,3.73c-.07-.45-.12-.9-.16-1.35a21.89,21.89,0,0,1,19.85-23.76c17-1.53,34.16-3.6,51-6.15q9.15-1.38,18.22-3a21.91,21.91,0,0,1,25.33,17.83,21.66,21.66,0,0,1-17.82,25.33q-9.56,1.65-19.17,3.12c-17.72,2.68-35.77,4.86-53.66,6.46A21.9,21.9,0,0,1,1748,1970.91Z"/><path class="cls-4" d="M908.11,741.54a21.79,21.79,0,0,1,2-13c5.29-10.61,10.9-21.31,16.69-31.8a21.9,21.9,0,1,1,38.36,21.13c-5.49,10-10.82,20.13-15.84,30.21a21.9,21.9,0,0,1-41.25-6.51Z"/></g><path class="cls-5" d="M1163.68,732.71a10.26,10.26,0,0,0-1.39,11.81l60,109.16a542.72,542.72,0,0,0-59.24,165.53l-115.54,46.35a10.22,10.22,0,0,0-6.41,10l7.38,149.25a10.22,10.22,0,0,0,7.36,9.32l119.56,34.73a543,543,0,0,0,75.27,158.88l-49,114.55a10.26,10.26,0,0,0,2.54,11.61L1315,1654.21a10.22,10.22,0,0,0,11.8,1.38l109.16-60a542.85,542.85,0,0,0,165.54,59.23l46.35,115.55a10.22,10.22,0,0,0,10,6.41l149.25-7.38a10.21,10.21,0,0,0,9.32-7.36l34.72-119.56a542.65,542.65,0,0,0,158.89-75.28l114.55,49a10.26,10.26,0,0,0,11.61-2.54l100.31-110.75a10.22,10.22,0,0,0,1.38-11.8l-60-109.17a542.7,542.7,0,0,0,59.23-165.53L2352.67,1170a10.22,10.22,0,0,0,6.41-10l-7.38-149.25a10.22,10.22,0,0,0-7.36-9.32l-119.56-34.72a542.65,542.65,0,0,0-75.28-158.89l49-114.55a10.24,10.24,0,0,0-2.54-11.61L2085.18,581.36a10.26,10.26,0,0,0-11.81-1.39l-109.16,60a542.17,542.17,0,0,0-165.53-59.23l-46.35-115.55a10.23,10.23,0,0,0-10-6.41l-149.24,7.38a10.22,10.22,0,0,0-9.32,7.36L1549,593.11a543,543,0,0,0-158.88,75.27l-114.55-49A10.26,10.26,0,0,0,1264,622Z"/><path class="cls-6" d="M1551.57,1140.19c-11-72.39,32.56-144,104.62-166,79.21-24.21,163.34,20.52,187.55,99.72A150.18,150.18,0,0,1,1744,1261.42c-79.21,24.22-163.34-20.52-187.55-99.72A151.89,151.89,0,0,1,1551.57,1140.19ZM1814,1100.77a115.17,115.17,0,1,0-80.25,127.15A115.2,115.2,0,0,0,1814,1100.77Z"/><path class="cls-6" d="M1337.54,1175.72a377.13,377.13,0,0,1-3.78-37.76h0q-.3-6-.41-12a372.79,372.79,0,0,1,3.68-59c0-.26.08-.53.11-.79.12-.75.23-1.51.35-2.26.22-1.46.45-2.93.69-4.39a8.76,8.76,0,1,1,17.28,2.84,354,354,0,0,0-4.2,74.8c6.13,124.51,76.65,230.87,177.68,288.45A349.55,349.55,0,0,0,1720,1471.09a357.62,357.62,0,0,0,36-3.61,351.88,351.88,0,0,0,298-365.13c-9.6-193.84-175-343.59-368.75-334a351.63,351.63,0,0,0-178,58.71,8.66,8.66,0,0,1-3.55,1.38,8.76,8.76,0,0,1-6.18-16,368.36,368.36,0,0,1,149.5-57.9,374.26,374.26,0,0,1,37.32-3.75c203.41-10.06,377.06,147.3,387.12,350.64a366.85,366.85,0,0,1-95.15,266.17c-57.65,63.66-133.88,104.45-217.66,117.15a375.4,375.4,0,0,1-37.82,3.79,367,367,0,0,1-266.18-95.14C1391,1335.78,1350.24,1259.52,1337.54,1175.72Z"/><g class="cls-3"><path class="cls-4" d="M366.52,303.64A13.25,13.25,0,0,1,369.08,288c8.12-7.81,16.58-15.48,25.15-22.8a13.27,13.27,0,1,1,17.23,20.18c-8.17,7-16.24,14.29-24,21.74a13.23,13.23,0,0,1-21-3.43Z"/><path class="cls-4" d="M446.23,239.91a13.27,13.27,0,0,1,4.47-17.21A574.92,574.92,0,0,1,501,193.11q5.43-2.84,10.95-5.57c6.58-3.25,14.47-.09,17.79,6a13.28,13.28,0,0,1-6,17.78q-5.28,2.61-10.47,5.31a552.07,552.07,0,0,0-48,28.23,13.27,13.27,0,0,1-18.38-3.78C446.67,240.69,446.43,240.3,446.23,239.91Zm123.45-61.13a13.6,13.6,0,0,1-.76-1.75A13.26,13.26,0,0,1,577,160.11,572.4,572.4,0,0,1,645,140.82a13.27,13.27,0,0,1,5.66,25.92,549.69,549.69,0,0,0-64.8,18.4A13.28,13.28,0,0,1,569.68,178.78Zm134.59-29.37a13.26,13.26,0,0,1,10.57-19.34,572.22,572.22,0,0,1,70.64-2,13.27,13.27,0,0,1-.89,26.53,542.51,542.51,0,0,0-67.35,1.91A13.3,13.3,0,0,1,704.27,149.41ZM842,154a13.27,13.27,0,0,1,13.85-19.24,577,577,0,0,1,68.95,15.34,13.27,13.27,0,0,1-7.35,25.5A548.33,548.33,0,0,0,851.66,161,13.22,13.22,0,0,1,842,154Zm132.39,38.11a13.27,13.27,0,0,1,17-18.35,579.24,579.24,0,0,1,63.13,31.61,13.27,13.27,0,0,1-13.3,23,553.25,553.25,0,0,0-60.24-30.16A13.24,13.24,0,0,1,974.36,192.15Zm119.11,69.08a13.27,13.27,0,0,1,19.77-16.72,571.29,571.29,0,0,1,53.51,46,13.27,13.27,0,0,1-18.53,19,542.62,542.62,0,0,0-51-43.9A13.18,13.18,0,0,1,1093.47,261.23Zm98.58,96.08a13.27,13.27,0,0,1,22.13-14.41,574.6,574.6,0,0,1,40.6,57.8,13.28,13.28,0,0,1-22.63,13.89,545.52,545.52,0,0,0-38.7-55.13A13.18,13.18,0,0,1,1192.05,357.31Zm96.78,181.84a12.55,12.55,0,0,1-.89-2.16,552.56,552.56,0,0,0-20.59-54.86c-1.17-2.72-2.36-5.38-3.57-8a13.28,13.28,0,0,1,6.55-17.59,13.13,13.13,0,0,1,17.58,6.54q1.93,4.23,3.79,8.51A576.81,576.81,0,0,1,1313.24,529a13.27,13.27,0,0,1-24.41,10.13Z"/></g><g class="cls-3"><path class="cls-4" d="M262.18,972.88a13.27,13.27,0,0,1,23.45-12.42,548.33,548.33,0,0,0,34.87,56.32,13.27,13.27,0,1,1-21.68,15.31,579.31,579.31,0,0,1-36.56-59Zm-28.53-61.59c-.22-.43-.41-.86-.59-1.31A581.32,581.32,0,0,1,211.6,843.9a13.27,13.27,0,0,1,25.69-6.67,554,554,0,0,0,20.47,63.06,13.27,13.27,0,0,1-24.11,11Zm106.72,172.22a13.26,13.26,0,0,1,21.57-15.06,550.9,550.9,0,0,0,47.48,46.24,13.27,13.27,0,0,1-17.34,20.1,577.68,577.68,0,0,1-49.76-48.48A13.06,13.06,0,0,1,340.37,1083.51ZM199.7,780.06a13.25,13.25,0,0,1-1.39-4.4,568.66,568.66,0,0,1-4.86-69.35,13.27,13.27,0,1,1,26.53-.23,543.68,543.68,0,0,0,4.64,66.11,13.27,13.27,0,0,1-24.92,7.87ZM443,1172a13.27,13.27,0,0,1,19.14-17.17,547,547,0,0,0,57.18,33.46,13.27,13.27,0,0,1-12,23.67,574.56,574.56,0,0,1-60-35.08A13.22,13.22,0,0,1,443,1172ZM563.8,1233.2a13.26,13.26,0,0,1,16.28-18.61,556.78,556.78,0,0,0,63.55,18.83,13.26,13.26,0,1,1-6,25.84A578.58,578.58,0,0,1,571,1239.53,13.19,13.19,0,0,1,563.8,1233.2Zm132,30.55a13.09,13.09,0,0,1-1.42-7.54,13.27,13.27,0,0,1,14.6-11.79,541,541,0,0,0,66.21,3,13.27,13.27,0,0,1,.4,26.54,574,574,0,0,1-69.44-3.17A13.28,13.28,0,0,1,695.83,1263.75Z"/><path class="cls-4" d="M198.53,643.91a13.26,13.26,0,0,1-1.41-7.64C198.41,625,200,613.7,202,602.7a13.27,13.27,0,1,1,26.15,4.57c-1.84,10.48-3.39,21.26-4.63,32a13.27,13.27,0,0,1-24.95,4.61Z"/></g><path class="cls-5" d="M355.59,574.4a6.7,6.7,0,0,0,1.66,7.62l60.52,55a356.17,356.17,0,0,0-1.51,115.39L354.4,805.79a6.7,6.7,0,0,0-1.85,7.57l36.37,91.09a6.73,6.73,0,0,0,6.56,4.22l81.63-3.91a356.33,356.33,0,0,0,80.58,82.6l-6,81.55a6.71,6.71,0,0,0,4,6.66l90.13,38.69a6.73,6.73,0,0,0,7.63-1.66l55-60.52a356.17,356.17,0,0,0,115.39,1.51l53.39,61.86a6.71,6.71,0,0,0,7.58,1.85l91.08-36.37a6.73,6.73,0,0,0,4.22-6.56l-3.91-81.63a355.94,355.94,0,0,0,82.6-80.58l81.55,6a6.74,6.74,0,0,0,6.67-4L1185.73,824a6.72,6.72,0,0,0-1.66-7.63l-60.52-55A355.89,355.89,0,0,0,1125.06,646l61.86-53.39a6.71,6.71,0,0,0,1.85-7.58l-36.37-91.08a6.73,6.73,0,0,0-6.56-4.22l-81.62,3.91A356.18,356.18,0,0,0,983.63,411l6-81.55a6.73,6.73,0,0,0-4-6.67l-90.13-38.68a6.7,6.7,0,0,0-7.62,1.66l-55,60.52a355.89,355.89,0,0,0-115.39-1.51l-53.39-61.87a6.72,6.72,0,0,0-7.58-1.84L565.4,317.45a6.73,6.73,0,0,0-4.22,6.56l3.91,81.63a356.33,356.33,0,0,0-82.6,80.58l-81.55-6a6.74,6.74,0,0,0-6.67,4Z"/><path class="cls-7" d="M681.58,745.43a100.52,100.52,0,1,1,7.82,12.65A101.91,101.91,0,0,1,681.58,745.43Zm154.56-80.36a76.76,76.76,0,0,0-5.71-9.22,73.83,73.83,0,0,0-119.54,86.67h0a73.83,73.83,0,0,0,125.25-77.45Z"/><path class="cls-7" d="M551.14,815.64a251.38,251.38,0,0,1-24.62-72l-.39-2.26a13.27,13.27,0,0,1,26.16-4.42,224.27,224.27,0,0,0,12.88,45.78h0c.32.81.66,1.62,1,2.42A221.28,221.28,0,0,0,631.33,873a224.4,224.4,0,0,0,51.34,31.33l.46.2,1.4.61a222,222,0,0,0,171,2.17,224.93,224.93,0,0,0,20.9-9.59A223.41,223.41,0,0,0,689.78,492.39,223.06,223.06,0,0,0,595,564.33a13.27,13.27,0,1,1-21.11-16.09,249.4,249.4,0,0,1,83-69.9,251.93,251.93,0,0,1,23.07-10.6A250,250,0,0,1,888.71,921.23q-11.33,5.89-23.37,10.73C745.3,979.89,609.69,927.86,551.14,815.64Z"/><path class="cls-8" d="M2703.11,2729.18s10.49,16.54,13.13,62.83a7.54,7.54,0,0,1-7.5,8h-82a4.84,4.84,0,0,1-4.6-6.36c4.81-14.23,19.34-48.93,51.78-68.75Z"/><path class="cls-9" d="M2706.67,2697.81l-4.64,38.91a7.32,7.32,0,0,1-6.39,6.43,64.91,64.91,0,0,1-17.35-.16,12,12,0,0,1-9.9-11.93V2693.5Z"/><path class="cls-10" d="M2500.12,2724.89s15.7,24.41,15.36,57.91a14.49,14.49,0,0,1-14.57,14.18H2373.48a6.1,6.1,0,0,1-3.5-11.09c24.11-16.94,71.5-48.57,105.78-61Z"/><path class="cls-11" d="M2513.24,2682.87l-9.9,48.05a9.91,9.91,0,0,1-11.72,7.8,35.76,35.76,0,0,1-11.2-4.69,11.37,11.37,0,0,1-5.08-11.61l10.23-58.22Z"/><path class="cls-5" d="M2688.49,2014.74s34.42,30.34,40.89,66.84S2711,2711.4,2711,2711.4s-34.41,5.73-52.15-5c0,0-21-385.06-37-474,0,0-83.87,398.87-107.11,470.94,0,0-33.15,4-43.85-2.27,0,0,22-517.05,49.58-609Z"/><path class="cls-12" d="M2622.85,2219.75a3.66,3.66,0,0,0,3.53-2.73l14.26-54.7,30.38-19.49a3.65,3.65,0,0,0-3.94-6.15l-31.59,20.26a3.66,3.66,0,0,0-1.56,2.15l-14.62,56.08a3.65,3.65,0,0,0,2.61,4.46A3.71,3.71,0,0,0,2622.85,2219.75Z"/><path class="cls-13" d="M2352.47,1605.21c140.52,37.25,166.13,78.2,166.13,78.2l-102.45,80.2s-133.16-50.4-202.89-158.67c24.88-13,45-29.93,58.93-43.74A191.89,191.89,0,0,0,2352.47,1605.21Z"/><path class="cls-14" d="M2210.05,1328.78a4.44,4.44,0,0,1,8.54,1.23l4.19,43.37a41.1,41.1,0,0,1-5.11,24.13L2203.86,1417a39.58,39.58,0,0,0-3,32.42c8.88,25.71,29.95,74.38,71.29,111.81-13.94,13.81-34.05,30.77-58.93,43.74-25.59-39.73-42.64-87.24-41.43-142.93a19.39,19.39,0,0,1-6.43-22.74Z"/><path class="cls-15" d="M2301.18,1735.63c51-55,148.15-79.78,204.4-90a51.59,51.59,0,0,1,57.66,32.71c25.31,68,94.15,245.06,107.49,275.49,10.95,25,22.38,49.33,29.64,64.57a18.3,18.3,0,0,1-8.53,24.38c-47.33,22.81-132.48,48.62-167,58.69a11.84,11.84,0,0,1-15.15-11.4,36.91,36.91,0,0,0-5.28-19l-130.73-217.87c-81.49,90.36-152.85,98.62-207.67,78.84a412.71,412.71,0,0,0,18.14-85.62C2265.14,1832.52,2301.18,1735.63,2301.18,1735.63Z"/><path class="cls-16" d="M2050.29,1831.23l14.61-19.48c47.32,32.49,86.87,40.2,119.25,34.65A412.71,412.71,0,0,1,2166,1932C2093.79,1906,2050.29,1831.23,2050.29,1831.23Z"/><path class="cls-17" d="M2060.59,1831.59l-82.34,3.21-75.81-42.35c10.88-6.82,72.42,7.13,72.42,7.13s64.33-9.73,81.74-9.76c14.46,0,12.4,20.78,11.28,27.83-.23,1.44-.41,2.3-.41,2.3Z"/><path class="cls-18" d="M2428.21,1544.72l43.45,106s-49.92,34.55-90.08,31.27l-21.68-95.33Z"/><path class="cls-19" d="M2354.83,1472.44c-1,1.41-31.43,111.36-31.43,111.36l63.15,16,44.32-99.93S2371.49,1448.84,2354.83,1472.44Z"/><path class="cls-20" d="M2407.09,1515.1l-19.21,54.43a8.17,8.17,0,0,1-1,2c-2.61,3.71-12.52,15.8-24.27,4.91-10.66-9.88-20.54-18.74-29.66-20.35a8.06,8.06,0,0,0-9.17,5.78c-2.76,10-8.57,32.62-10.62,53a8,8,0,0,0,6.54,8.67c12.33,2.34,38.48,6.55,60.31,5a8.08,8.08,0,0,0,6.8-4.68c6-13.15,24.45-53,31.31-63.36,6.43-9.69,22.21-9.42,28.82-8.83a8,8,0,0,0,5.94-1.94c5.79-5.08,16.8-18,1.31-33.53a8.08,8.08,0,0,1,.19-11.63c6.65-6.25,13.77-17.35,2.68-31.11-11.27-14-26.14-11.76-35.26-8.44a8.06,8.06,0,0,1-9.71-3.59c-1.14-1.92-3.13-3.37-6.58-3.07a8,8,0,0,1-8.47-8.15c.16-9-3.05-20.28-18.59-25.12-27.59-8.58-44.79,18.07-46.49,38s28.73,27.5,46.63,26.16c13.61-1,23.71,12.46,27.77,19A8,8,0,0,1,2407.09,1515.1Z"/><path class="cls-21" d="M2410.92,1580.27s4.46-34.53,18.82-36.22,28.34,10.11,14.06,29.49C2426,1597.64,2410.92,1580.27,2410.92,1580.27Z"/><path class="cls-22" d="M52.75,2206.17h939.1a48.66,48.66,0,0,1,48.66,48.66v539.36a0,0,0,0,1,0,0H4.1a0,0,0,0,1,0,0V2254.83a48.66,48.66,0,0,1,48.66-48.66Z"/><path class="cls-23" d="M490.83,925.31S461.43,939.61,456,956c-4.34,13.18-36.84,14.87-40,40.79-1.66,13.39-11.56,24.1-24.89,26.15-33.2,5.08-84.36,22.32-92.54,80-6.25,44,16.17,60.68,39.71,66.45,17.29,4.24,28.78,21.06,25.28,38.51-3.35,16.74,1.65,36.09,30.65,51.39,65,34.3,129.89-81.24,129.89-81.24l13.3-201.73Z"/><path class="cls-24" d="M223.7,2190.23l-4.21,34.57A14.29,14.29,0,0,1,207,2237.3c-11.08,1.27-28.86,2.56-46.27.72a12.23,12.23,0,0,1-10.27-15.86c4.25-13.34,12-33.38,23.2-45.17H212A11.82,11.82,0,0,1,223.7,2190.23Z"/><path class="cls-25" d="M524.08,1785.23l6.47,38.08S508.88,2042.89,505,2130.72a68.81,68.81,0,0,0,10.19,39.11L552.9,2231l-95.8-56.53-1.91-11.69,15.69-21.56-20.54-246a75.46,75.46,0,0,1,8.58-41.74l19.82-37.22Z"/><path class="cls-26" d="M559.21,2239.91H528.64a18.42,18.42,0,0,1-14.61-7.16c-9.53-12.39-29.28-36.55-38.72-37.18-12.71-.85-11.08,44.34-11.08,44.34H457.1l-9-56.15A33.23,33.23,0,0,1,465.52,2149h0s2.9,21.49,18.66,31,64.11,43.54,64.11,43.54a43.85,43.85,0,0,1,12.42.33C570.36,2225.63,569,2239.91,559.21,2239.91Z"/><path class="cls-27" d="M392.87,1803.32s-127,240.89-147.18,295.89-27.26,100.89-27.53,105.23c-.42,6.79-8.87,13.3-32.14,13.3-12,0-17.9-4.81-20.78-9.47a13.58,13.58,0,0,1-.51-13.15c7.34-14.86,30.65-62.37,39.29-83.92,10.31-25.73,32.48-142.33,44.64-182.86s25.91-84.52,78.86-125C327.52,1803.32,363.88,1767.71,392.87,1803.32Z"/><path class="cls-28" d="M473.09,1408.6c32.76-138.81-50.22-217.32-50.22-217.32,52.36-50.26,147.76-73.13,147.76-73.13s91,66.55,80.24,118.65c-6.33,30.53-64,182.89-64,182.89S533.56,1444.92,473.09,1408.6Z"/><path class="cls-5" d="M400.46,1477.32c13.33-40.16,72.63-68.72,72.63-68.72,60.47,36.32,113.79,11.09,113.79,11.09s12,45.7,3.71,88.18-60,315.44-60,315.44c-81.58,16.53-207.06-16.63-207.06-16.63C375.46,1714.42,387.13,1517.49,400.46,1477.32Z"/><path class="cls-29" d="M511.12,1026.42l-26.63,119.63c-2.55,10.53,7.05,8.81,17.7,6.8,17.45-3.29,39.94-10.06,47.46-23.64a13,13,0,0,0,1.36-4.51l11.44-83a14.9,14.9,0,0,0-8.72-15.66l-22.08-9.79A14.91,14.91,0,0,0,511.12,1026.42Z"/><path class="cls-30" d="M542.37,912.51s31.54,13.32,53,58.9,5.43,66.62-14.69,69.51-50.2,2.45-82-27S501.36,896.72,542.37,912.51Z"/><path class="cls-31" d="M520,989.59s-23.8-66.68,35.32-67.47l13.91,9.72s21.7-37-13.91-54.62-77.28-3.07-92.43,44.9-17.74,80.08,7.47,103,35.6-3.07,35.6-3.07-13.73-21.47-8.14-33,18.48,2.37,18.48,2.37Z"/><path class="cls-32" d="M513.4,997s-12-34.35-28.08-20.67,13.05,31.73,24.44,37.58Z"/><path class="cls-33" d="M437.82,1255c61.83,28.89,297.7,115.92,371.58-195.52,0,0,.51-9.32-5.6-20.45-3.09-5.61-6.38-28.15-7.91-39.71a6.31,6.31,0,0,0-7.73-5.3h0a8.63,8.63,0,0,0-6.15,5.55l-17.77,50.81A17.76,17.76,0,0,0,780,1067.27h0a8.76,8.76,0,0,1,7.35,11.47c-72.3,216.46-355.77,102.92-359,106.5a56.49,56.49,0,0,0-12.81,24.59A40.13,40.13,0,0,0,437.82,1255Z"/></g></g></svg>