<svg xmlns="http://www.w3.org/2000/svg" viewBox="0 0 23.85 17.14"><g id="Layer_2" data-name="Layer 2"><g id="ELEMENTS"><g id="Mail_2" data-name="Mail 2"><path d="M20.87,0H3A3,3,0,0,0,0,3V14.16a3,3,0,0,0,3,3H20.87a3,3,0,0,0,3-3V3A3,3,0,0,0,20.87,0Zm1.49,14.16a1.49,1.49,0,0,1-1.49,1.49H3a1.49,1.49,0,0,1-1.49-1.49V3A1.49,1.49,0,0,1,3,1.49H20.87A1.49,1.49,0,0,1,22.36,3Z"/><path d="M20.7,4a.75.75,0,0,0-1.05-.1l-7.72,6.32L4.2,3.9A.75.75,0,0,0,3.15,4a.75.75,0,0,0,.1,1l8.2,6.71a.75.75,0,0,0,1,0l8.2-6.71A.75.75,0,0,0,20.7,4Z"/><path d="M17.67,9.91A.74.74,0,0,0,16.62,11l3,3a.74.74,0,0,0,1,0,.74.74,0,0,0,0-1Z"/><path d="M6.18,9.91l-3,3a.75.75,0,0,0,.53,1.27.7.7,0,0,0,.52-.22l3-3a.74.74,0,0,0,0-1.05A.75.75,0,0,0,6.18,9.91Z"/></g></g></g></svg>