<svg xmlns="http://www.w3.org/2000/svg" viewBox="0 0 403.52 356.99"><defs><style>.cls-1{fill:#ebebeb;}.cls-2{fill:#f5f5f5;}.cls-3{fill:#e0e0e0;}.cls-4{fill:#f0f0f0;}.cls-5,.cls-7{fill:#67a9af;}.cls-6{fill:#407bff;}.cls-14,.cls-26,.cls-7,.cls-8{opacity:0.5;}.cls-10,.cls-12,.cls-13,.cls-17,.cls-18,.cls-22,.cls-8{fill:#fff;}.cls-15,.cls-9{fill:#b3d4d7;}.cls-10,.cls-11,.cls-21{opacity:0.2;}.cls-12,.cls-24{opacity:0.3;}.cls-13,.cls-15{opacity:0.6;}.cls-16{fill:#41949b;}.cls-17{opacity:0.7;}.cls-19{opacity:0.4;}.cls-20{fill:#263238;}.cls-22{opacity:0.8;}.cls-23{fill:#85babf;}.cls-25{fill:#ce7a63;}.cls-27{fill:#ba4d3c;}.cls-28{fill:#ff5652;}.cls-29{fill:#8dbfc3;}.cls-30{fill:#316f74;}</style></defs><g id="Layer_2" data-name="Layer 2"><g id="Background_Complete" data-name="Background Complete"><path class="cls-1" d="M165.6,235.63V212.09l-42.76,23.54V212.09L75.07,238.4V316H208.35V212.09Zm-64.16,47.91h-10v-10h10Zm0-15.05h-10v-10h10Zm14.37,15.05h-10v-10h10Zm0-15.05h-10v-10h10Zm23.73,15.05h-10v-10h10Zm0-15.05h-10v-10h10Zm14.38,15.05h-10v-10h10Zm0-15.05h-10v-10h10Zm23.72,15.05h-10v-10h10Zm0-15.05h-10v-10h10ZM192,283.54H182v-10h10Zm0-15.05H182v-10h10Z"/><polygon class="cls-2" points="62.64 315.98 33.22 315.98 37.23 146.1 58.63 146.1 62.64 315.98"/><polygon class="cls-3" points="36.81 163.97 36.35 183.15 59.27 173.12 58.83 154.34 36.81 163.97"/><polygon class="cls-3" points="34.93 243.5 34.48 262.67 61.11 251.02 60.66 232.24 34.93 243.5"/><polygon class="cls-3" points="61.59 271.18 33.99 283.26 33.54 302.44 62.03 289.97 61.59 271.18"/><polygon class="cls-3" points="35.87 203.73 35.41 222.91 60.19 212.07 59.74 193.29 35.87 203.73"/><path class="cls-4" d="M294.44,74.63a20.13,20.13,0,0,0-.31-3.49l5.31-4.79A24.94,24.94,0,0,0,298,62.94l-7.15.36a19.78,19.78,0,0,0-4.94-4.93l.37-7.15a25.47,25.47,0,0,0-3.41-1.41l-4.8,5.31a19.8,19.8,0,0,0-7,0l-4.79-5.31a24.94,24.94,0,0,0-3.41,1.41l.36,7.15a19.91,19.91,0,0,0-4.93,4.93l-7.15-.36a24.94,24.94,0,0,0-1.41,3.41l5.31,4.79a19.8,19.8,0,0,0,0,7l-5.31,4.8a25.47,25.47,0,0,0,1.41,3.41l7.15-.37a19.78,19.78,0,0,0,4.93,4.94l-.36,7.15a24.94,24.94,0,0,0,3.41,1.41l4.79-5.31a19.8,19.8,0,0,0,7,0l4.8,5.31a25.47,25.47,0,0,0,3.41-1.41l-.37-7.15A19.65,19.65,0,0,0,290.88,86l7.15.37a25.47,25.47,0,0,0,1.41-3.41l-5.31-4.8A20,20,0,0,0,294.44,74.63ZM274.61,85.87a11.24,11.24,0,1,1,11.24-11.24A11.24,11.24,0,0,1,274.61,85.87Z"/><path class="cls-2" d="M391.68,86.52a11.7,11.7,0,0,0-.2-2.15l3.27-3a16,16,0,0,0-.87-2.1l-4.39.23a12.54,12.54,0,0,0-3-3l.23-4.39a16,16,0,0,0-2.1-.87l-2.95,3.27a11.6,11.6,0,0,0-4.29,0l-2.95-3.27a15,15,0,0,0-2.1.87l.23,4.39a12.37,12.37,0,0,0-3,3l-4.4-.23a17.45,17.45,0,0,0-.86,2.1l3.26,3a12.2,12.2,0,0,0,0,4.29l-3.26,3a17.45,17.45,0,0,0,.86,2.1l4.4-.23a12.2,12.2,0,0,0,3,3l-.23,4.39a15,15,0,0,0,2.1.87l2.95-3.26a12.2,12.2,0,0,0,4.29,0l2.95,3.26a16,16,0,0,0,2.1-.87l-.23-4.39a12.37,12.37,0,0,0,3-3l4.39.23a16,16,0,0,0,.87-2.1l-3.27-3A11.59,11.59,0,0,0,391.68,86.52Z"/><path class="cls-2" d="M361.55,60.46a28,28,0,0,0-.45-5l7.58-6.84a37,37,0,0,0-2-4.86l-10.2.52a28.2,28.2,0,0,0-7-7L350,27.08a36.18,36.18,0,0,0-4.85-2l-6.84,7.58a27.78,27.78,0,0,0-10,0l-6.84-7.58a35.78,35.78,0,0,0-4.86,2l.52,10.19a28.54,28.54,0,0,0-7,7l-10.19-.52a37,37,0,0,0-2,4.86l7.57,6.84a28.35,28.35,0,0,0,0,9.95l-7.57,6.84a37,37,0,0,0,2,4.86l10.19-.52a28.54,28.54,0,0,0,7,7l-.52,10.19a37.1,37.1,0,0,0,4.86,2l6.84-7.58a27.78,27.78,0,0,0,10,0l6.84,7.58a37.54,37.54,0,0,0,4.85-2l-.52-10.19a28.2,28.2,0,0,0,7-7l10.2.52a37,37,0,0,0,2-4.86l-7.58-6.84A28.12,28.12,0,0,0,361.55,60.46Zm-28.27,16a16,16,0,1,1,16-16A16,16,0,0,1,333.28,76.49Z"/><polygon class="cls-3" points="365.98 228.35 363.08 315.98 370.68 315.98 367.79 228.35 365.98 228.35"/><path class="cls-1" d="M366.07,247.52s-41.69,41.29-32.16,53.7c2.54,3.32,16.08-4.58,16.08-4.58s2.48,7.42,4.73,7.91c4.17.93,14.16-9.57,14.16-9.57s8.26,10.14,12.07,9.57c2.89-.42,6.66-9.57,6.66-9.57s12.25,8.06,14.57,5C411.81,287.29,366.07,247.52,366.07,247.52Z"/><path class="cls-1" d="M366.32,225.36s-36.2,35.85-27.93,46.64c2.21,2.88,14-4,14-4s2.16,6.44,4.11,6.87c3.62.8,12.29-8.32,12.29-8.32s7.18,8.81,10.49,8.32c2.5-.37,5.78-8.32,5.78-8.32s10.63,7,12.66,4.34C406,259.9,366.32,225.36,366.32,225.36Z"/><path class="cls-4" d="M366.63,209.45s-29.5,29.22-22.76,38c1.8,2.35,11.38-3.24,11.38-3.24s1.76,5.25,3.35,5.6c3,.65,10-6.78,10-6.78s5.85,7.18,8.55,6.78c2-.3,4.71-6.78,4.71-6.78s8.67,5.71,10.31,3.54C399,237.6,366.63,209.45,366.63,209.45Z"/><path class="cls-2" d="M371.63,199.66a6.43,6.43,0,0,0-9.21.3c-6.7,7.34-18.17,21.26-14.19,26.45,1.48,1.93,9.33-2.65,9.33-2.65s1.44,4.3,2.74,4.59c2.42.53,8.21-5.56,8.21-5.56s4.79,5.88,7,5.56c1.67-.25,3.86-5.56,3.86-5.56s7.1,4.68,8.45,2.9C391.88,220.35,379,206.71,371.63,199.66Z"/><polygon class="cls-3" points="274.61 191.76 270.5 315.98 281.28 315.98 277.18 191.76 274.61 191.76"/><path class="cls-1" d="M274.74,218.93s-59.09,58.53-45.59,76.13c3.61,4.7,22.8-6.49,22.8-6.49s3.52,10.51,6.71,11.21c5.91,1.32,20.06-13.57,20.06-13.57s11.72,14.37,17.12,13.57c4.09-.6,9.44-13.57,9.44-13.57s17.36,11.43,20.66,7.08C339.58,275.31,274.74,218.93,274.74,218.93Z"/><path class="cls-1" d="M275.1,187.52s-51.31,50.83-39.59,66.11c3.13,4.09,19.8-5.63,19.8-5.63s3.06,9.12,5.83,9.73c5.13,1.14,17.42-11.78,17.42-11.78s10.17,12.47,14.86,11.78c3.56-.52,8.2-11.78,8.2-11.78s15.08,9.92,17.94,6.15C331.41,236.48,275.1,187.52,275.1,187.52Z"/><path class="cls-4" d="M275.54,165s-41.82,41.42-32.26,53.87c2.55,3.33,16.13-4.59,16.13-4.59s2.49,7.43,4.75,7.94c4.19.92,14.2-9.61,14.2-9.61s8.29,10.17,12.11,9.61c2.9-.43,6.69-9.61,6.69-9.61s12.28,8.09,14.61,5C321.43,204.88,275.54,165,275.54,165Z"/><path class="cls-2" d="M282.63,151.09a9.11,9.11,0,0,0-13.05.43c-9.5,10.41-25.77,30.13-20.12,37.5,2.09,2.73,13.22-3.76,13.22-3.76s2,6.09,3.89,6.5c3.43.76,11.63-7.87,11.63-7.87s6.8,8.33,9.93,7.87c2.37-.35,5.47-7.87,5.47-7.87s10.07,6.62,12,4.1C311.33,180.42,293.06,161.09,282.63,151.09Z"/></g><g id="Shadow"><ellipse id="_Path_" data-name="&lt;Path&gt;" class="cls-2" cx="204.53" cy="345.67" rx="196.51" ry="11.32"/></g><g id="Earth"><circle class="cls-5" cx="96.42" cy="62.05" r="62.05" transform="translate(26.63 153.02) rotate(-85.27)"/><path class="cls-6" d="M114.12,81.84h0a1.55,1.55,0,0,1-1.3-.48l-1.83-2a1.55,1.55,0,0,0-1-.49l-2.42-.13a1.46,1.46,0,0,1-.51-.12l-3.18-1.34a1.49,1.49,0,0,0-1.06,0L100,78.1a1.49,1.49,0,0,1-.47.07H96.4a1.53,1.53,0,0,0-1.11.46l-2.65,2.71a1.53,1.53,0,0,1-.83.44L90.3,82a1.52,1.52,0,0,1-1.32-.4l-.84-.79-1-2.4a.46.46,0,0,0-.52-.28l-2,.44a.46.46,0,0,1-.51-.64h0l.65-2.07,0-2.37-.7-.24L80.25,77h0a.8.8,0,0,1-1.34-.49l-.74-5.07a1.28,1.28,0,0,1,1-1.44L81,69.64a1.27,1.27,0,0,0,.89-.65h0a1.27,1.27,0,0,1,1.66-.56l2.9,1.33a1.19,1.19,0,0,0,.41.11l1.06.1a1.28,1.28,0,0,0,1.36-1.56l-.39-1.62a1.26,1.26,0,0,1,.13-.91l2.26-4.11a1,1,0,0,0,.07-.15L92.75,58a1.14,1.14,0,0,1,.23-.38l2.58-2.91,1.16-2.87,6.48-3.12-1.58-1.18-.21-1a2.57,2.57,0,0,1,1.11-2.66l1.92-1.25a2.55,2.55,0,0,0,.7-3.62h0L103,35.64a2.56,2.56,0,0,0-1.45-1.09L99.66,34a1.92,1.92,0,0,1-.45-.18l-3.36-1.71a2.55,2.55,0,0,0-3.37,1l-1.37,2.33L91,35.6l-1.27,2.58a2.57,2.57,0,0,1-3.36,1.2l-.29-.14-.32-.17-2.36-1.52a2.56,2.56,0,0,1-.63-3.73l.88-1.12a1.93,1.93,0,0,1,.31-.33l2.81-2.53,1.48-1.44a2.36,2.36,0,0,1,.54-.4l.92-.52A2.55,2.55,0,0,0,91,24.61l-.23-.9a2.56,2.56,0,0,0-2.36-1.91l-.78,0a2.4,2.4,0,0,1-.69-.13l-1.38-.45a2.55,2.55,0,0,0-2.46.47l-1.65,1.41a2.56,2.56,0,0,1-1.72.6l-5.15-.13a2.24,2.24,0,0,1-.51-.07l-5.21-1.22a2.82,2.82,0,0,0-1,0l-7.76,1.18A2.78,2.78,0,0,1,59,23.29l-3.41-1.08a2.51,2.51,0,0,0-1.36-.05l-1.31.31A2.55,2.55,0,0,0,51.09,24L46,36.63a2.32,2.32,0,0,0-.17.78l-.54,7.8a1,1,0,0,1,0,.17v4.06h0a.59.59,0,0,0,1.1.35l2.46-4.66a2.84,2.84,0,0,1,.41-.57l.26-.26A2.56,2.56,0,0,1,53.7,45l3.23,7,1.88,1.46L57.66,62.5a1.24,1.24,0,0,0,.08.63l3.08,7.69a1.23,1.23,0,0,0,.38.52l7.59,6.17,3.33,4.13,6,.51,2.54.39,3,.27,2.59,1.26,2.55,1.07.5-.11a1.54,1.54,0,0,1,1.87,1.43l0,.71a1.46,1.46,0,0,1-.06.51l-.91,3.09a1.54,1.54,0,0,0,.2,1.3L92.36,95a1.56,1.56,0,0,0,.16.2l3.34,3.54a1.51,1.51,0,0,0,.73.43l1.91.5a1.53,1.53,0,0,1,1.13,1.26l.4,2.57.43,3.53,0,.17,1,4.3a.75.75,0,0,0,.05.16L102,113a1.49,1.49,0,0,0,.62.78l.59.38a1.52,1.52,0,0,0,1,.24l2-.18a1.53,1.53,0,0,0,1.3-2.08h0a1.51,1.51,0,0,1-.1-.42l-.07-.7a1.57,1.57,0,0,1,.17-.85l.87-1.7a1.61,1.61,0,0,1,.61-.63l1-.57a1.47,1.47,0,0,0,.5-.46l1.08-1.54a.64.64,0,0,1,.1-.13l1.41-1.62.13-.17,1.46-2.24a1.51,1.51,0,0,0,.21-.49l.5-2.19a1.5,1.5,0,0,1,.5-.82l3-2.62a1.62,1.62,0,0,0,.48-.75l1.86-6.68c0-.1.07-.19.11-.29l0-.07a1.4,1.4,0,0,0,.13-.36l.49-2.15a1.54,1.54,0,0,0-.9-1.77l-.09,0A14,14,0,0,0,114.12,81.84ZM46,46.64v0ZM64,73.89l.1,0Z"/><path class="cls-6" d="M130.75,10.36l-2,.52a1.59,1.59,0,0,1-1.36.51l-6.18-.68a1.74,1.74,0,0,0-.72.09L116,12.43a1.44,1.44,0,0,0-.42.23L113.83,14a1.6,1.6,0,0,0,.18,2.66l1,.6a.94.94,0,0,1,.18.12l5.23,4a1.58,1.58,0,0,1,.63,1.27l0,4.74a1.61,1.61,0,0,0,.53,1.19l5.66,5.15a1.6,1.6,0,0,0,2.56-.6l.13-.33a1.57,1.57,0,0,1,.61-.74l5.87-3.88.07,0,5.57-2.41a.42.42,0,0,0,.25-.43.42.42,0,0,1,.77-.28S146,28,145.42,29c0,.07-3.52,1.72-3.52,1.72a.42.42,0,0,0,.11.79s4.53.13,5.68,1c1.46,1.12,3.15,6.69,3.15,6.69a.41.41,0,0,1-.11.49l-.25.22-.08.06-.19.1a.42.42,0,0,0-.16.61l2,3a.54.54,0,0,1,.05.11l1.23,3.93h0l-2.27,2.6a.43.43,0,0,0-.1.36l1.1,5.54a.4.4,0,0,1-.06.32s-4,1.62-3.19,5.72c.43,2.22,6.76,3.57,9.5,4.05.1-1.4.15-2.81.15-4.24A62,62,0,0,0,130.75,10.36Z"/><path class="cls-7" d="M114.12,81.84h0a1.55,1.55,0,0,1-1.3-.48l-1.83-2a1.55,1.55,0,0,0-1-.49l-2.42-.13a1.46,1.46,0,0,1-.51-.12l-3.18-1.34a1.49,1.49,0,0,0-1.06,0L100,78.1a1.49,1.49,0,0,1-.47.07H96.4a1.53,1.53,0,0,0-1.11.46l-2.65,2.71a1.53,1.53,0,0,1-.83.44L90.3,82a1.52,1.52,0,0,1-1.32-.4l-.84-.79-1-2.4a.46.46,0,0,0-.52-.28l-2,.44a.46.46,0,0,1-.51-.64h0l.65-2.07,0-2.37-.7-.24L80.25,77h0a.8.8,0,0,1-1.34-.49l-.74-5.07a1.28,1.28,0,0,1,1-1.44L81,69.64a1.27,1.27,0,0,0,.89-.65h0a1.27,1.27,0,0,1,1.66-.56l2.9,1.33a1.19,1.19,0,0,0,.41.11l1.06.1a1.28,1.28,0,0,0,1.36-1.56l-.39-1.62a1.26,1.26,0,0,1,.13-.91l2.26-4.11a1,1,0,0,0,.07-.15L92.75,58a1.14,1.14,0,0,1,.23-.38l2.58-2.91,1.16-2.87,6.48-3.12-1.58-1.18-.21-1a2.57,2.57,0,0,1,1.11-2.66l1.92-1.25a2.55,2.55,0,0,0,.7-3.62h0L103,35.64a2.56,2.56,0,0,0-1.45-1.09L99.66,34a1.92,1.92,0,0,1-.45-.18l-3.36-1.71a2.55,2.55,0,0,0-3.37,1l-1.37,2.33L91,35.6l-1.27,2.58a2.57,2.57,0,0,1-3.36,1.2l-.29-.14-.32-.17-2.36-1.52a2.56,2.56,0,0,1-.63-3.73l.88-1.12a1.93,1.93,0,0,1,.31-.33l2.81-2.53,1.48-1.44a2.36,2.36,0,0,1,.54-.4l.92-.52A2.55,2.55,0,0,0,91,24.61l-.23-.9a2.56,2.56,0,0,0-2.36-1.91l-.78,0a2.4,2.4,0,0,1-.69-.13l-1.38-.45a2.55,2.55,0,0,0-2.46.47l-1.65,1.41a2.56,2.56,0,0,1-1.72.6l-5.15-.13a2.24,2.24,0,0,1-.51-.07l-5.21-1.22a2.82,2.82,0,0,0-1,0l-7.76,1.18A2.78,2.78,0,0,1,59,23.29l-3.41-1.08a2.51,2.51,0,0,0-1.36-.05l-1.31.31A2.55,2.55,0,0,0,51.09,24L46,36.63a2.32,2.32,0,0,0-.17.78l-.54,7.8a1,1,0,0,1,0,.17v4.06h0a.59.59,0,0,0,1.1.35l2.46-4.66a2.84,2.84,0,0,1,.41-.57l.26-.26A2.56,2.56,0,0,1,53.7,45l3.23,7,1.88,1.46L57.66,62.5a1.24,1.24,0,0,0,.08.63l3.08,7.69a1.23,1.23,0,0,0,.38.52l7.59,6.17,3.33,4.13,6,.51,2.54.39,3,.27,2.59,1.26,2.55,1.07.5-.11a1.54,1.54,0,0,1,1.87,1.43l0,.71a1.46,1.46,0,0,1-.06.51l-.91,3.09a1.54,1.54,0,0,0,.2,1.3L92.36,95a1.56,1.56,0,0,0,.16.2l3.34,3.54a1.51,1.51,0,0,0,.73.43l1.91.5a1.53,1.53,0,0,1,1.13,1.26l.4,2.57.43,3.53,0,.17,1,4.3a.75.75,0,0,0,.05.16L102,113a1.49,1.49,0,0,0,.62.78l.59.38a1.52,1.52,0,0,0,1,.24l2-.18a1.53,1.53,0,0,0,1.3-2.08h0a1.51,1.51,0,0,1-.1-.42l-.07-.7a1.57,1.57,0,0,1,.17-.85l.87-1.7a1.61,1.61,0,0,1,.61-.63l1-.57a1.47,1.47,0,0,0,.5-.46l1.08-1.54a.64.64,0,0,1,.1-.13l1.41-1.62.13-.17,1.46-2.24a1.51,1.51,0,0,0,.21-.49l.5-2.19a1.5,1.5,0,0,1,.5-.82l3-2.62a1.62,1.62,0,0,0,.48-.75l1.86-6.68c0-.1.07-.19.11-.29l0-.07a1.4,1.4,0,0,0,.13-.36l.49-2.15a1.54,1.54,0,0,0-.9-1.77l-.09,0A14,14,0,0,0,114.12,81.84ZM46,46.64v0ZM64,73.89l.1,0Z"/><path class="cls-8" d="M130.75,10.36l-2,.52a1.59,1.59,0,0,1-1.36.51l-6.18-.68a1.74,1.74,0,0,0-.72.09L116,12.43a1.44,1.44,0,0,0-.42.23L113.83,14a1.6,1.6,0,0,0,.18,2.66l1,.6a.94.94,0,0,1,.18.12l5.23,4a1.58,1.58,0,0,1,.63,1.27l0,4.74a1.61,1.61,0,0,0,.53,1.19l5.66,5.15a1.6,1.6,0,0,0,2.56-.6l.13-.33a1.57,1.57,0,0,1,.61-.74l5.87-3.88.07,0,5.57-2.41a.42.42,0,0,0,.25-.43.42.42,0,0,1,.77-.28S146,28,145.42,29c0,.07-3.52,1.72-3.52,1.72a.42.42,0,0,0,.11.79s4.53.13,5.68,1c1.46,1.12,3.15,6.69,3.15,6.69a.41.41,0,0,1-.11.49l-.25.22-.08.06-.19.1a.42.42,0,0,0-.16.61l2,3a.54.54,0,0,1,.05.11l1.23,3.93h0l-2.27,2.6a.43.43,0,0,0-.1.36l1.1,5.54a.4.4,0,0,1-.06.32s-4,1.62-3.19,5.72c.43,2.22,6.76,3.57,9.5,4.05.1-1.4.15-2.81.15-4.24A62,62,0,0,0,130.75,10.36Z"/></g><g id="Wind_turbines" data-name="Wind turbines"><path class="cls-9" d="M131.19,187.88H127l-4.17,154.9a2.9,2.9,0,0,0,2.9,3h6.76a2.91,2.91,0,0,0,2.91-3Z"/><path class="cls-6" d="M143,183.43l-5.92-.28-.58-1.74a3.15,3.15,0,0,0-2.72-2.14l-3.69-.32a3.15,3.15,0,0,0-3.12,1.8l-.89,1.9a3.79,3.79,0,1,0,.09,7.57l16.83-.79a3,3,0,0,0,0-6Z"/><path class="cls-10" d="M143,183.43l-5.92-.28-.58-1.74a3.15,3.15,0,0,0-2.72-2.14l-3.69-.32a3.15,3.15,0,0,0-3.12,1.8l-.89,1.9a3.79,3.79,0,1,0,.09,7.57l16.83-.79a3,3,0,0,0,0-6Z"/><path class="cls-11" d="M143,189.43a3,3,0,0,0,2.47-1.53l-15.78.21a4,4,0,1,0-3.52,2.11Z"/><path class="cls-6" d="M125.16,185.35h0a1.89,1.89,0,0,1-1.89-1.89V140.8a4.91,4.91,0,0,1,4.91-4.91h0a4.92,4.92,0,0,1,4.87,5.61l-6,42.22A1.9,1.9,0,0,1,125.16,185.35Z"/><path class="cls-12" d="M125.16,185.35h0a1.89,1.89,0,0,1-1.89-1.89V140.8a4.91,4.91,0,0,1,4.91-4.91h0a4.92,4.92,0,0,1,4.87,5.61l-6,42.22A1.9,1.9,0,0,1,125.16,185.35Z"/><path class="cls-13" d="M128.65,135.91l-.47,0a4.91,4.91,0,0,0-4.91,4.91v42.66a1.9,1.9,0,0,0,.34,1.08,1.86,1.86,0,0,0,1.3-1.52l6-42.23A4.93,4.93,0,0,0,128.65,135.91Z"/><path class="cls-6" d="M126.35,187.33h0a1.89,1.89,0,0,0,.62,2.6l36.33,22.35a4.92,4.92,0,0,0,6.76-1.61h0a4.91,4.91,0,0,0-2.23-7.09l-39.12-17A1.88,1.88,0,0,0,126.35,187.33Z"/><path class="cls-12" d="M126.35,187.33h0a1.89,1.89,0,0,0,.62,2.6l36.33,22.35a4.92,4.92,0,0,0,6.76-1.61h0a4.91,4.91,0,0,0-2.23-7.09l-39.12-17A1.88,1.88,0,0,0,126.35,187.33Z"/><path class="cls-13" d="M167.83,203.58l-39.12-17a1,1,0,1,0-1.07,1.55L164,210.49a4.1,4.1,0,1,0,3.86-6.91Z"/><path class="cls-6" d="M123.59,187.33h0a1.89,1.89,0,0,1-.62,2.6L86.64,212.28a4.92,4.92,0,0,1-6.76-1.61h0a4.91,4.91,0,0,1,2.23-7.09l39.12-17A1.88,1.88,0,0,1,123.59,187.33Z"/><path class="cls-12" d="M123.59,187.33h0a1.89,1.89,0,0,1-.62,2.6L86.64,212.28a4.92,4.92,0,0,1-6.76-1.61h0a4.91,4.91,0,0,1,2.23-7.09l39.12-17A1.88,1.88,0,0,1,123.59,187.33Z"/><path class="cls-13" d="M121.23,186.59l-39.12,17a4.91,4.91,0,0,0-2.69,6.1,4.91,4.91,0,0,0,6.14.81l36.32-22.35a1,1,0,1,0-.65-1.55Z"/><g class="cls-14"><path d="M125.64,236.75l0,.92c1.27.11,2.52.15,3.52.15s2.16,0,3.39-.14l0-.92c-1,.09-2.12.14-3.36.14S126.68,236.84,125.64,236.75Z"/><path d="M132.74,245.6l-.15-5.58a34.52,34.52,0,0,1-3.45.16c-1.38,0-2.56-.07-3.59-.17l-.15,5.58c1.25.1,2.52.15,3.74.15S131.54,245.69,132.74,245.6Z"/></g><path class="cls-9" d="M66.89,143.38H61.46L56.09,342.51a3.75,3.75,0,0,0,3.74,3.84h8.69a3.74,3.74,0,0,0,3.74-3.84Z"/><path class="cls-6" d="M82.05,137.67l-7.62-.36-.75-2.24a4,4,0,0,0-3.5-2.76l-4.74-.4a4,4,0,0,0-4,2.32l-1.14,2.43a4.87,4.87,0,1,0,.12,9.74l21.64-1a3.86,3.86,0,0,0,0-7.71Z"/><path class="cls-10" d="M82.05,137.67l-7.62-.36-.75-2.24a4,4,0,0,0-3.5-2.76l-4.74-.4a4,4,0,0,0-4,2.32l-1.14,2.43a4.87,4.87,0,1,0,.12,9.74l21.64-1a3.86,3.86,0,0,0,0-7.71Z"/><path class="cls-11" d="M82.05,145.38a3.84,3.84,0,0,0,3.17-2l-20.29.27a5.12,5.12,0,1,0-4.52,2.72Z"/><path class="cls-6" d="M59.14,140.13h0a2.43,2.43,0,0,1-2.43-2.43V82.87A6.32,6.32,0,0,1,63,76.55h0a6.32,6.32,0,0,1,6.26,7.21l-7.74,54.29A2.43,2.43,0,0,1,59.14,140.13Z"/><path class="cls-12" d="M59.14,140.13h0a2.43,2.43,0,0,1-2.43-2.43V82.87A6.32,6.32,0,0,1,63,76.55h0a6.32,6.32,0,0,1,6.26,7.21l-7.74,54.29A2.43,2.43,0,0,1,59.14,140.13Z"/><path class="cls-15" d="M63.63,76.58c-.19,0-.39,0-.6,0a6.32,6.32,0,0,0-6.32,6.32V137.7a2.43,2.43,0,0,0,.45,1.4,2.43,2.43,0,0,0,1.67-2l7.74-54.28A6.32,6.32,0,0,0,63.63,76.58Z"/><path class="cls-6" d="M60.68,142.68h0a2.42,2.42,0,0,0,.79,3.34l46.7,28.73a6.33,6.33,0,0,0,8.7-2.07h0a6.32,6.32,0,0,0-2.87-9.11L63.71,141.72A2.42,2.42,0,0,0,60.68,142.68Z"/><path class="cls-12" d="M60.68,142.68h0a2.42,2.42,0,0,0,.79,3.34l46.7,28.73a6.33,6.33,0,0,0,8.7-2.07h0a6.32,6.32,0,0,0-2.87-9.11L63.71,141.72A2.42,2.42,0,0,0,60.68,142.68Z"/><path class="cls-13" d="M114,163.57,63.71,141.72a2.45,2.45,0,0,0-2.49.34,2.43,2.43,0,0,0,1.12,1.66L109,172.45a6.31,6.31,0,0,0,8.67-2A6.32,6.32,0,0,0,114,163.57Z"/><path class="cls-6" d="M57.13,142.68h0a2.43,2.43,0,0,1-.79,3.34L9.63,174.75a6.32,6.32,0,0,1-8.69-2.07h0a6.32,6.32,0,0,1,2.86-9.11l50.3-21.85A2.43,2.43,0,0,1,57.13,142.68Z"/><path class="cls-12" d="M57.13,142.68h0a2.43,2.43,0,0,1-.79,3.34L9.63,174.75a6.32,6.32,0,0,1-8.69-2.07h0a6.32,6.32,0,0,1,2.86-9.11l50.3-21.85A2.43,2.43,0,0,1,57.13,142.68Z"/><path class="cls-13" d="M54.1,141.72,3.8,163.57a6.33,6.33,0,0,0-3.46,7.85,6.34,6.34,0,0,0,7.9,1l46.7-28.73a2.44,2.44,0,0,0,1.15-2A2.42,2.42,0,0,0,54.1,141.72Z"/><g class="cls-14"><path d="M59.77,206.21l0,1.18c1.64.14,3.24.2,4.52.2s2.78-.06,4.36-.19l0-1.18c-1.3.11-2.73.18-4.33.18S61.1,206.33,59.77,206.21Z"/><path d="M68.89,217.58l-.19-7.16c-1.28.12-2.75.2-4.44.2s-3.29-.09-4.61-.22l-.19,7.18c1.6.13,3.23.18,4.8.18S67.35,217.71,68.89,217.58Z"/></g></g><g id="Clipboard"><polygon class="cls-16" points="152.52 91.3 294.23 91.3 314.09 289.05 306.51 297.36 164.8 297.36 149.73 95.76 152.52 91.3"/><polygon class="cls-17" points="172.38 289.05 314.09 289.05 294.23 91.3 152.52 91.3 172.38 289.05"/><g class="cls-14"><path class="cls-18" d="M174.08,294.52H305.33a.75.75,0,0,0,0-1.5H174.08a.75.75,0,0,0,0,1.5Z"/></g><g class="cls-14"><path class="cls-18" d="M158.78,193q3.83,43.36,7.64,86.73L167.5,292c.08,1,1.58,1,1.5,0q-3.83-43.36-7.64-86.72L160.28,193c-.08-.95-1.58-1-1.5,0Z"/></g><path class="cls-6" d="M247.83,122.88H261a2.59,2.59,0,0,0,2.62-2.87l-.15-1.6a3.18,3.18,0,0,0-3.11-2.87H247.19a2.58,2.58,0,0,0-2.62,2.87l.14,1.6A3.19,3.19,0,0,0,247.83,122.88Z"/><path class="cls-6" d="M246.59,138h15.7a2.58,2.58,0,0,0,2.61-2.86l-.14-1.61a3.2,3.2,0,0,0-3.12-2.87H246a2.59,2.59,0,0,0-2.61,2.87l.14,1.61A3.18,3.18,0,0,0,246.59,138Z"/><path class="cls-6" d="M250.48,153.19h13.13a2.59,2.59,0,0,0,2.62-2.87l-.14-1.61a3.19,3.19,0,0,0-3.12-2.86H249.84a2.59,2.59,0,0,0-2.62,2.86l.14,1.61A3.2,3.2,0,0,0,250.48,153.19Z"/><path class="cls-6" d="M248,168.34h16.92a2.58,2.58,0,0,0,2.61-2.87l-.14-1.61A3.18,3.18,0,0,0,264.3,161H247.38a2.58,2.58,0,0,0-2.62,2.86l.14,1.61A3.19,3.19,0,0,0,248,168.34Z"/><path class="cls-6" d="M252.07,183.49h39.24a2.58,2.58,0,0,0,2.62-2.86l-.14-1.61a3.2,3.2,0,0,0-3.12-2.87H251.42a2.59,2.59,0,0,0-2.61,2.87l.14,1.61A3.19,3.19,0,0,0,252.07,183.49Z"/><path class="cls-6" d="M248.06,198.64h44.58a2.58,2.58,0,0,0,2.61-2.86l-.14-1.61A3.19,3.19,0,0,0,292,191.3H247.41a2.59,2.59,0,0,0-2.61,2.87l.14,1.61A3.19,3.19,0,0,0,248.06,198.64Z"/><path class="cls-6" d="M253.22,213.8H294a2.59,2.59,0,0,0,2.62-2.87l-.14-1.61a3.19,3.19,0,0,0-3.12-2.86H252.58a2.58,2.58,0,0,0-2.61,2.86l.14,1.61A3.19,3.19,0,0,0,253.22,213.8Z"/><g class="cls-19"><path class="cls-18" d="M247.83,122.88H261a2.59,2.59,0,0,0,2.62-2.87l-.15-1.6a3.18,3.18,0,0,0-3.11-2.87H247.19a2.58,2.58,0,0,0-2.62,2.87l.14,1.6A3.19,3.19,0,0,0,247.83,122.88Z"/><path class="cls-18" d="M246.59,138h15.7a2.58,2.58,0,0,0,2.61-2.86l-.14-1.61a3.2,3.2,0,0,0-3.12-2.87H246a2.59,2.59,0,0,0-2.61,2.87l.14,1.61A3.18,3.18,0,0,0,246.59,138Z"/><path class="cls-18" d="M250.48,153.19h13.13a2.59,2.59,0,0,0,2.62-2.87l-.14-1.61a3.19,3.19,0,0,0-3.12-2.86H249.84a2.59,2.59,0,0,0-2.62,2.86l.14,1.61A3.2,3.2,0,0,0,250.48,153.19Z"/><path class="cls-18" d="M248,168.34h16.92a2.58,2.58,0,0,0,2.61-2.87l-.14-1.61A3.18,3.18,0,0,0,264.3,161H247.38a2.58,2.58,0,0,0-2.62,2.86l.14,1.61A3.19,3.19,0,0,0,248,168.34Z"/><path class="cls-18" d="M252.07,183.49h39.24a2.58,2.58,0,0,0,2.62-2.86l-.14-1.61a3.2,3.2,0,0,0-3.12-2.87H251.42a2.59,2.59,0,0,0-2.61,2.87l.14,1.61A3.19,3.19,0,0,0,252.07,183.49Z"/><path class="cls-18" d="M248.06,198.64h44.58a2.58,2.58,0,0,0,2.61-2.86l-.14-1.61A3.19,3.19,0,0,0,292,191.3H247.41a2.59,2.59,0,0,0-2.61,2.87l.14,1.61A3.19,3.19,0,0,0,248.06,198.64Z"/><path class="cls-18" d="M253.22,213.8H294a2.59,2.59,0,0,0,2.62-2.87l-.14-1.61a3.19,3.19,0,0,0-3.12-2.86H252.58a2.58,2.58,0,0,0-2.61,2.86l.14,1.61A3.19,3.19,0,0,0,253.22,213.8Z"/></g><path class="cls-20" d="M221.79,122.88h9.33a2.58,2.58,0,0,0,2.61-2.87l-.14-1.6a3.18,3.18,0,0,0-3.11-2.87h-9.33a2.59,2.59,0,0,0-2.62,2.87l.15,1.6A3.18,3.18,0,0,0,221.79,122.88Z"/><path class="cls-20" d="M223.12,138h9.32a2.58,2.58,0,0,0,2.62-2.86l-.14-1.61a3.2,3.2,0,0,0-3.12-2.87h-9.32a2.59,2.59,0,0,0-2.62,2.87l.14,1.61A3.19,3.19,0,0,0,223.12,138Z"/><path class="cls-20" d="M224.44,153.19h9.33a2.6,2.6,0,0,0,2.62-2.87l-.14-1.61a3.19,3.19,0,0,0-3.12-2.86H223.8a2.58,2.58,0,0,0-2.61,2.86l.14,1.61A3.19,3.19,0,0,0,224.44,153.19Z"/><path class="cls-20" d="M225.77,168.34h9.33a2.58,2.58,0,0,0,2.61-2.87l-.14-1.61a3.19,3.19,0,0,0-3.12-2.86h-9.32a2.58,2.58,0,0,0-2.62,2.86l.14,1.61A3.19,3.19,0,0,0,225.77,168.34Z"/><path class="cls-20" d="M227.09,183.49h9.33a2.59,2.59,0,0,0,2.62-2.86L238.9,179a3.2,3.2,0,0,0-3.12-2.87h-9.33a2.59,2.59,0,0,0-2.61,2.87l.14,1.61A3.18,3.18,0,0,0,227.09,183.49Z"/><path class="cls-20" d="M228.42,198.64h9.33a2.58,2.58,0,0,0,2.61-2.86l-.14-1.61a3.19,3.19,0,0,0-3.11-2.87h-9.33a2.59,2.59,0,0,0-2.62,2.87l.14,1.61A3.19,3.19,0,0,0,228.42,198.64Z"/><path class="cls-20" d="M229.75,213.8h9.32a2.59,2.59,0,0,0,2.62-2.87l-.14-1.61a3.19,3.19,0,0,0-3.12-2.86H229.1a2.58,2.58,0,0,0-2.61,2.86l.14,1.61A3.2,3.2,0,0,0,229.75,213.8Z"/><g class="cls-19"><path class="cls-18" d="M221.79,122.88h9.33a2.58,2.58,0,0,0,2.61-2.87l-.14-1.6a3.18,3.18,0,0,0-3.11-2.87h-9.33a2.59,2.59,0,0,0-2.62,2.87l.15,1.6A3.18,3.18,0,0,0,221.79,122.88Z"/><path class="cls-18" d="M223.12,138h9.32a2.58,2.58,0,0,0,2.62-2.86l-.14-1.61a3.2,3.2,0,0,0-3.12-2.87h-9.32a2.59,2.59,0,0,0-2.62,2.87l.14,1.61A3.19,3.19,0,0,0,223.12,138Z"/><path class="cls-18" d="M224.44,153.19h9.33a2.6,2.6,0,0,0,2.62-2.87l-.14-1.61a3.19,3.19,0,0,0-3.12-2.86H223.8a2.58,2.58,0,0,0-2.61,2.86l.14,1.61A3.19,3.19,0,0,0,224.44,153.19Z"/><path class="cls-18" d="M225.77,168.34h9.33a2.58,2.58,0,0,0,2.61-2.87l-.14-1.61a3.19,3.19,0,0,0-3.12-2.86h-9.32a2.58,2.58,0,0,0-2.62,2.86l.14,1.61A3.19,3.19,0,0,0,225.77,168.34Z"/><path class="cls-18" d="M227.09,183.49h9.33a2.59,2.59,0,0,0,2.62-2.86L238.9,179a3.2,3.2,0,0,0-3.12-2.87h-9.33a2.59,2.59,0,0,0-2.61,2.87l.14,1.61A3.18,3.18,0,0,0,227.09,183.49Z"/><path class="cls-18" d="M228.42,198.64h9.33a2.58,2.58,0,0,0,2.61-2.86l-.14-1.61a3.19,3.19,0,0,0-3.11-2.87h-9.33a2.59,2.59,0,0,0-2.62,2.87l.14,1.61A3.19,3.19,0,0,0,228.42,198.64Z"/><path class="cls-18" d="M229.75,213.8h9.32a2.59,2.59,0,0,0,2.62-2.87l-.14-1.61a3.19,3.19,0,0,0-3.12-2.86H229.1a2.58,2.58,0,0,0-2.61,2.86l.14,1.61A3.2,3.2,0,0,0,229.75,213.8Z"/></g><path class="cls-20" d="M182,233.14h44a2.59,2.59,0,0,0,2.61-2.87l-.14-1.61a3.18,3.18,0,0,0-3.11-2.86h-44a2.59,2.59,0,0,0-2.62,2.86l.14,1.61A3.2,3.2,0,0,0,182,233.14Z"/><path class="cls-20" d="M180.72,248.29h46.59a2.58,2.58,0,0,0,2.62-2.87l-.14-1.61a3.19,3.19,0,0,0-3.12-2.86h-46.6a2.58,2.58,0,0,0-2.61,2.86l.14,1.61A3.19,3.19,0,0,0,180.72,248.29Z"/><path class="cls-20" d="M184.6,263.44h44a2.58,2.58,0,0,0,2.61-2.86l-.14-1.61A3.18,3.18,0,0,0,228,256.1H184a2.58,2.58,0,0,0-2.61,2.87l.14,1.61A3.18,3.18,0,0,0,184.6,263.44Z"/><path class="cls-20" d="M182.14,278.59H230a2.58,2.58,0,0,0,2.61-2.86l-.14-1.61a3.2,3.2,0,0,0-3.12-2.87H181.5a2.59,2.59,0,0,0-2.62,2.87l.14,1.61A3.19,3.19,0,0,0,182.14,278.59Z"/><g class="cls-19"><path class="cls-18" d="M182,233.14h44a2.59,2.59,0,0,0,2.61-2.87l-.14-1.61a3.18,3.18,0,0,0-3.11-2.86h-44a2.59,2.59,0,0,0-2.62,2.86l.14,1.61A3.2,3.2,0,0,0,182,233.14Z"/><path class="cls-18" d="M180.72,248.29h46.59a2.58,2.58,0,0,0,2.62-2.87l-.14-1.61a3.19,3.19,0,0,0-3.12-2.86h-46.6a2.58,2.58,0,0,0-2.61,2.86l.14,1.61A3.19,3.19,0,0,0,180.72,248.29Z"/><path class="cls-18" d="M184.6,263.44h44a2.58,2.58,0,0,0,2.61-2.86l-.14-1.61A3.18,3.18,0,0,0,228,256.1H184a2.58,2.58,0,0,0-2.61,2.87l.14,1.61A3.18,3.18,0,0,0,184.6,263.44Z"/><path class="cls-18" d="M182.14,278.59H230a2.58,2.58,0,0,0,2.61-2.86l-.14-1.61a3.2,3.2,0,0,0-3.12-2.87H181.5a2.59,2.59,0,0,0-2.62,2.87l.14,1.61A3.19,3.19,0,0,0,182.14,278.59Z"/></g><path d="M214.8,95l1.42-.29-7.11-24.3a7.12,7.12,0,0,1,.87-6.27,6.49,6.49,0,0,1,5.42-2.59,10.4,10.4,0,0,1,9.89,9l2.25,24.3H229l-2.25-24.3a12.08,12.08,0,0,0-11.49-10.47,7.89,7.89,0,0,0-6.51,3.13,8.53,8.53,0,0,0-1.07,7.49Z"/><path class="cls-16" d="M204.34,99H245l-1.62-18.51a4.35,4.35,0,0,0-4.25-3.91H206.29a3.53,3.53,0,0,0-3.57,3.91Z"/><path class="cls-11" d="M204.34,99H245l-1.62-18.51a4.35,4.35,0,0,0-4.25-3.91H206.29a3.53,3.53,0,0,0-3.57,3.91Z"/><path d="M218.91,94.92l1.45-.15-4.55-24.3a7.61,7.61,0,0,1,1.51-6.26,7.45,7.45,0,0,1,5.79-2.67,8.92,8.92,0,0,1,6.25,2.67A8.81,8.81,0,0,1,232,70.47l-.3,24.3,1.47.15.31-24.3A10.66,10.66,0,0,0,223,60.07a8.75,8.75,0,0,0-6.84,3.16,9,9,0,0,0-1.78,7.39Z"/><g class="cls-21"><path class="cls-18" d="M218.91,94.92l1.45-.15-4.55-24.3a7.61,7.61,0,0,1,1.51-6.26,7.45,7.45,0,0,1,5.79-2.67,8.92,8.92,0,0,1,6.25,2.67A8.81,8.81,0,0,1,232,70.47l-.3,24.3,1.47.15.31-24.3A10.66,10.66,0,0,0,223,60.07a8.75,8.75,0,0,0-6.84,3.16,9,9,0,0,0-1.78,7.39Z"/></g><path class="cls-6" d="M203,101.78h43.73A1.25,1.25,0,0,0,248,100.4L247.82,98a1.53,1.53,0,0,0-1.5-1.37H202.59A1.24,1.24,0,0,0,201.34,98l.21,2.39A1.53,1.53,0,0,0,203,101.78Z"/><path class="cls-22" d="M293.45,233.12H235.18l1,11.48.09,1,.91,10.48.09,1,.92,10.48.08,1,1,11.48H309l-1-11.48-.09-1L307,257.08l-.08-1L306,245.6l-.09-1-1-11.48Zm1,23H284l-.91-10.48h10.41Zm-11.45,0H272.57l-.92-10.48h10.41Zm-11.45,0H261.12l-.92-10.48h10.42Zm-11.44,0H249.67l-.91-10.48h10.41Zm-10.33,1h10.41l.92,10.48H250.68Zm11.45,0h10.41l.92,10.48H262.12Zm11.44,0h10.42l.91,10.48H273.57Zm11.45,0h10.41l.92,10.48H285Zm8.4-23,.92,10.48H283l-.92-10.48Zm-11.44,0L282,244.6H271.56l-.91-10.48Zm-11.45,0,.92,10.48H260.12l-.92-10.48Zm-11.45,0,.92,10.48H248.67l-.92-10.48Zm-21.89,0h10.45l.91,10.48H237.19Zm1,11.48h10.44l.92,10.48H238.19Zm1,11.48h10.45l.91,10.48H239.2Zm1.92,22-.92-10.48h10.45l.92,10.48Zm11.48,0-.92-10.48h10.42l.91,10.48Zm11.45,0-.92-10.48h10.41l.92,10.48Zm11.45,0-.92-10.48h10.41L285,279ZM286,279l-.91-10.48h10.41l.91,10.48Zm21.9,0H297.47l-.92-10.48H307Zm-1-11.48H296.46l-.91-10.48H306Zm-1-11.48H295.46l-.92-10.48H305ZM294.46,244.6l-.92-10.48H304l.91,10.48Z"/><polygon class="cls-6" points="254.14 279.2 246.74 279.2 245.74 267.89 253.13 267.89 254.14 279.2"/><polygon class="cls-20" points="268.94 279.2 261.54 279.2 259.53 256.58 266.93 256.58 268.94 279.2"/><polygon class="cls-6" points="283.74 279.2 276.34 279.2 275.02 264.39 282.42 264.39 283.74 279.2"/><polygon class="cls-20" points="298.54 279.2 291.14 279.2 288.36 247.94 295.76 247.94 298.54 279.2"/><path class="cls-6" d="M244.53,254.34h0a1.82,1.82,0,0,1,.55-2.6l16.71-9.41L277,247.27l15.2-10.12a2,2,0,0,1,2.71.61h0a1.86,1.86,0,0,1-.37,2.65l-16.66,11.08-15.32-5-15.31,8.62A2,2,0,0,1,244.53,254.34Z"/><path class="cls-6" d="M286.88,241s8.57-8.07-1.87-11.48c0,0-4.73,9.14.48,11.48,0,0,2.51-4.19,1.05-8.56C286.54,232.39,289.4,235.65,286.88,241Z"/><path class="cls-6" d="M293.32,241.15s7.24-9.28,11.56.85c0,0-8.65,5.54-11.44.54,0,0,3.93-2.88,8.4-1.82C301.84,240.72,298.35,238.16,293.32,241.15Z"/><path class="cls-6" d="M195.74,155.18a16.65,16.65,0,0,0,16.85-18.46,20.55,20.55,0,0,0-20.08-18.46,17.85,17.85,0,0,0-2.44.18,18.56,18.56,0,0,0-2.48-.18,16.64,16.64,0,0,0-16.84,18.46h11.42a10.75,10.75,0,0,1,8.47-11.7,13.35,13.35,0,0,1,10.52,11.7,10.77,10.77,0,0,1-10.91,11.95l.57,6.51Z"/><path class="cls-5" d="M193.8,157.3l-.57-6.5a13.31,13.31,0,0,1-13-12H168.81a20.54,20.54,0,0,0,20.07,18.46Z"/><path class="cls-20" d="M195.74,155.18a16.65,16.65,0,0,0,16.85-18.46,20.55,20.55,0,0,0-20.08-18.46,17.85,17.85,0,0,0-2.44.18,18.56,18.56,0,0,0-2.48-.18,16.64,16.64,0,0,0-16.84,18.46h11.42a10.75,10.75,0,0,1,8.47-11.7,13.35,13.35,0,0,1,10.52,11.7,10.77,10.77,0,0,1-10.91,11.95l.57,6.51Z"/><path class="cls-20" d="M193.8,157.3l-.57-6.5a13.31,13.31,0,0,1-13-12H168.81a20.54,20.54,0,0,0,20.07,18.46Z"/><path class="cls-23" d="M182.17,136.72a10.78,10.78,0,0,1,10.91-12,13.3,13.3,0,0,1,13,12,10.77,10.77,0,0,1-10.91,11.95l.57,6.51a16.65,16.65,0,0,0,16.85-18.46,20.55,20.55,0,0,0-20.08-18.46,16.64,16.64,0,0,0-16.84,18.46Z"/><path class="cls-5" d="M173.73,138.84A20.54,20.54,0,0,0,193.8,157.3l-.57-6.5a13.31,13.31,0,0,1-13-12Z"/><path class="cls-8" d="M173.73,138.84A20.54,20.54,0,0,0,193.8,157.3l-.57-6.5a13.31,13.31,0,0,1-13-12Z"/><path class="cls-6" d="M192.57,172.54c-.19-2.24-.26-3-.46-5.29h-4.92a16.82,16.82,0,0,0-12.58,5.4l5,4.6h4.92a10.73,10.73,0,0,1,5.81-3.26c.13,1.46.21,2.43.43,4.88a13.32,13.32,0,0,1,13,12H215.2a20.55,20.55,0,0,0-20.08-18.46Z"/><path class="cls-6" d="M200.66,211.42A16.65,16.65,0,0,0,217.51,193H206.08a10.73,10.73,0,0,1-8.14,11.61l-.16-1.78a13.32,13.32,0,0,1-13-12,11,11,0,0,1,2.76-8.46l-5-4.59h-4.92a17,17,0,0,0-4.27,13.05,20.56,20.56,0,0,0,20.08,18.46l2.11-.23.2,2.36Z"/><path class="cls-20" d="M192.57,172.54c-.19-2.24-.26-3-.46-5.29h-4.92a16.82,16.82,0,0,0-12.58,5.4l5,4.6h4.92a10.73,10.73,0,0,1,5.81-3.26c.13,1.46.21,2.43.43,4.88a13.32,13.32,0,0,1,13,12H215.2a20.55,20.55,0,0,0-20.08-18.46Z"/><path class="cls-20" d="M200.66,211.42A16.65,16.65,0,0,0,217.51,193H206.08a10.73,10.73,0,0,1-8.14,11.61l-.16-1.78a13.32,13.32,0,0,1-13-12,11,11,0,0,1,2.76-8.46l-5-4.59h-4.92a17,17,0,0,0-4.27,13.05,20.56,20.56,0,0,0,20.08,18.46l2.11-.23.2,2.36Z"/><path class="cls-5" d="M211,193a10.77,10.77,0,0,1-10.91,11.95l.57,6.51A16.65,16.65,0,0,0,217.51,193Z"/><path class="cls-24" d="M211,193a10.77,10.77,0,0,1-10.91,11.95l.57,6.51A16.65,16.65,0,0,0,217.51,193Z"/><path class="cls-5" d="M195.12,172.37a20.55,20.55,0,0,1,20.08,18.46h-6.51a13.32,13.32,0,0,0-13-12C195.41,175.63,195.35,175,195.12,172.37Z"/><path class="cls-5" d="M187.54,182.37a11,11,0,0,0-2.76,8.46,13.32,13.32,0,0,0,13,12l.57,6.5a20.55,20.55,0,0,1-20.07-18.46,16.93,16.93,0,0,1,4.26-13.05Z"/><path class="cls-5" d="M184.53,177.25l-5-4.6a16.82,16.82,0,0,1,12.58-5.4c.23,2.61.29,3.26.57,6.5A10.93,10.93,0,0,0,184.53,177.25Z"/><path class="cls-8" d="M184.53,177.25l-5-4.6a16.82,16.82,0,0,1,12.58-5.4c.23,2.61.29,3.26.57,6.5A10.93,10.93,0,0,0,184.53,177.25Z"/></g><g id="Character"><polygon class="cls-25" points="326.81 330.57 322.42 341.53 316.08 339.92 319.25 327.73 326.81 330.57"/><polygon class="cls-25" points="368.86 328.57 367.01 340.23 360.48 340.08 360.86 327.49 368.86 328.57"/><path class="cls-6" d="M308.62,346.13c5.81.08,6.58,0,9.84-.06,2.8-.06,3.46.3,5.7.28,1.88,0,1.84-1.81,1.29-3.88-.28-1-.69-3.24-1.07-4.92l-7.54-2.77c-1.23,2.27-4.93,7.51-8.21,7.91C305.5,343.06,306.31,346.09,308.62,346.13Z"/><path class="cls-20" d="M335.44,183.84s-4.15,61-6.73,84.22A416.19,416.19,0,0,1,316,335.2c1.16,1.06,6.1,1.58,8.89,1.33,0,0,20.17-34.52,18.27-64.76C362.63,218.52,356.75,186,356.75,186Z"/><path class="cls-26" d="M347.14,254c2.42-17.25-.82-46.94-.82-46.94l1.63-9.7,3.56,2.92,6.18,6.05C356.87,217.3,354.17,233,347.14,254Z"/><path class="cls-6" d="M352.72,345.61c5.81-.13,6.57-.23,9.83-.41,2.79-.16,3.47.18,5.71.08,1.88-.08,1.77-1.87,1.15-3.93-.31-1-.8-3.21-1.24-4.88l-8.52-.44c-1.15,2.31-3.78,5.63-7,6.13S350.41,345.65,352.72,345.61Z"/><path class="cls-20" d="M343.22,186.78s9.09,56.8,13.13,79.85c4.24,24.2,3.67,54.26,3.07,70.16,1.37.76,6.29.1,8.95-.79,0,0,9.9-43.26,4.55-67.32,6.48-56.34-6.75-78.76-6.75-78.76Z"/><path class="cls-6" d="M340.15,144.5c-1.67,5.53-7.66,16.5-17.78,19,0,0,1.31,5.24-3.12,4.75,0,0,10.28,3.44,17.29-2.93,10.67-9.7,13-22.93,8.29-24.87C341.75,139.21,340.63,142.88,340.15,144.5Z"/><path class="cls-26" d="M340.15,144.5c-1.67,5.53-7.78,16.5-17.78,19,0,0,1.31,5.24-3.12,4.75,0,0,10.28,3.44,17.29-2.93,10.67-9.7,13-22.93,8.29-24.87C341.75,139.21,340.63,142.88,340.15,144.5Z"/><path class="cls-20" d="M335.06,151.27c-.73,3,.29,8.53.36,16-.06,6.28.67,10.53-.87,22.16l32.93,1.24c-.2-9,.62-18.89,7.35-38.06a8,8,0,0,0-5.9-10.39c-1.26-.3-2.59-.59-4-.84a103.78,103.78,0,0,0-14.51-2c-1.58-.07-3.23.05-4.8-.1C343.22,139.08,336.51,145.34,335.06,151.27Z"/><path class="cls-20" d="M351.36,108s-5.72.13-2.44,10l3.7-6.47Z"/><path class="cls-25" d="M364.15,126.49c-1.47,4.36-3.41,12.45-.57,15.88,0,0-4.33-1.23-13.86,3.15-2.49-4.14-.44-5.08-.44-5.08,5.28-.5,5.62-4.23,5.17-7.83Z"/><path class="cls-11" d="M360.19,129l-5.74,3.62a14.62,14.62,0,0,1,.13,2.54c2,0,4.95-1.75,5.41-3.72A6.59,6.59,0,0,0,360.19,129Z"/><path class="cls-25" d="M368.92,115.93c-1,7.46-1.28,10.63-5.31,14.39-6.06,5.66-14.92,3.29-16.14-4.2-1.1-6.74.74-17.8,8.22-20.63A9.63,9.63,0,0,1,368.92,115.93Z"/><path class="cls-20" d="M357.28,119.08c0,.59-.4,1.07-.78,1.06s-.64-.5-.59-1.09.41-1.07.78-1.06S357.34,118.48,357.28,119.08Z"/><path class="cls-20" d="M349.9,118.69c0,.59-.4,1.07-.78,1.06s-.65-.5-.59-1.09.4-1.07.78-1.06S350,118.09,349.9,118.69Z"/><path class="cls-20" d="M349.48,117.63l-1.36-.44S348.74,118.32,349.48,117.63Z"/><path class="cls-27" d="M352,120a17.45,17.45,0,0,1-2.42,3.75,2.38,2.38,0,0,0,2,.45Z"/><path class="cls-20" d="M358.71,115.38a.31.31,0,0,1-.24-.1,2.59,2.59,0,0,0-2.31-.75.31.31,0,0,1-.39-.25.36.36,0,0,1,.27-.42,3.18,3.18,0,0,1,2.93.91.36.36,0,0,1,0,.49A.39.39,0,0,1,358.71,115.38Z"/><path class="cls-20" d="M347.23,114.71a.33.33,0,0,1-.32-.53,3.68,3.68,0,0,1,2.78-1.67.32.32,0,0,1,.32.35.37.37,0,0,1-.36.35,2.94,2.94,0,0,0-2.19,1.34A.34.34,0,0,1,347.23,114.71Z"/><path class="cls-20" d="M356.86,118l-1.36-.44S356.12,118.71,356.86,118Z"/><path class="cls-20" d="M350.77,126.39a33.87,33.87,0,0,1,6.52-.36,4.09,4.09,0,0,1-4.23,2.63A2.12,2.12,0,0,1,350.77,126.39Z"/><path class="cls-28" d="M354.27,127.5a4.63,4.63,0,0,0-2.72.7,2.46,2.46,0,0,0,1.51.45,4.53,4.53,0,0,0,2.71-.69A2.47,2.47,0,0,0,354.27,127.5Z"/><path class="cls-18" d="M351,126.35c.11.31.23.63.7.73a24.16,24.16,0,0,0,4.27-.34,1.44,1.44,0,0,0,1.12-.71A37.51,37.51,0,0,0,351,126.35Z"/><path class="cls-20" d="M367.06,121.24s-5-1.7-7.23-11.41c0,0-1.33,2.93,1.29,8.3,0,0-6.08-2.07-5.64-8.21,0,0-4.78,3-1.35,7.42,0,0-7.82-4.47-2.79-10.33,0,0-.23-11.37,10.82-4.48,0,0,27.06,8.56,4.13,24.53Z"/><path class="cls-25" d="M370.92,122.13a6,6,0,0,1-3.76,2.68c-2,.41-2.76-1.58-2-3.54.68-1.76,2.55-4.1,4.46-3.63S372,120.42,370.92,122.13Z"/><path class="cls-20" d="M355.35,103.92s-10,1-8,8c0,0,1.12-4,7.15-3.65Z"/><path class="cls-20" d="M355.35,103.92a4.12,4.12,0,0,1-4.93-3.49s-3.53,6.92,3.12,5.41Z"/><path class="cls-20" d="M364.49,142.55s-2.08-1.4-2.12-5.34a1,1,0,0,0-1.2-1,13.77,13.77,0,0,1-6.46-.33,1,1,0,0,0-1.28.77c-.26,1.34-1.08,3.33-3.61,3.35l-4,1.27,1.84,5.46,5.1.58,10.09-1.21,2.42-2.87Z"/><path class="cls-16" d="M363.74,140.13a2.2,2.2,0,0,0-1.9.43c-2.33,1.9-8.44,8.25-10.57,24-2.65,19.64,6.42,41.73,6.42,41.73l16.82-4.13s-7-10.21-6.06-20.63,9.52-30.79,7.41-35.08C374.13,143,366.49,140.8,363.74,140.13Z"/><path class="cls-24" d="M363.74,140.13a2.2,2.2,0,0,0-1.9.43c-2.33,1.9-8.44,8.25-10.57,24-2.65,19.64,6.42,41.73,6.42,41.73l16.82-4.13s-7-10.21-6.06-20.63,9.52-30.79,7.41-35.08C374.13,143,366.49,140.8,363.74,140.13Z"/><path class="cls-11" d="M364,141.56s-.8,7.27-2.18,9.18c-.53.73-3.25,1-3.06,1.88.23,1.06,3.86-.46,4.29.53,1.73,4-11.31,14-11.31,14s10.54-9.43,9-12.88c-.59-1.29-5.33.45-5.61-.94-.31-1.6,4.5-2.19,5.54-3.44C362.09,148.21,364,141.56,364,141.56Z"/><path class="cls-29" d="M351,139.06c.34.07.36.13.07.32-2.24,1.45-7.32,7.34-9.2,31.23-2.44,31-6.74,34-6.74,34l-4.29-1.41s1.69-5.59,2.65-18.52c.37-5-.17-14.09-.13-22.62C333.42,149,340.06,136.86,351,139.06Z"/><path class="cls-24" d="M351,139.06c.34.07.36.13.07.32-2.24,1.45-7.32,7.34-9.2,31.23-2.44,31-6.74,34-6.74,34l-4.29-1.41s1.69-5.59,2.65-18.52c.37-5-.17-14.09-.13-22.62C333.42,149,339.93,136.86,351,139.06Z"/><path class="cls-11" d="M347.48,140.76s-6.79,5.61-6.75,8.27c0,.91,2.71,1.89,2.4,2.74-.42,1.15-4.13-.24-4.82.77-1.71,2.5,2.6,12.85,2.6,12.85s-6.29-11-4.5-13.93c.52-.85,3.62.39,3.95-.55.21-.62-1.86-1.25-1.84-1.91C338.62,146,347.48,140.76,347.48,140.76Z"/><path class="cls-20" d="M354.22,183.29l-36.82-29a30,30,0,1,0-2.42,2.89l34.92,31.3a3.37,3.37,0,0,0,4.82-.34h0A3.37,3.37,0,0,0,354.22,183.29ZM276,156.9a26.82,26.82,0,1,1,37.79-3.26A26.8,26.8,0,0,1,276,156.9Z"/><path class="cls-8" d="M354.22,183.29l-36.82-29a30,30,0,1,0-2.42,2.89l34.92,31.3a3.37,3.37,0,0,0,4.82-.34h0A3.37,3.37,0,0,0,354.22,183.29ZM276,156.9a26.82,26.82,0,1,1,37.79-3.26A26.8,26.8,0,0,1,276,156.9Z"/><path class="cls-25" d="M350.14,177.94a47.34,47.34,0,0,0,4.67,2.55,40.49,40.49,0,0,0,5,2,23.26,23.26,0,0,0,5.77,1.11,12.59,12.59,0,0,0,3.59-.33,8.12,8.12,0,0,0,4.12-2.5,3.37,3.37,0,0,0,.38-.55l.12-.24a30.14,30.14,0,0,0,2.38-5.73,33.69,33.69,0,0,0,1.22-6,36.89,36.89,0,0,0,.2-6c-.05-1-.14-2-.27-3-.06-.5-.13-1-.22-1.52l-.15-.77-.2-.87A4.49,4.49,0,0,0,368,157.8l.07.38.07.44.09.55.16,1.16c.09.77.16,1.57.2,2.36a41.46,41.46,0,0,1,0,4.73,28.69,28.69,0,0,1-1.81,8.39,4.6,4.6,0,0,1-1.18.24,19.21,19.21,0,0,1-4.21-.17c-1.51-.2-3.07-.5-4.64-.84s-3.18-.76-4.7-1.15l-.1,0a2.25,2.25,0,0,0-2.74,1.62A2.27,2.27,0,0,0,350.14,177.94Z"/><path class="cls-25" d="M344.35,171l2-.51a2.64,2.64,0,0,1,2.27.54l3.06,2.44c1.22,1,2.6,3.74,1.93,4.86-1.78,3-7.87-.25-7.87-.25l-1.34-.24a2.29,2.29,0,0,1-1.94-2.37l.22-2.6A2.11,2.11,0,0,1,344.35,171Z"/><path class="cls-30" d="M370.68,143.93a3.31,3.31,0,0,1,3.57.42c2.47,2,6.37,7.5,4.52,22.68-2.63,21.56-13.49,18.54-25.78,12.71l.75-5.66s8.41,2.37,12.8,1.47a29.39,29.39,0,0,0,1.84-11.34C368.06,158.68,365.09,146.92,370.68,143.93Z"/><path class="cls-26" d="M370.68,143.93a3.31,3.31,0,0,1,3.57.42c2.47,2,6.37,7.5,4.52,22.68-2.63,21.56-13.49,18.54-25.78,12.71l.75-5.66s8.41,2.37,12.8,1.47a29.39,29.39,0,0,0,1.84-11.34C368.06,158.68,365.09,146.92,370.68,143.93Z"/><path class="cls-25" d="M313.2,162.64l.58,2.14a2.83,2.83,0,0,0,1.57,1.83l3.61,1.63a2.23,2.23,0,0,0,.63.16,3.05,3.05,0,0,0,2.86-4.62,21.73,21.73,0,0,0-2.5-3.33l-.86-1.12a2.21,2.21,0,0,0-3-.62L314,160.19A2.26,2.26,0,0,0,313.2,162.64Z"/><polygon class="cls-16" points="293.38 123.28 288.56 131.55 281.15 127.11 287.33 116.36 299.68 116.36 293.38 123.28"/><path class="cls-16" d="M304.12,141.18l-4.82-8.39,7.54-4.2,6.3,10.74c-2,3.46-4.33,7.41-6.18,10.75Z"/><path class="cls-16" d="M283.25,141.56h9.51v8.64H280.29c-2-3.33-4.33-7.41-6.18-10.74Z"/><path class="cls-16" d="M299.68,116.36l3.7,6.3,1.86-1a.58.58,0,0,1,.79.79l-3.88,6.74a.81.81,0,0,1-.75.41l-7.13-.36a.58.58,0,0,1-.25-1.09l1.58-.87c-.49-1-1.36-2.47-2.22-4Z"/><path class="cls-16" d="M307,150.08h-7.28l-.07,2.27a.58.58,0,0,1-1.08.27l-3.92-6.8a.81.81,0,0,1,0-.85L298.5,139a.58.58,0,0,1,1.06.33c0,.57,0,1.14,0,1.69,1.11.12,2.84.12,4.57.12Z"/><path class="cls-16" d="M274.11,139.46l3.58-6.3L275.84,132a.58.58,0,0,1,.31-1.08H284a.82.82,0,0,1,.72.44l3.28,6.39a.58.58,0,0,1-.83.75c-.52-.33-1-.68-1.56-1-.62,1-1.49,2.47-2.35,4.08Z"/><path class="cls-24" d="M299.68,116.36l3.7,6.3,1.86-1a.58.58,0,0,1,.79.79l-3.88,6.74a.81.81,0,0,1-.75.41l-7.13-.36a.58.58,0,0,1-.25-1.09l1.58-.87c-.49-1-1.36-2.47-2.22-4Z"/><path class="cls-24" d="M307,150.08h-7.28l-.07,2.27a.58.58,0,0,1-1.08.27l-3.92-6.8a.81.81,0,0,1,0-.85L298.5,139a.58.58,0,0,1,1.06.33c0,.57,0,1.14,0,1.69,1.11.12,2.84.12,4.57.12Z"/><path class="cls-24" d="M274.11,139.46l3.58-6.3L275.84,132a.58.58,0,0,1,.31-1.08H284a.82.82,0,0,1,.72.44l3.28,6.39a.58.58,0,0,1-.83.75c-.52-.33-1-.68-1.56-1-.62,1-1.49,2.47-2.35,4.08Z"/></g></g></svg>